<mxfile host="app.diagrams.net" agent="Mozilla/5.0 (Windows NT 10.0; Win64; x64) AppleWebKit/537.36 (KHTML, like Gecko) Chrome/129.0.0.0 Safari/537.36" version="24.8.0">
  <diagram name="Page-1" id="KktYJA6TRHqXEjffICIX">
    <mxGraphModel dx="5706" dy="2474" grid="1" gridSize="10" guides="1" tooltips="1" connect="1" arrows="1" fold="1" page="1" pageScale="1" pageWidth="827" pageHeight="1169" math="0" shadow="0">
      <root>
        <mxCell id="0" />
        <mxCell id="1" parent="0" />
        <mxCell id="mpbrbaJr6Adc5qhqLrDi-6" value="Faculty &amp;amp; Staff&amp;nbsp;" style="text;html=1;align=center;verticalAlign=middle;resizable=0;points=[];autosize=1;strokeColor=none;fillColor=none;" parent="1" vertex="1">
          <mxGeometry x="120" y="20" width="100" height="30" as="geometry" />
        </mxCell>
        <mxCell id="mpbrbaJr6Adc5qhqLrDi-32" value="" style="edgeStyle=orthogonalEdgeStyle;rounded=0;orthogonalLoop=1;jettySize=auto;html=1;" parent="1" source="mpbrbaJr6Adc5qhqLrDi-12" target="mpbrbaJr6Adc5qhqLrDi-31" edge="1">
          <mxGeometry relative="1" as="geometry" />
        </mxCell>
        <mxCell id="mpbrbaJr6Adc5qhqLrDi-34" value="" style="edgeStyle=orthogonalEdgeStyle;rounded=0;orthogonalLoop=1;jettySize=auto;html=1;" parent="1" source="mpbrbaJr6Adc5qhqLrDi-12" target="mpbrbaJr6Adc5qhqLrDi-33" edge="1">
          <mxGeometry relative="1" as="geometry">
            <Array as="points">
              <mxPoint x="175" y="160" />
              <mxPoint x="270" y="160" />
            </Array>
          </mxGeometry>
        </mxCell>
        <mxCell id="mpbrbaJr6Adc5qhqLrDi-12" value="&lt;b&gt;&lt;font style=&quot;font-size: 18px;&quot;&gt;START&lt;/font&gt;&lt;/b&gt;" style="strokeWidth=2;html=1;shape=mxgraph.flowchart.terminator;whiteSpace=wrap;" parent="1" vertex="1">
          <mxGeometry x="100" y="60" width="150" height="50" as="geometry" />
        </mxCell>
        <mxCell id="mpbrbaJr6Adc5qhqLrDi-46" value="" style="edgeStyle=orthogonalEdgeStyle;rounded=0;orthogonalLoop=1;jettySize=auto;html=1;" parent="1" source="mpbrbaJr6Adc5qhqLrDi-31" target="mpbrbaJr6Adc5qhqLrDi-45" edge="1">
          <mxGeometry relative="1" as="geometry">
            <Array as="points">
              <mxPoint x="50" y="270" />
              <mxPoint x="-20" y="270" />
            </Array>
          </mxGeometry>
        </mxCell>
        <mxCell id="mpbrbaJr6Adc5qhqLrDi-48" style="edgeStyle=orthogonalEdgeStyle;rounded=0;orthogonalLoop=1;jettySize=auto;html=1;" parent="1" source="mpbrbaJr6Adc5qhqLrDi-31" edge="1">
          <mxGeometry relative="1" as="geometry">
            <mxPoint x="110" y="310" as="targetPoint" />
            <Array as="points">
              <mxPoint x="50" y="270" />
              <mxPoint x="110" y="270" />
              <mxPoint x="110" y="310" />
            </Array>
          </mxGeometry>
        </mxCell>
        <mxCell id="mpbrbaJr6Adc5qhqLrDi-31" value="Facuty/Staff" style="whiteSpace=wrap;html=1;strokeWidth=2;" parent="1" vertex="1">
          <mxGeometry x="-10" y="210" width="120" height="35" as="geometry" />
        </mxCell>
        <mxCell id="mpbrbaJr6Adc5qhqLrDi-33" value="Leave/Certificate" style="whiteSpace=wrap;html=1;strokeWidth=2;" parent="1" vertex="1">
          <mxGeometry x="210" y="210" width="120" height="35" as="geometry" />
        </mxCell>
        <mxCell id="mpbrbaJr6Adc5qhqLrDi-45" value="Submit" style="whiteSpace=wrap;html=1;strokeWidth=2;" parent="1" vertex="1">
          <mxGeometry x="-70" y="310" width="90" height="37.5" as="geometry" />
        </mxCell>
        <mxCell id="mpbrbaJr6Adc5qhqLrDi-49" value="Display" style="whiteSpace=wrap;html=1;strokeWidth=2;" parent="1" vertex="1">
          <mxGeometry x="60" y="310" width="100" height="37.5" as="geometry" />
        </mxCell>
        <mxCell id="mpbrbaJr6Adc5qhqLrDi-56" value="" style="edgeStyle=orthogonalEdgeStyle;rounded=0;orthogonalLoop=1;jettySize=auto;html=1;" parent="1" source="mpbrbaJr6Adc5qhqLrDi-51" target="mpbrbaJr6Adc5qhqLrDi-54" edge="1">
          <mxGeometry relative="1" as="geometry">
            <Array as="points">
              <mxPoint x="270" y="360" />
              <mxPoint x="215" y="360" />
            </Array>
          </mxGeometry>
        </mxCell>
        <mxCell id="mpbrbaJr6Adc5qhqLrDi-58" style="edgeStyle=orthogonalEdgeStyle;rounded=0;orthogonalLoop=1;jettySize=auto;html=1;" parent="1" source="mpbrbaJr6Adc5qhqLrDi-51" edge="1">
          <mxGeometry relative="1" as="geometry">
            <mxPoint x="350" y="390" as="targetPoint" />
            <Array as="points">
              <mxPoint x="270" y="360" />
              <mxPoint x="350" y="360" />
              <mxPoint x="350" y="390" />
            </Array>
          </mxGeometry>
        </mxCell>
        <mxCell id="mpbrbaJr6Adc5qhqLrDi-51" value="Name Display" style="whiteSpace=wrap;html=1;strokeWidth=2;" parent="1" vertex="1">
          <mxGeometry x="225" y="300" width="90" height="40" as="geometry" />
        </mxCell>
        <mxCell id="mpbrbaJr6Adc5qhqLrDi-61" value="" style="edgeStyle=orthogonalEdgeStyle;rounded=0;orthogonalLoop=1;jettySize=auto;html=1;" parent="1" source="mpbrbaJr6Adc5qhqLrDi-54" target="mpbrbaJr6Adc5qhqLrDi-60" edge="1">
          <mxGeometry relative="1" as="geometry">
            <Array as="points">
              <mxPoint x="210" y="440" />
              <mxPoint x="255" y="440" />
            </Array>
          </mxGeometry>
        </mxCell>
        <mxCell id="mpbrbaJr6Adc5qhqLrDi-63" style="edgeStyle=orthogonalEdgeStyle;rounded=0;orthogonalLoop=1;jettySize=auto;html=1;" parent="1" source="mpbrbaJr6Adc5qhqLrDi-54" edge="1">
          <mxGeometry relative="1" as="geometry">
            <mxPoint x="160" y="460" as="targetPoint" />
            <Array as="points">
              <mxPoint x="210" y="440" />
              <mxPoint x="160" y="440" />
            </Array>
          </mxGeometry>
        </mxCell>
        <mxCell id="mpbrbaJr6Adc5qhqLrDi-54" value="Leave" style="whiteSpace=wrap;html=1;strokeWidth=2;" parent="1" vertex="1">
          <mxGeometry x="160" y="390" width="110" height="30" as="geometry" />
        </mxCell>
        <mxCell id="mpbrbaJr6Adc5qhqLrDi-65" style="edgeStyle=orthogonalEdgeStyle;rounded=0;orthogonalLoop=1;jettySize=auto;html=1;" parent="1" source="mpbrbaJr6Adc5qhqLrDi-59" edge="1">
          <mxGeometry relative="1" as="geometry">
            <mxPoint x="321" y="460" as="targetPoint" />
            <Array as="points">
              <mxPoint x="358" y="440" />
              <mxPoint x="321" y="440" />
              <mxPoint x="321" y="460" />
            </Array>
          </mxGeometry>
        </mxCell>
        <mxCell id="mpbrbaJr6Adc5qhqLrDi-70" value="" style="edgeStyle=orthogonalEdgeStyle;rounded=0;orthogonalLoop=1;jettySize=auto;html=1;" parent="1" source="mpbrbaJr6Adc5qhqLrDi-59" target="mpbrbaJr6Adc5qhqLrDi-69" edge="1">
          <mxGeometry relative="1" as="geometry">
            <Array as="points">
              <mxPoint x="358" y="440" />
              <mxPoint x="400" y="440" />
            </Array>
          </mxGeometry>
        </mxCell>
        <mxCell id="mpbrbaJr6Adc5qhqLrDi-59" value="Certificate" style="whiteSpace=wrap;html=1;strokeWidth=2;" parent="1" vertex="1">
          <mxGeometry x="315" y="390" width="75" height="30" as="geometry" />
        </mxCell>
        <mxCell id="mpbrbaJr6Adc5qhqLrDi-60" value="Display" style="whiteSpace=wrap;html=1;strokeWidth=2;" parent="1" vertex="1">
          <mxGeometry x="220" y="460" width="70" height="20" as="geometry" />
        </mxCell>
        <mxCell id="mpbrbaJr6Adc5qhqLrDi-64" value="Submit" style="whiteSpace=wrap;html=1;strokeWidth=2;" parent="1" vertex="1">
          <mxGeometry x="130" y="460" width="60" height="20" as="geometry" />
        </mxCell>
        <mxCell id="mpbrbaJr6Adc5qhqLrDi-66" value="Submit" style="whiteSpace=wrap;html=1;strokeWidth=2;" parent="1" vertex="1">
          <mxGeometry x="300" y="460" width="50" height="20" as="geometry" />
        </mxCell>
        <mxCell id="mpbrbaJr6Adc5qhqLrDi-69" value="Certificate" style="whiteSpace=wrap;html=1;strokeWidth=2;" parent="1" vertex="1">
          <mxGeometry x="370" y="460" width="60" height="20" as="geometry" />
        </mxCell>
        <mxCell id="mpbrbaJr6Adc5qhqLrDi-72" value="" style="endArrow=classic;html=1;rounded=0;exitX=0.5;exitY=1;exitDx=0;exitDy=0;entryX=0.5;entryY=0;entryDx=0;entryDy=0;" parent="1" source="mpbrbaJr6Adc5qhqLrDi-33" target="mpbrbaJr6Adc5qhqLrDi-51" edge="1">
          <mxGeometry width="50" height="50" relative="1" as="geometry">
            <mxPoint x="260" y="280" as="sourcePoint" />
            <mxPoint x="310" y="230" as="targetPoint" />
            <Array as="points">
              <mxPoint x="270" y="300" />
            </Array>
          </mxGeometry>
        </mxCell>
        <mxCell id="mpbrbaJr6Adc5qhqLrDi-77" value="" style="shape=umlLifeline;perimeter=lifelinePerimeter;whiteSpace=wrap;html=1;container=1;dropTarget=0;collapsible=0;recursiveResize=0;outlineConnect=0;portConstraint=eastwest;newEdgeStyle={&quot;curved&quot;:0,&quot;rounded&quot;:0};participant=umlActor;size=60;" parent="1" vertex="1">
          <mxGeometry x="170" y="640" width="40" height="440" as="geometry" />
        </mxCell>
        <mxCell id="mpbrbaJr6Adc5qhqLrDi-81" value="ADMIN" style="text;html=1;align=center;verticalAlign=middle;resizable=0;points=[];autosize=1;strokeColor=none;fillColor=none;" parent="1" vertex="1">
          <mxGeometry x="160" y="610" width="60" height="30" as="geometry" />
        </mxCell>
        <mxCell id="mpbrbaJr6Adc5qhqLrDi-82" value="DASHBOARD" style="html=1;verticalAlign=bottom;startArrow=circle;startFill=1;endArrow=open;startSize=6;endSize=8;curved=0;rounded=0;" parent="1" source="mpbrbaJr6Adc5qhqLrDi-86" edge="1">
          <mxGeometry y="54" width="80" relative="1" as="geometry">
            <mxPoint x="180" y="840" as="sourcePoint" />
            <mxPoint x="290" y="840" as="targetPoint" />
            <mxPoint x="-50" y="20" as="offset" />
          </mxGeometry>
        </mxCell>
        <mxCell id="mpbrbaJr6Adc5qhqLrDi-88" value="" style="html=1;verticalAlign=bottom;startArrow=circle;startFill=1;endArrow=open;startSize=6;endSize=8;curved=0;rounded=0;" parent="1" source="mpbrbaJr6Adc5qhqLrDi-77" target="mpbrbaJr6Adc5qhqLrDi-86" edge="1">
          <mxGeometry width="80" relative="1" as="geometry">
            <mxPoint x="180" y="840" as="sourcePoint" />
            <mxPoint x="290" y="840" as="targetPoint" />
          </mxGeometry>
        </mxCell>
        <mxCell id="mpbrbaJr6Adc5qhqLrDi-86" value="" style="html=1;points=[[0,0,0,0,5],[0,1,0,0,-5],[1,0,0,0,5],[1,1,0,0,-5]];perimeter=orthogonalPerimeter;outlineConnect=0;targetShapes=umlLifeline;portConstraint=eastwest;newEdgeStyle={&quot;curved&quot;:0,&quot;rounded&quot;:0};" parent="1" vertex="1">
          <mxGeometry x="290" y="810" width="10" height="100" as="geometry" />
        </mxCell>
        <mxCell id="mpbrbaJr6Adc5qhqLrDi-92" value="Leave/Certificate" style="endArrow=block;endFill=1;html=1;edgeStyle=orthogonalEdgeStyle;align=left;verticalAlign=top;rounded=0;" parent="1" edge="1">
          <mxGeometry x="-1" y="-10" relative="1" as="geometry">
            <mxPoint x="290" y="910" as="sourcePoint" />
            <mxPoint x="360" y="910" as="targetPoint" />
            <mxPoint x="-10" y="-10" as="offset" />
          </mxGeometry>
        </mxCell>
        <mxCell id="mpbrbaJr6Adc5qhqLrDi-96" value="" style="endArrow=none;dashed=1;html=1;rounded=0;entryX=0.5;entryY=1;entryDx=0;entryDy=0;" parent="1" target="mpbrbaJr6Adc5qhqLrDi-97" edge="1">
          <mxGeometry width="50" height="50" relative="1" as="geometry">
            <mxPoint x="360" y="1080" as="sourcePoint" />
            <mxPoint x="360" y="760" as="targetPoint" />
          </mxGeometry>
        </mxCell>
        <mxCell id="mpbrbaJr6Adc5qhqLrDi-97" value="FACULTY/STAFF" style="rounded=1;whiteSpace=wrap;html=1;" parent="1" vertex="1">
          <mxGeometry x="300" y="640" width="120" height="40" as="geometry" />
        </mxCell>
        <mxCell id="mpbrbaJr6Adc5qhqLrDi-99" value="" style="endArrow=classic;html=1;rounded=0;" parent="1" edge="1">
          <mxGeometry width="50" height="50" relative="1" as="geometry">
            <mxPoint x="290" y="810" as="sourcePoint" />
            <mxPoint x="360" y="810" as="targetPoint" />
          </mxGeometry>
        </mxCell>
        <mxCell id="mpbrbaJr6Adc5qhqLrDi-100" value="&lt;font style=&quot;font-size: 9px;&quot;&gt;&lt;font style=&quot;&quot;&gt;FACULTY&lt;/font&gt; /STAFF&lt;/font&gt;" style="text;html=1;align=center;verticalAlign=middle;resizable=0;points=[];autosize=1;strokeColor=none;fillColor=none;" parent="1" vertex="1">
          <mxGeometry x="270" y="780" width="100" height="30" as="geometry" />
        </mxCell>
        <mxCell id="mpbrbaJr6Adc5qhqLrDi-101" value="" style="endArrow=none;dashed=1;html=1;rounded=0;" parent="1" source="mpbrbaJr6Adc5qhqLrDi-104" edge="1">
          <mxGeometry width="50" height="50" relative="1" as="geometry">
            <mxPoint x="470" y="1155.6633129882812" as="sourcePoint" />
            <mxPoint x="470" y="680" as="targetPoint" />
            <Array as="points" />
          </mxGeometry>
        </mxCell>
        <mxCell id="mpbrbaJr6Adc5qhqLrDi-103" value="" style="endArrow=classic;html=1;rounded=0;exitX=0.933;exitY=1.106;exitDx=0;exitDy=0;exitPerimeter=0;" parent="1" target="mpbrbaJr6Adc5qhqLrDi-104" edge="1">
          <mxGeometry width="50" height="50" relative="1" as="geometry">
            <mxPoint x="360.00000000000017" y="809.35" as="sourcePoint" />
            <mxPoint x="466.7" y="809.17" as="targetPoint" />
          </mxGeometry>
        </mxCell>
        <mxCell id="mpbrbaJr6Adc5qhqLrDi-105" value="" style="endArrow=none;dashed=1;html=1;rounded=0;exitX=0;exitY=0;exitDx=0;exitDy=5;exitPerimeter=0;" parent="1" source="mpbrbaJr6Adc5qhqLrDi-112" target="mpbrbaJr6Adc5qhqLrDi-104" edge="1">
          <mxGeometry width="50" height="50" relative="1" as="geometry">
            <mxPoint x="470" y="860" as="sourcePoint" />
            <mxPoint x="470" y="724.33" as="targetPoint" />
            <Array as="points" />
          </mxGeometry>
        </mxCell>
        <mxCell id="mpbrbaJr6Adc5qhqLrDi-104" value="" style="html=1;points=[[0,0,0,0,5],[0,1,0,0,-5],[1,0,0,0,5],[1,1,0,0,-5]];perimeter=orthogonalPerimeter;outlineConnect=0;targetShapes=umlLifeline;portConstraint=eastwest;newEdgeStyle={&quot;curved&quot;:0,&quot;rounded&quot;:0};" parent="1" vertex="1">
          <mxGeometry x="470" y="780" width="10" height="60" as="geometry" />
        </mxCell>
        <mxCell id="mpbrbaJr6Adc5qhqLrDi-106" value="&lt;font style=&quot;font-size: 7px;&quot;&gt;SUBMIT&lt;/font&gt;" style="text;html=1;align=center;verticalAlign=middle;resizable=0;points=[];autosize=1;strokeColor=none;fillColor=none;" parent="1" vertex="1">
          <mxGeometry x="470" y="770" width="50" height="30" as="geometry" />
        </mxCell>
        <mxCell id="mpbrbaJr6Adc5qhqLrDi-107" value="&lt;font style=&quot;font-size: 7px;&quot;&gt;DISPLAY&lt;/font&gt;" style="text;html=1;align=center;verticalAlign=middle;resizable=0;points=[];autosize=1;strokeColor=none;fillColor=none;" parent="1" vertex="1">
          <mxGeometry x="470" y="820" width="50" height="30" as="geometry" />
        </mxCell>
        <mxCell id="mpbrbaJr6Adc5qhqLrDi-111" value="" style="endArrow=none;dashed=1;html=1;rounded=0;" parent="1" target="mpbrbaJr6Adc5qhqLrDi-112" edge="1">
          <mxGeometry width="50" height="50" relative="1" as="geometry">
            <mxPoint x="470" y="1080" as="sourcePoint" />
            <mxPoint x="470" y="840" as="targetPoint" />
            <Array as="points">
              <mxPoint x="470" y="944.33" />
            </Array>
          </mxGeometry>
        </mxCell>
        <mxCell id="mpbrbaJr6Adc5qhqLrDi-112" value="" style="html=1;points=[[0,0,0,0,5],[0,1,0,0,-5],[1,0,0,0,5],[1,1,0,0,-5]];perimeter=orthogonalPerimeter;outlineConnect=0;targetShapes=umlLifeline;portConstraint=eastwest;newEdgeStyle={&quot;curved&quot;:0,&quot;rounded&quot;:0};" parent="1" vertex="1">
          <mxGeometry x="470" y="880" width="10" height="120" as="geometry" />
        </mxCell>
        <mxCell id="mpbrbaJr6Adc5qhqLrDi-113" value="" style="endArrow=block;endFill=1;html=1;edgeStyle=orthogonalEdgeStyle;align=left;verticalAlign=top;rounded=0;" parent="1" edge="1">
          <mxGeometry x="-1" relative="1" as="geometry">
            <mxPoint x="360" y="910" as="sourcePoint" />
            <mxPoint x="470" y="910" as="targetPoint" />
          </mxGeometry>
        </mxCell>
        <mxCell id="mpbrbaJr6Adc5qhqLrDi-115" value="&lt;font style=&quot;font-size: 8px;&quot;&gt;&lt;b&gt;NAME DISPLAY&lt;/b&gt;&lt;/font&gt;" style="text;html=1;align=center;verticalAlign=middle;resizable=0;points=[];autosize=1;strokeColor=none;fillColor=none;" parent="1" vertex="1">
          <mxGeometry x="470" y="910" width="80" height="30" as="geometry" />
        </mxCell>
        <mxCell id="mpbrbaJr6Adc5qhqLrDi-119" value="" style="endArrow=block;endFill=1;html=1;edgeStyle=orthogonalEdgeStyle;align=left;verticalAlign=top;rounded=0;" parent="1" edge="1">
          <mxGeometry x="-1" relative="1" as="geometry">
            <mxPoint x="470" y="880" as="sourcePoint" />
            <mxPoint x="560" y="880" as="targetPoint" />
          </mxGeometry>
        </mxCell>
        <mxCell id="mpbrbaJr6Adc5qhqLrDi-123" value="&lt;font style=&quot;font-size: 7px;&quot;&gt;LEAVE&lt;/font&gt;" style="text;html=1;align=center;verticalAlign=middle;resizable=0;points=[];autosize=1;strokeColor=none;fillColor=none;" parent="1" vertex="1">
          <mxGeometry x="460" y="858" width="50" height="30" as="geometry" />
        </mxCell>
        <mxCell id="mpbrbaJr6Adc5qhqLrDi-124" value="" style="endArrow=block;endFill=1;html=1;edgeStyle=orthogonalEdgeStyle;align=left;verticalAlign=top;rounded=0;" parent="1" edge="1">
          <mxGeometry y="-10" relative="1" as="geometry">
            <mxPoint x="470" y="1000" as="sourcePoint" />
            <mxPoint x="560" y="1000" as="targetPoint" />
            <mxPoint as="offset" />
          </mxGeometry>
        </mxCell>
        <mxCell id="mpbrbaJr6Adc5qhqLrDi-126" value="&lt;font style=&quot;font-size: 7px;&quot;&gt;CERTIFICATE&lt;/font&gt;" style="text;html=1;align=center;verticalAlign=middle;resizable=0;points=[];autosize=1;strokeColor=none;fillColor=none;" parent="1" vertex="1">
          <mxGeometry x="460" y="990" width="70" height="30" as="geometry" />
        </mxCell>
        <mxCell id="mpbrbaJr6Adc5qhqLrDi-128" value="" style="endArrow=none;dashed=1;html=1;rounded=0;" parent="1" source="mpbrbaJr6Adc5qhqLrDi-132" edge="1">
          <mxGeometry width="50" height="50" relative="1" as="geometry">
            <mxPoint x="560" y="1080" as="sourcePoint" />
            <mxPoint x="560" y="680" as="targetPoint" />
          </mxGeometry>
        </mxCell>
        <mxCell id="mpbrbaJr6Adc5qhqLrDi-131" value="" style="endArrow=none;dashed=1;html=1;rounded=0;" parent="1" target="mpbrbaJr6Adc5qhqLrDi-132" edge="1">
          <mxGeometry width="50" height="50" relative="1" as="geometry">
            <mxPoint x="560" y="1080" as="sourcePoint" />
            <mxPoint x="560" y="720" as="targetPoint" />
          </mxGeometry>
        </mxCell>
        <mxCell id="mpbrbaJr6Adc5qhqLrDi-132" value="" style="html=1;points=[[0,0,0,0,5],[0,1,0,0,-5],[1,0,0,0,5],[1,1,0,0,-5]];perimeter=orthogonalPerimeter;outlineConnect=0;targetShapes=umlLifeline;portConstraint=eastwest;newEdgeStyle={&quot;curved&quot;:0,&quot;rounded&quot;:0};" parent="1" vertex="1">
          <mxGeometry x="560" y="850" width="10" height="70" as="geometry" />
        </mxCell>
        <mxCell id="mpbrbaJr6Adc5qhqLrDi-138" value="" style="endArrow=block;endFill=1;html=1;edgeStyle=orthogonalEdgeStyle;align=left;verticalAlign=top;rounded=0;" parent="1" edge="1">
          <mxGeometry x="-1" relative="1" as="geometry">
            <mxPoint x="560" y="850" as="sourcePoint" />
            <mxPoint x="660" y="850" as="targetPoint" />
          </mxGeometry>
        </mxCell>
        <mxCell id="mpbrbaJr6Adc5qhqLrDi-140" value="" style="endArrow=block;endFill=1;html=1;edgeStyle=orthogonalEdgeStyle;align=left;verticalAlign=top;rounded=0;" parent="1" edge="1">
          <mxGeometry x="-1" relative="1" as="geometry">
            <mxPoint x="560" y="920" as="sourcePoint" />
            <mxPoint x="660" y="920" as="targetPoint" />
          </mxGeometry>
        </mxCell>
        <mxCell id="mpbrbaJr6Adc5qhqLrDi-141" value="&lt;font style=&quot;font-size: 8px;&quot;&gt;SUBMIT&lt;/font&gt;" style="text;html=1;align=center;verticalAlign=middle;resizable=0;points=[];autosize=1;strokeColor=none;fillColor=none;" parent="1" vertex="1">
          <mxGeometry x="560" y="828" width="50" height="30" as="geometry" />
        </mxCell>
        <mxCell id="mpbrbaJr6Adc5qhqLrDi-142" value="&lt;font style=&quot;font-size: 8px;&quot;&gt;DISPLAY&lt;/font&gt;" style="text;html=1;align=center;verticalAlign=middle;resizable=0;points=[];autosize=1;strokeColor=none;fillColor=none;" parent="1" vertex="1">
          <mxGeometry x="555" y="910" width="60" height="30" as="geometry" />
        </mxCell>
        <mxCell id="mpbrbaJr6Adc5qhqLrDi-143" value="" style="html=1;points=[[0,0,0,0,5],[0,1,0,0,-5],[1,0,0,0,5],[1,1,0,0,-5]];perimeter=orthogonalPerimeter;outlineConnect=0;targetShapes=umlLifeline;portConstraint=eastwest;newEdgeStyle={&quot;curved&quot;:0,&quot;rounded&quot;:0};" parent="1" vertex="1">
          <mxGeometry x="560" y="965" width="10" height="80" as="geometry" />
        </mxCell>
        <mxCell id="mpbrbaJr6Adc5qhqLrDi-146" value="" style="endArrow=block;endFill=1;html=1;edgeStyle=orthogonalEdgeStyle;align=left;verticalAlign=top;rounded=0;" parent="1" edge="1">
          <mxGeometry x="-1" relative="1" as="geometry">
            <mxPoint x="560" y="965" as="sourcePoint" />
            <mxPoint x="660" y="965" as="targetPoint" />
            <Array as="points">
              <mxPoint x="610" y="965" />
              <mxPoint x="610" y="965" />
            </Array>
          </mxGeometry>
        </mxCell>
        <mxCell id="mpbrbaJr6Adc5qhqLrDi-147" value="&lt;font style=&quot;font-size: 8px;&quot;&gt;SUBMIT&lt;/font&gt;" style="text;html=1;align=center;verticalAlign=middle;resizable=0;points=[];autosize=1;strokeColor=none;fillColor=none;" parent="1" vertex="1">
          <mxGeometry x="555" y="940" width="50" height="30" as="geometry" />
        </mxCell>
        <mxCell id="mpbrbaJr6Adc5qhqLrDi-148" value="&lt;font style=&quot;font-size: 8px;&quot;&gt;CERTIFICATE&lt;/font&gt;" style="text;html=1;align=center;verticalAlign=middle;resizable=0;points=[];autosize=1;strokeColor=none;fillColor=none;" parent="1" vertex="1">
          <mxGeometry x="555" y="1040" width="80" height="30" as="geometry" />
        </mxCell>
        <mxCell id="mpbrbaJr6Adc5qhqLrDi-149" value="" style="endArrow=block;endFill=1;html=1;edgeStyle=orthogonalEdgeStyle;align=left;verticalAlign=top;rounded=0;" parent="1" edge="1">
          <mxGeometry x="-1" relative="1" as="geometry">
            <mxPoint x="570" y="1044.71" as="sourcePoint" />
            <mxPoint x="660" y="1045" as="targetPoint" />
            <Array as="points">
              <mxPoint x="620" y="1044.71" />
              <mxPoint x="620" y="1044.71" />
            </Array>
          </mxGeometry>
        </mxCell>
        <mxCell id="mpbrbaJr6Adc5qhqLrDi-150" value="" style="endArrow=none;dashed=1;html=1;rounded=0;" parent="1" source="mpbrbaJr6Adc5qhqLrDi-154" edge="1">
          <mxGeometry width="50" height="50" relative="1" as="geometry">
            <mxPoint x="660" y="1080" as="sourcePoint" />
            <mxPoint x="660" y="680" as="targetPoint" />
          </mxGeometry>
        </mxCell>
        <mxCell id="mpbrbaJr6Adc5qhqLrDi-151" value="HOME" style="html=1;verticalAlign=bottom;endArrow=open;dashed=1;endSize=8;curved=0;rounded=0;" parent="1" target="mpbrbaJr6Adc5qhqLrDi-86" edge="1">
          <mxGeometry relative="1" as="geometry">
            <mxPoint x="500" y="760" as="sourcePoint" />
            <mxPoint x="250" y="890" as="targetPoint" />
            <Array as="points">
              <mxPoint x="250" y="760" />
              <mxPoint x="250" y="820" />
            </Array>
          </mxGeometry>
        </mxCell>
        <mxCell id="mpbrbaJr6Adc5qhqLrDi-153" value="" style="endArrow=none;dashed=1;html=1;rounded=0;" parent="1" edge="1">
          <mxGeometry width="50" height="50" relative="1" as="geometry">
            <mxPoint x="500" y="780" as="sourcePoint" />
            <mxPoint x="500.48" y="760" as="targetPoint" />
          </mxGeometry>
        </mxCell>
        <mxCell id="mpbrbaJr6Adc5qhqLrDi-155" value="" style="endArrow=none;dashed=1;html=1;rounded=0;" parent="1" target="mpbrbaJr6Adc5qhqLrDi-154" edge="1">
          <mxGeometry width="50" height="50" relative="1" as="geometry">
            <mxPoint x="660" y="1080" as="sourcePoint" />
            <mxPoint x="660" y="680" as="targetPoint" />
          </mxGeometry>
        </mxCell>
        <mxCell id="mpbrbaJr6Adc5qhqLrDi-154" value="" style="html=1;points=[[0,0,0,0,5],[0,1,0,0,-5],[1,0,0,0,5],[1,1,0,0,-5]];perimeter=orthogonalPerimeter;outlineConnect=0;targetShapes=umlLifeline;portConstraint=eastwest;newEdgeStyle={&quot;curved&quot;:0,&quot;rounded&quot;:0};" parent="1" vertex="1">
          <mxGeometry x="660" y="885" width="10" height="65" as="geometry" />
        </mxCell>
        <mxCell id="mpbrbaJr6Adc5qhqLrDi-158" value="HOME" style="html=1;verticalAlign=bottom;endArrow=open;dashed=1;endSize=8;curved=0;rounded=0;" parent="1" target="mpbrbaJr6Adc5qhqLrDi-86" edge="1">
          <mxGeometry relative="1" as="geometry">
            <mxPoint x="670" y="930" as="sourcePoint" />
            <mxPoint x="220" y="900" as="targetPoint" />
            <Array as="points">
              <mxPoint x="670" y="930" />
              <mxPoint x="720" y="930" />
              <mxPoint x="720" y="1070" />
              <mxPoint x="220" y="1070" />
              <mxPoint x="220" y="910" />
            </Array>
          </mxGeometry>
        </mxCell>
        <UserObject label="" plantUmlData="{&quot;data&quot;:&quot;@startuml\nskinparam backgroundColor #FFFFFF\nskinparam activity {\n    BackgroundColor #ADD8E6\n    BorderColor #4682B4\n    FontColor #000080\n}\nskinparam decision {\n    BackgroundColor #FFEB3B\n    BorderColor #F57F17\n}\nskinparam partition {\n    BackgroundColor #E1F5FE\n    FontColor #0277BD\n    BorderColor #0288D1\n}\n\nstart\n:Sign Up;\n:Login;\n\nif (Login Successful?) then (Yes)\n    if (Is Student?) then (Yes)\n        partition \&quot;Student Flow\&quot; {\n            :Create Profile;\n            :Edit/Update Profile;\n            :Upload Resume (PDF);\n            :Add/Update Skills;\n            :View Applied Jobs;\n            :Track Application Status (Accepted/Rejected);\n            :Search Jobs by Keyword;\n            :Filter Jobs (Location, Type, Skills);\n            :View Job Details;\n        }\n    else (No)\n        partition \&quot;Employer Flow\&quot; {\n            :Add/Update Company Details;\n            :Manage Job Postings;\n            :Track Job Applications;\n            :View/Manage Student Applications;\n            :Create Job;\n            :Edit Job;\n            :Delete Job;\n        }\n    endif\nelse (No)\n    :Show Error;\n    :Retry Login;\nendif\n\nstop\n@enduml\n&quot;,&quot;format&quot;:&quot;svg&quot;}" id="B4BPFSr__uT_kfEw5dcK-1">
          <mxCell style="shape=image;noLabel=1;verticalAlign=top;aspect=fixed;imageAspect=0;image=data:image/svg+xml,PD94bWwgdmVyc2lvbj0iMS4wIiBlbmNvZGluZz0idXMtYXNjaWkiIHN0YW5kYWxvbmU9Im5vIj8+PHN2ZyB4bWxucz0iaHR0cDovL3d3dy53My5vcmcvMjAwMC9zdmciIHhtbG5zOnhsaW5rPSJodHRwOi8vd3d3LnczLm9yZy8xOTk5L3hsaW5rIiBjb250ZW50U3R5bGVUeXBlPSJ0ZXh0L2NzcyIgaGVpZ2h0PSI4NDZweCIgcHJlc2VydmVBc3BlY3RSYXRpbz0ibm9uZSIgc3R5bGU9IndpZHRoOjcyNXB4O2hlaWdodDo4NDZweDtiYWNrZ3JvdW5kOiNGRkZGRkY7IiB2ZXJzaW9uPSIxLjEiIHZpZXdCb3g9IjAgMCA3MjUgODQ2IiB3aWR0aD0iNzI1cHgiIHpvb21BbmRQYW49Im1hZ25pZnkiPjxkZWZzLz48Zz48ZWxsaXBzZSBjeD0iNTA4LjUiIGN5PSIyMCIgZmlsbD0iIzIyMjIyMiIgcng9IjEwIiByeT0iMTAiIHN0eWxlPSJzdHJva2U6IzIyMjIyMjtzdHJva2Utd2lkdGg6MS4wOyIvPjxyZWN0IGZpbGw9IiNBREQ4RTYiIGhlaWdodD0iMzIuODQzOCIgcng9IjEyLjUiIHJ5PSIxMi41IiBzdHlsZT0ic3Ryb2tlOiM0NjgyQjQ7c3Ryb2tlLXdpZHRoOjAuNTsiIHdpZHRoPSI2NyIgeD0iNDc1IiB5PSI1MCIvPjx0ZXh0IGZpbGw9IiMwMDAwODAiIGZvbnQtZmFtaWx5PSJzYW5zLXNlcmlmIiBmb250LXNpemU9IjEyIiBsZW5ndGhBZGp1c3Q9InNwYWNpbmciIHRleHRMZW5ndGg9IjQ3IiB4PSI0ODUiIHk9IjcxLjM0MzgiPlNpZ24gVXA8L3RleHQ+PHJlY3QgZmlsbD0iI0FERDhFNiIgaGVpZ2h0PSIzMi44NDM4IiByeD0iMTIuNSIgcnk9IjEyLjUiIHN0eWxlPSJzdHJva2U6IzQ2ODJCNDtzdHJva2Utd2lkdGg6MC41OyIgd2lkdGg9IjUzIiB4PSI0ODIiIHk9IjEwMi44NDM4Ii8+PHRleHQgZmlsbD0iIzAwMDA4MCIgZm9udC1mYW1pbHk9InNhbnMtc2VyaWYiIGZvbnQtc2l6ZT0iMTIiIGxlbmd0aEFkanVzdD0ic3BhY2luZyIgdGV4dExlbmd0aD0iMzMiIHg9IjQ5MiIgeT0iMTI0LjE4NzUiPkxvZ2luPC90ZXh0Pjxwb2x5Z29uIGZpbGw9IiNBREQ4RTYiIHBvaW50cz0iNDU3LjUsMTU1LjY4NzUsNTU5LjUsMTU1LjY4NzUsNTcxLjUsMTY3LjY4NzUsNTU5LjUsMTc5LjY4NzUsNDU3LjUsMTc5LjY4NzUsNDQ1LjUsMTY3LjY4NzUsNDU3LjUsMTU1LjY4NzUiIHN0eWxlPSJzdHJva2U6IzQ2ODJCNDtzdHJva2Utd2lkdGg6MC41OyIvPjx0ZXh0IGZpbGw9IiMwMDAwODAiIGZvbnQtZmFtaWx5PSJzYW5zLXNlcmlmIiBmb250LXNpemU9IjExIiBsZW5ndGhBZGp1c3Q9InNwYWNpbmciIHRleHRMZW5ndGg9IjEwMiIgeD0iNDU3LjUiIHk9IjE3Mi4xOTkyIj5Mb2dpbiBTdWNjZXNzZnVsPzwvdGV4dD48dGV4dCBmaWxsPSIjMDAwMDAwIiBmb250LWZhbWlseT0ic2Fucy1zZXJpZiIgZm9udC1zaXplPSIxMSIgbGVuZ3RoQWRqdXN0PSJzcGFjaW5nIiB0ZXh0TGVuZ3RoPSIxOCIgeD0iNDI3LjUiIHk9IjE2Ni4zMTI1Ij5ZZXM8L3RleHQ+PHRleHQgZmlsbD0iIzAwMDAwMCIgZm9udC1mYW1pbHk9InNhbnMtc2VyaWYiIGZvbnQtc2l6ZT0iMTEiIGxlbmd0aEFkanVzdD0ic3BhY2luZyIgdGV4dExlbmd0aD0iMTIiIHg9IjU3MS41IiB5PSIxNjYuMzEyNSI+Tm88L3RleHQ+PHBvbHlnb24gZmlsbD0iI0FERDhFNiIgcG9pbnRzPSIyOTYuNSwxODkuNjg3NSwzNjIuNSwxODkuNjg3NSwzNzQuNSwyMDEuNjg3NSwzNjIuNSwyMTMuNjg3NSwyOTYuNSwyMTMuNjg3NSwyODQuNSwyMDEuNjg3NSwyOTYuNSwxODkuNjg3NSIgc3R5bGU9InN0cm9rZTojNDY4MkI0O3N0cm9rZS13aWR0aDowLjU7Ii8+PHRleHQgZmlsbD0iIzAwMDA4MCIgZm9udC1mYW1pbHk9InNhbnMtc2VyaWYiIGZvbnQtc2l6ZT0iMTEiIGxlbmd0aEFkanVzdD0ic3BhY2luZyIgdGV4dExlbmd0aD0iNjYiIHg9IjI5Ni41IiB5PSIyMDYuMTk5MiI+SXMgU3R1ZGVudD88L3RleHQ+PHRleHQgZmlsbD0iIzAwMDAwMCIgZm9udC1mYW1pbHk9InNhbnMtc2VyaWYiIGZvbnQtc2l6ZT0iMTEiIGxlbmd0aEFkanVzdD0ic3BhY2luZyIgdGV4dExlbmd0aD0iMTgiIHg9IjI2Ni41IiB5PSIyMDAuMzEyNSI+WWVzPC90ZXh0Pjx0ZXh0IGZpbGw9IiMwMDAwMDAiIGZvbnQtZmFtaWx5PSJzYW5zLXNlcmlmIiBmb250LXNpemU9IjExIiBsZW5ndGhBZGp1c3Q9InNwYWNpbmciIHRleHRMZW5ndGg9IjEyIiB4PSIzNzQuNSIgeT0iMjAwLjMxMjUiPk5vPC90ZXh0PjxyZWN0IGZpbGw9IiNFMUY1RkUiIGhlaWdodD0iNTA5LjU3ODEiIHN0eWxlPSJzdHJva2U6IzAyODhEMTtzdHJva2Utd2lkdGg6MS41OyIgd2lkdGg9IjMyNyIgeD0iMTEiIHk9IjIyMy42ODc1Ii8+PHBhdGggZD0iTTEwNiwyMjMuNjg3NSBMMTA2LDIzMS42NzE5IEw5NiwyNDEuNjcxOSBMMTEsMjQxLjY3MTkgIiBmaWxsPSJub25lIiBzdHlsZT0ic3Ryb2tlOiMwMjg4RDE7c3Ryb2tlLXdpZHRoOjEuNTsiLz48dGV4dCBmaWxsPSIjMDI3N0JEIiBmb250LWZhbWlseT0ic2Fucy1zZXJpZiIgZm9udC1zaXplPSIxNCIgbGVuZ3RoQWRqdXN0PSJzcGFjaW5nIiB0ZXh0TGVuZ3RoPSI4NSIgeD0iMTQiIHk9IjIzNy45MjE5Ij5TdHVkZW50IEZsb3c8L3RleHQ+PHJlY3QgZmlsbD0iI0FERDhFNiIgaGVpZ2h0PSIzMi44NDM4IiByeD0iMTIuNSIgcnk9IjEyLjUiIHN0eWxlPSJzdHJva2U6IzQ2ODJCNDtzdHJva2Utd2lkdGg6MC41OyIgd2lkdGg9IjExMyIgeD0iMTE4IiB5PSIyNTguNjcxOSIvPjx0ZXh0IGZpbGw9IiMwMDAwODAiIGZvbnQtZmFtaWx5PSJzYW5zLXNlcmlmIiBmb250LXNpemU9IjEyIiBsZW5ndGhBZGp1c3Q9InNwYWNpbmciIHRleHRMZW5ndGg9IjkzIiB4PSIxMjgiIHk9IjI4MC4wMTU2Ij5DcmVhdGUgUHJvZmlsZTwvdGV4dD48cmVjdCBmaWxsPSIjQUREOEU2IiBoZWlnaHQ9IjMyLjg0MzgiIHJ4PSIxMi41IiByeT0iMTIuNSIgc3R5bGU9InN0cm9rZTojNDY4MkI0O3N0cm9rZS13aWR0aDowLjU7IiB3aWR0aD0iMTQ1IiB4PSIxMDIiIHk9IjMxMS41MTU2Ii8+PHRleHQgZmlsbD0iIzAwMDA4MCIgZm9udC1mYW1pbHk9InNhbnMtc2VyaWYiIGZvbnQtc2l6ZT0iMTIiIGxlbmd0aEFkanVzdD0ic3BhY2luZyIgdGV4dExlbmd0aD0iMTI1IiB4PSIxMTIiIHk9IjMzMi44NTk0Ij5FZGl0L1VwZGF0ZSBQcm9maWxlPC90ZXh0PjxyZWN0IGZpbGw9IiNBREQ4RTYiIGhlaWdodD0iMzIuODQzOCIgcng9IjEyLjUiIHJ5PSIxMi41IiBzdHlsZT0ic3Ryb2tlOiM0NjgyQjQ7c3Ryb2tlLXdpZHRoOjAuNTsiIHdpZHRoPSIxNDYiIHg9IjEwMS41IiB5PSIzNjQuMzU5NCIvPjx0ZXh0IGZpbGw9IiMwMDAwODAiIGZvbnQtZmFtaWx5PSJzYW5zLXNlcmlmIiBmb250LXNpemU9IjEyIiBsZW5ndGhBZGp1c3Q9InNwYWNpbmciIHRleHRMZW5ndGg9IjEyNiIgeD0iMTExLjUiIHk9IjM4NS43MDMxIj5VcGxvYWQgUmVzdW1lIChQREYpPC90ZXh0PjxyZWN0IGZpbGw9IiNBREQ4RTYiIGhlaWdodD0iMzIuODQzOCIgcng9IjEyLjUiIHJ5PSIxMi41IiBzdHlsZT0ic3Ryb2tlOiM0NjgyQjQ7c3Ryb2tlLXdpZHRoOjAuNTsiIHdpZHRoPSIxMzMiIHg9IjEwOCIgeT0iNDE3LjIwMzEiLz48dGV4dCBmaWxsPSIjMDAwMDgwIiBmb250LWZhbWlseT0ic2Fucy1zZXJpZiIgZm9udC1zaXplPSIxMiIgbGVuZ3RoQWRqdXN0PSJzcGFjaW5nIiB0ZXh0TGVuZ3RoPSIxMTMiIHg9IjExOCIgeT0iNDM4LjU0NjkiPkFkZC9VcGRhdGUgU2tpbGxzPC90ZXh0PjxyZWN0IGZpbGw9IiNBREQ4RTYiIGhlaWdodD0iMzIuODQzOCIgcng9IjEyLjUiIHJ5PSIxMi41IiBzdHlsZT0ic3Ryb2tlOiM0NjgyQjQ7c3Ryb2tlLXdpZHRoOjAuNTsiIHdpZHRoPSIxMzIiIHg9IjEwOC41IiB5PSI0NzAuMDQ2OSIvPjx0ZXh0IGZpbGw9IiMwMDAwODAiIGZvbnQtZmFtaWx5PSJzYW5zLXNlcmlmIiBmb250LXNpemU9IjEyIiBsZW5ndGhBZGp1c3Q9InNwYWNpbmciIHRleHRMZW5ndGg9IjExMiIgeD0iMTE4LjUiIHk9IjQ5MS4zOTA2Ij5WaWV3IEFwcGxpZWQgSm9iczwvdGV4dD48cmVjdCBmaWxsPSIjQUREOEU2IiBoZWlnaHQ9IjMyLjg0MzgiIHJ4PSIxMi41IiByeT0iMTIuNSIgc3R5bGU9InN0cm9rZTojNDY4MkI0O3N0cm9rZS13aWR0aDowLjU7IiB3aWR0aD0iMzA3IiB4PSIyMSIgeT0iNTIyLjg5MDYiLz48dGV4dCBmaWxsPSIjMDAwMDgwIiBmb250LWZhbWlseT0ic2Fucy1zZXJpZiIgZm9udC1zaXplPSIxMiIgbGVuZ3RoQWRqdXN0PSJzcGFjaW5nIiB0ZXh0TGVuZ3RoPSIyODciIHg9IjMxIiB5PSI1NDQuMjM0NCI+VHJhY2sgQXBwbGljYXRpb24gU3RhdHVzIChBY2NlcHRlZC9SZWplY3RlZCk8L3RleHQ+PHJlY3QgZmlsbD0iI0FERDhFNiIgaGVpZ2h0PSIzMi44NDM4IiByeD0iMTIuNSIgcnk9IjEyLjUiIHN0eWxlPSJzdHJva2U6IzQ2ODJCNDtzdHJva2Utd2lkdGg6MC41OyIgd2lkdGg9IjE2NyIgeD0iOTEiIHk9IjU3NS43MzQ0Ii8+PHRleHQgZmlsbD0iIzAwMDA4MCIgZm9udC1mYW1pbHk9InNhbnMtc2VyaWYiIGZvbnQtc2l6ZT0iMTIiIGxlbmd0aEFkanVzdD0ic3BhY2luZyIgdGV4dExlbmd0aD0iMTQ3IiB4PSIxMDEiIHk9IjU5Ny4wNzgxIj5TZWFyY2ggSm9icyBieSBLZXl3b3JkPC90ZXh0PjxyZWN0IGZpbGw9IiNBREQ4RTYiIGhlaWdodD0iMzIuODQzOCIgcng9IjEyLjUiIHJ5PSIxMi41IiBzdHlsZT0ic3Ryb2tlOiM0NjgyQjQ7c3Ryb2tlLXdpZHRoOjAuNTsiIHdpZHRoPSIyNTAiIHg9IjQ5LjUiIHk9IjYzNS41NzgxIi8+PHRleHQgZmlsbD0iIzAwMDA4MCIgZm9udC1mYW1pbHk9InNhbnMtc2VyaWYiIGZvbnQtc2l6ZT0iMTIiIGxlbmd0aEFkanVzdD0ic3BhY2luZyIgdGV4dExlbmd0aD0iMjMwIiB4PSI1OS41IiB5PSI2NTYuOTIxOSI+RmlsdGVyIEpvYnMgKExvY2F0aW9uLCBUeXBlLCBTa2lsbHMpPC90ZXh0PjxyZWN0IGZpbGw9IiNBREQ4RTYiIGhlaWdodD0iMzIuODQzOCIgcng9IjEyLjUiIHJ5PSIxMi41IiBzdHlsZT0ic3Ryb2tlOiM0NjgyQjQ7c3Ryb2tlLXdpZHRoOjAuNTsiIHdpZHRoPSIxMjQiIHg9IjExMi41IiB5PSI2ODguNDIxOSIvPjx0ZXh0IGZpbGw9IiMwMDAwODAiIGZvbnQtZmFtaWx5PSJzYW5zLXNlcmlmIiBmb250LXNpemU9IjEyIiBsZW5ndGhBZGp1c3Q9InNwYWNpbmciIHRleHRMZW5ndGg9IjEwNCIgeD0iMTIyLjUiIHk9IjcwOS43NjU2Ij5WaWV3IEpvYiBEZXRhaWxzPC90ZXh0PjxyZWN0IGZpbGw9IiNFMUY1RkUiIGhlaWdodD0iMzk2Ljg5MDYiIHN0eWxlPSJzdHJva2U6IzAyODhEMTtzdHJva2Utd2lkdGg6MS41OyIgd2lkdGg9IjI1MyIgeD0iMzU4IiB5PSIyMjMuNjg3NSIvPjxwYXRoIGQ9Ik00NjEsMjIzLjY4NzUgTDQ2MSwyMzEuNjcxOSBMNDUxLDI0MS42NzE5IEwzNTgsMjQxLjY3MTkgIiBmaWxsPSJub25lIiBzdHlsZT0ic3Ryb2tlOiMwMjg4RDE7c3Ryb2tlLXdpZHRoOjEuNTsiLz48dGV4dCBmaWxsPSIjMDI3N0JEIiBmb250LWZhbWlseT0ic2Fucy1zZXJpZiIgZm9udC1zaXplPSIxNCIgbGVuZ3RoQWRqdXN0PSJzcGFjaW5nIiB0ZXh0TGVuZ3RoPSI5MyIgeD0iMzYxIiB5PSIyMzcuOTIxOSI+RW1wbG95ZXIgRmxvdzwvdGV4dD48cmVjdCBmaWxsPSIjQUREOEU2IiBoZWlnaHQ9IjMyLjg0MzgiIHJ4PSIxMi41IiByeT0iMTIuNSIgc3R5bGU9InN0cm9rZTojNDY4MkI0O3N0cm9rZS13aWR0aDowLjU7IiB3aWR0aD0iMTk1IiB4PSIzODciIHk9IjI1OC42NzE5Ii8+PHRleHQgZmlsbD0iIzAwMDA4MCIgZm9udC1mYW1pbHk9InNhbnMtc2VyaWYiIGZvbnQtc2l6ZT0iMTIiIGxlbmd0aEFkanVzdD0ic3BhY2luZyIgdGV4dExlbmd0aD0iMTc1IiB4PSIzOTciIHk9IjI4MC4wMTU2Ij5BZGQvVXBkYXRlIENvbXBhbnkgRGV0YWlsczwvdGV4dD48cmVjdCBmaWxsPSIjQUREOEU2IiBoZWlnaHQ9IjMyLjg0MzgiIHJ4PSIxMi41IiByeT0iMTIuNSIgc3R5bGU9InN0cm9rZTojNDY4MkI0O3N0cm9rZS13aWR0aDowLjU7IiB3aWR0aD0iMTQ4IiB4PSI0MTAuNSIgeT0iMzExLjUxNTYiLz48dGV4dCBmaWxsPSIjMDAwMDgwIiBmb250LWZhbWlseT0ic2Fucy1zZXJpZiIgZm9udC1zaXplPSIxMiIgbGVuZ3RoQWRqdXN0PSJzcGFjaW5nIiB0ZXh0TGVuZ3RoPSIxMjgiIHg9IjQyMC41IiB5PSIzMzIuODU5NCI+TWFuYWdlIEpvYiBQb3N0aW5nczwvdGV4dD48cmVjdCBmaWxsPSIjQUREOEU2IiBoZWlnaHQ9IjMyLjg0MzgiIHJ4PSIxMi41IiByeT0iMTIuNSIgc3R5bGU9InN0cm9rZTojNDY4MkI0O3N0cm9rZS13aWR0aDowLjU7IiB3aWR0aD0iMTYzIiB4PSI0MDMiIHk9IjM2NC4zNTk0Ii8+PHRleHQgZmlsbD0iIzAwMDA4MCIgZm9udC1mYW1pbHk9InNhbnMtc2VyaWYiIGZvbnQtc2l6ZT0iMTIiIGxlbmd0aEFkanVzdD0ic3BhY2luZyIgdGV4dExlbmd0aD0iMTQzIiB4PSI0MTMiIHk9IjM4NS43MDMxIj5UcmFjayBKb2IgQXBwbGljYXRpb25zPC90ZXh0PjxyZWN0IGZpbGw9IiNBREQ4RTYiIGhlaWdodD0iMzIuODQzOCIgcng9IjEyLjUiIHJ5PSIxMi41IiBzdHlsZT0ic3Ryb2tlOiM0NjgyQjQ7c3Ryb2tlLXdpZHRoOjAuNTsiIHdpZHRoPSIyMzMiIHg9IjM2OCIgeT0iNDE3LjIwMzEiLz48dGV4dCBmaWxsPSIjMDAwMDgwIiBmb250LWZhbWlseT0ic2Fucy1zZXJpZiIgZm9udC1zaXplPSIxMiIgbGVuZ3RoQWRqdXN0PSJzcGFjaW5nIiB0ZXh0TGVuZ3RoPSIyMTMiIHg9IjM3OCIgeT0iNDM4LjU0NjkiPlZpZXcvTWFuYWdlIFN0dWRlbnQgQXBwbGljYXRpb25zPC90ZXh0PjxyZWN0IGZpbGw9IiNBREQ4RTYiIGhlaWdodD0iMzIuODQzOCIgcng9IjEyLjUiIHJ5PSIxMi41IiBzdHlsZT0ic3Ryb2tlOiM0NjgyQjQ7c3Ryb2tlLXdpZHRoOjAuNTsiIHdpZHRoPSI4NyIgeD0iNDQxIiB5PSI0NzAuMDQ2OSIvPjx0ZXh0IGZpbGw9IiMwMDAwODAiIGZvbnQtZmFtaWx5PSJzYW5zLXNlcmlmIiBmb250LXNpemU9IjEyIiBsZW5ndGhBZGp1c3Q9InNwYWNpbmciIHRleHRMZW5ndGg9IjY3IiB4PSI0NTEiIHk9IjQ5MS4zOTA2Ij5DcmVhdGUgSm9iPC90ZXh0PjxyZWN0IGZpbGw9IiNBREQ4RTYiIGhlaWdodD0iMzIuODQzOCIgcng9IjEyLjUiIHJ5PSIxMi41IiBzdHlsZT0ic3Ryb2tlOiM0NjgyQjQ7c3Ryb2tlLXdpZHRoOjAuNTsiIHdpZHRoPSI3MSIgeD0iNDQ5IiB5PSI1MjIuODkwNiIvPjx0ZXh0IGZpbGw9IiMwMDAwODAiIGZvbnQtZmFtaWx5PSJzYW5zLXNlcmlmIiBmb250LXNpemU9IjEyIiBsZW5ndGhBZGp1c3Q9InNwYWNpbmciIHRleHRMZW5ndGg9IjUxIiB4PSI0NTkiIHk9IjU0NC4yMzQ0Ij5FZGl0IEpvYjwvdGV4dD48cmVjdCBmaWxsPSIjQUREOEU2IiBoZWlnaHQ9IjMyLjg0MzgiIHJ4PSIxMi41IiByeT0iMTIuNSIgc3R5bGU9InN0cm9rZTojNDY4MkI0O3N0cm9rZS13aWR0aDowLjU7IiB3aWR0aD0iODYiIHg9IjQ0MS41IiB5PSI1NzUuNzM0NCIvPjx0ZXh0IGZpbGw9IiMwMDAwODAiIGZvbnQtZmFtaWx5PSJzYW5zLXNlcmlmIiBmb250LXNpemU9IjEyIiBsZW5ndGhBZGp1c3Q9InNwYWNpbmciIHRleHRMZW5ndGg9IjY2IiB4PSI0NTEuNSIgeT0iNTk3LjA3ODEiPkRlbGV0ZSBKb2I8L3RleHQ+PHBvbHlnb24gZmlsbD0iI0FERDhFNiIgcG9pbnRzPSIzMjkuNSw3MzkuMjY1NiwzNDEuNSw3NTEuMjY1NiwzMjkuNSw3NjMuMjY1NiwzMTcuNSw3NTEuMjY1NiwzMjkuNSw3MzkuMjY1NiIgc3R5bGU9InN0cm9rZTojNDY4MkI0O3N0cm9rZS13aWR0aDowLjU7Ii8+PHJlY3QgZmlsbD0iI0FERDhFNiIgaGVpZ2h0PSIzMi44NDM4IiByeD0iMTIuNSIgcnk9IjEyLjUiIHN0eWxlPSJzdHJva2U6IzQ2ODJCNDtzdHJva2Utd2lkdGg6MC41OyIgd2lkdGg9Ijg3IiB4PSI2MjQiIHk9IjE4OS42ODc1Ii8+PHRleHQgZmlsbD0iIzAwMDA4MCIgZm9udC1mYW1pbHk9InNhbnMtc2VyaWYiIGZvbnQtc2l6ZT0iMTIiIGxlbmd0aEFkanVzdD0ic3BhY2luZyIgdGV4dExlbmd0aD0iNjciIHg9IjYzNCIgeT0iMjExLjAzMTMiPlNob3cgRXJyb3I8L3RleHQ+PHJlY3QgZmlsbD0iI0FERDhFNiIgaGVpZ2h0PSIzMi44NDM4IiByeD0iMTIuNSIgcnk9IjEyLjUiIHN0eWxlPSJzdHJva2U6IzQ2ODJCNDtzdHJva2Utd2lkdGg6MC41OyIgd2lkdGg9IjkzIiB4PSI2MjEiIHk9IjI1Ny41MzEzIi8+PHRleHQgZmlsbD0iIzAwMDA4MCIgZm9udC1mYW1pbHk9InNhbnMtc2VyaWYiIGZvbnQtc2l6ZT0iMTIiIGxlbmd0aEFkanVzdD0ic3BhY2luZyIgdGV4dExlbmd0aD0iNzMiIHg9IjYzMSIgeT0iMjc4Ljg3NSI+UmV0cnkgTG9naW48L3RleHQ+PHBvbHlnb24gZmlsbD0iI0FERDhFNiIgcG9pbnRzPSI1MDguNSw3NjkuMjY1Niw1MjAuNSw3ODEuMjY1Niw1MDguNSw3OTMuMjY1Niw0OTYuNSw3ODEuMjY1Niw1MDguNSw3NjkuMjY1NiIgc3R5bGU9InN0cm9rZTojNDY4MkI0O3N0cm9rZS13aWR0aDowLjU7Ii8+PGVsbGlwc2UgY3g9IjUwOC41IiBjeT0iODI0LjI2NTYiIGZpbGw9Im5vbmUiIHJ4PSIxMSIgcnk9IjExIiBzdHlsZT0ic3Ryb2tlOiMyMjIyMjI7c3Ryb2tlLXdpZHRoOjEuMDsiLz48ZWxsaXBzZSBjeD0iNTA4LjUiIGN5PSI4MjQuMjY1NiIgZmlsbD0iIzIyMjIyMiIgcng9IjYiIHJ5PSI2IiBzdHlsZT0ic3Ryb2tlOiMyMjIyMjI7c3Ryb2tlLXdpZHRoOjEuMDsiLz48bGluZSBzdHlsZT0ic3Ryb2tlOiMxODE4MTg7c3Ryb2tlLXdpZHRoOjEuMDsiIHgxPSI1MDguNSIgeDI9IjUwOC41IiB5MT0iMzAiIHkyPSI1MCIvPjxwb2x5Z29uIGZpbGw9IiMxODE4MTgiIHBvaW50cz0iNTA0LjUsNDAsNTA4LjUsNTAsNTEyLjUsNDAsNTA4LjUsNDQiIHN0eWxlPSJzdHJva2U6IzE4MTgxODtzdHJva2Utd2lkdGg6MS4wOyIvPjxsaW5lIHN0eWxlPSJzdHJva2U6IzE4MTgxODtzdHJva2Utd2lkdGg6MS4wOyIgeDE9IjUwOC41IiB4Mj0iNTA4LjUiIHkxPSI4Mi44NDM4IiB5Mj0iMTAyLjg0MzgiLz48cG9seWdvbiBmaWxsPSIjMTgxODE4IiBwb2ludHM9IjUwNC41LDkyLjg0MzgsNTA4LjUsMTAyLjg0MzgsNTEyLjUsOTIuODQzOCw1MDguNSw5Ni44NDM4IiBzdHlsZT0ic3Ryb2tlOiMxODE4MTg7c3Ryb2tlLXdpZHRoOjEuMDsiLz48bGluZSBzdHlsZT0ic3Ryb2tlOiMxODE4MTg7c3Ryb2tlLXdpZHRoOjEuMDsiIHgxPSIxNzQuNSIgeDI9IjE3NC41IiB5MT0iMjkxLjUxNTYiIHkyPSIzMTEuNTE1NiIvPjxwb2x5Z29uIGZpbGw9IiMxODE4MTgiIHBvaW50cz0iMTcwLjUsMzAxLjUxNTYsMTc0LjUsMzExLjUxNTYsMTc4LjUsMzAxLjUxNTYsMTc0LjUsMzA1LjUxNTYiIHN0eWxlPSJzdHJva2U6IzE4MTgxODtzdHJva2Utd2lkdGg6MS4wOyIvPjxsaW5lIHN0eWxlPSJzdHJva2U6IzE4MTgxODtzdHJva2Utd2lkdGg6MS4wOyIgeDE9IjE3NC41IiB4Mj0iMTc0LjUiIHkxPSIzNDQuMzU5NCIgeTI9IjM2NC4zNTk0Ii8+PHBvbHlnb24gZmlsbD0iIzE4MTgxOCIgcG9pbnRzPSIxNzAuNSwzNTQuMzU5NCwxNzQuNSwzNjQuMzU5NCwxNzguNSwzNTQuMzU5NCwxNzQuNSwzNTguMzU5NCIgc3R5bGU9InN0cm9rZTojMTgxODE4O3N0cm9rZS13aWR0aDoxLjA7Ii8+PGxpbmUgc3R5bGU9InN0cm9rZTojMTgxODE4O3N0cm9rZS13aWR0aDoxLjA7IiB4MT0iMTc0LjUiIHgyPSIxNzQuNSIgeTE9IjM5Ny4yMDMxIiB5Mj0iNDE3LjIwMzEiLz48cG9seWdvbiBmaWxsPSIjMTgxODE4IiBwb2ludHM9IjE3MC41LDQwNy4yMDMxLDE3NC41LDQxNy4yMDMxLDE3OC41LDQwNy4yMDMxLDE3NC41LDQxMS4yMDMxIiBzdHlsZT0ic3Ryb2tlOiMxODE4MTg7c3Ryb2tlLXdpZHRoOjEuMDsiLz48bGluZSBzdHlsZT0ic3Ryb2tlOiMxODE4MTg7c3Ryb2tlLXdpZHRoOjEuMDsiIHgxPSIxNzQuNSIgeDI9IjE3NC41IiB5MT0iNDUwLjA0NjkiIHkyPSI0NzAuMDQ2OSIvPjxwb2x5Z29uIGZpbGw9IiMxODE4MTgiIHBvaW50cz0iMTcwLjUsNDYwLjA0NjksMTc0LjUsNDcwLjA0NjksMTc4LjUsNDYwLjA0NjksMTc0LjUsNDY0LjA0NjkiIHN0eWxlPSJzdHJva2U6IzE4MTgxODtzdHJva2Utd2lkdGg6MS4wOyIvPjxsaW5lIHN0eWxlPSJzdHJva2U6IzE4MTgxODtzdHJva2Utd2lkdGg6MS4wOyIgeDE9IjE3NC41IiB4Mj0iMTc0LjUiIHkxPSI1MDIuODkwNiIgeTI9IjUyMi44OTA2Ii8+PHBvbHlnb24gZmlsbD0iIzE4MTgxOCIgcG9pbnRzPSIxNzAuNSw1MTIuODkwNiwxNzQuNSw1MjIuODkwNiwxNzguNSw1MTIuODkwNiwxNzQuNSw1MTYuODkwNiIgc3R5bGU9InN0cm9rZTojMTgxODE4O3N0cm9rZS13aWR0aDoxLjA7Ii8+PGxpbmUgc3R5bGU9InN0cm9rZTojMTgxODE4O3N0cm9rZS13aWR0aDoxLjA7IiB4MT0iMTc0LjUiIHgyPSIxNzQuNSIgeTE9IjU1NS43MzQ0IiB5Mj0iNTc1LjczNDQiLz48cG9seWdvbiBmaWxsPSIjMTgxODE4IiBwb2ludHM9IjE3MC41LDU2NS43MzQ0LDE3NC41LDU3NS43MzQ0LDE3OC41LDU2NS43MzQ0LDE3NC41LDU2OS43MzQ0IiBzdHlsZT0ic3Ryb2tlOiMxODE4MTg7c3Ryb2tlLXdpZHRoOjEuMDsiLz48bGluZSBzdHlsZT0ic3Ryb2tlOiMxODE4MTg7c3Ryb2tlLXdpZHRoOjEuMDsiIHgxPSIxNzQuNSIgeDI9IjE3NC41IiB5MT0iNjA4LjU3ODEiIHkyPSI2MzUuNTc4MSIvPjxwb2x5Z29uIGZpbGw9IiMxODE4MTgiIHBvaW50cz0iMTcwLjUsNjI1LjU3ODEsMTc0LjUsNjM1LjU3ODEsMTc4LjUsNjI1LjU3ODEsMTc0LjUsNjI5LjU3ODEiIHN0eWxlPSJzdHJva2U6IzE4MTgxODtzdHJva2Utd2lkdGg6MS4wOyIvPjxsaW5lIHN0eWxlPSJzdHJva2U6IzE4MTgxODtzdHJva2Utd2lkdGg6MS4wOyIgeDE9IjE3NC41IiB4Mj0iMTc0LjUiIHkxPSI2NjguNDIxOSIgeTI9IjY4OC40MjE5Ii8+PHBvbHlnb24gZmlsbD0iIzE4MTgxOCIgcG9pbnRzPSIxNzAuNSw2NzguNDIxOSwxNzQuNSw2ODguNDIxOSwxNzguNSw2NzguNDIxOSwxNzQuNSw2ODIuNDIxOSIgc3R5bGU9InN0cm9rZTojMTgxODE4O3N0cm9rZS13aWR0aDoxLjA7Ii8+PGxpbmUgc3R5bGU9InN0cm9rZTojMTgxODE4O3N0cm9rZS13aWR0aDoxLjA7IiB4MT0iNDg0LjUiIHgyPSI0ODQuNSIgeTE9IjI5MS41MTU2IiB5Mj0iMzExLjUxNTYiLz48cG9seWdvbiBmaWxsPSIjMTgxODE4IiBwb2ludHM9IjQ4MC41LDMwMS41MTU2LDQ4NC41LDMxMS41MTU2LDQ4OC41LDMwMS41MTU2LDQ4NC41LDMwNS41MTU2IiBzdHlsZT0ic3Ryb2tlOiMxODE4MTg7c3Ryb2tlLXdpZHRoOjEuMDsiLz48bGluZSBzdHlsZT0ic3Ryb2tlOiMxODE4MTg7c3Ryb2tlLXdpZHRoOjEuMDsiIHgxPSI0ODQuNSIgeDI9IjQ4NC41IiB5MT0iMzQ0LjM1OTQiIHkyPSIzNjQuMzU5NCIvPjxwb2x5Z29uIGZpbGw9IiMxODE4MTgiIHBvaW50cz0iNDgwLjUsMzU0LjM1OTQsNDg0LjUsMzY0LjM1OTQsNDg4LjUsMzU0LjM1OTQsNDg0LjUsMzU4LjM1OTQiIHN0eWxlPSJzdHJva2U6IzE4MTgxODtzdHJva2Utd2lkdGg6MS4wOyIvPjxsaW5lIHN0eWxlPSJzdHJva2U6IzE4MTgxODtzdHJva2Utd2lkdGg6MS4wOyIgeDE9IjQ4NC41IiB4Mj0iNDg0LjUiIHkxPSIzOTcuMjAzMSIgeTI9IjQxNy4yMDMxIi8+PHBvbHlnb24gZmlsbD0iIzE4MTgxOCIgcG9pbnRzPSI0ODAuNSw0MDcuMjAzMSw0ODQuNSw0MTcuMjAzMSw0ODguNSw0MDcuMjAzMSw0ODQuNSw0MTEuMjAzMSIgc3R5bGU9InN0cm9rZTojMTgxODE4O3N0cm9rZS13aWR0aDoxLjA7Ii8+PGxpbmUgc3R5bGU9InN0cm9rZTojMTgxODE4O3N0cm9rZS13aWR0aDoxLjA7IiB4MT0iNDg0LjUiIHgyPSI0ODQuNSIgeTE9IjQ1MC4wNDY5IiB5Mj0iNDcwLjA0NjkiLz48cG9seWdvbiBmaWxsPSIjMTgxODE4IiBwb2ludHM9IjQ4MC41LDQ2MC4wNDY5LDQ4NC41LDQ3MC4wNDY5LDQ4OC41LDQ2MC4wNDY5LDQ4NC41LDQ2NC4wNDY5IiBzdHlsZT0ic3Ryb2tlOiMxODE4MTg7c3Ryb2tlLXdpZHRoOjEuMDsiLz48bGluZSBzdHlsZT0ic3Ryb2tlOiMxODE4MTg7c3Ryb2tlLXdpZHRoOjEuMDsiIHgxPSI0ODQuNSIgeDI9IjQ4NC41IiB5MT0iNTAyLjg5MDYiIHkyPSI1MjIuODkwNiIvPjxwb2x5Z29uIGZpbGw9IiMxODE4MTgiIHBvaW50cz0iNDgwLjUsNTEyLjg5MDYsNDg0LjUsNTIyLjg5MDYsNDg4LjUsNTEyLjg5MDYsNDg0LjUsNTE2Ljg5MDYiIHN0eWxlPSJzdHJva2U6IzE4MTgxODtzdHJva2Utd2lkdGg6MS4wOyIvPjxsaW5lIHN0eWxlPSJzdHJva2U6IzE4MTgxODtzdHJva2Utd2lkdGg6MS4wOyIgeDE9IjQ4NC41IiB4Mj0iNDg0LjUiIHkxPSI1NTUuNzM0NCIgeTI9IjU3NS43MzQ0Ii8+PHBvbHlnb24gZmlsbD0iIzE4MTgxOCIgcG9pbnRzPSI0ODAuNSw1NjUuNzM0NCw0ODQuNSw1NzUuNzM0NCw0ODguNSw1NjUuNzM0NCw0ODQuNSw1NjkuNzM0NCIgc3R5bGU9InN0cm9rZTojMTgxODE4O3N0cm9rZS13aWR0aDoxLjA7Ii8+PGxpbmUgc3R5bGU9InN0cm9rZTojMTgxODE4O3N0cm9rZS13aWR0aDoxLjA7IiB4MT0iMjg0LjUiIHgyPSIxNzQuNSIgeTE9IjIwMS42ODc1IiB5Mj0iMjAxLjY4NzUiLz48bGluZSBzdHlsZT0ic3Ryb2tlOiMxODE4MTg7c3Ryb2tlLXdpZHRoOjEuMDsiIHgxPSIxNzQuNSIgeDI9IjE3NC41IiB5MT0iMjAxLjY4NzUiIHkyPSIyNTguNjcxOSIvPjxwb2x5Z29uIGZpbGw9IiMxODE4MTgiIHBvaW50cz0iMTcwLjUsMjQ4LjY3MTksMTc0LjUsMjU4LjY3MTksMTc4LjUsMjQ4LjY3MTksMTc0LjUsMjUyLjY3MTkiIHN0eWxlPSJzdHJva2U6IzE4MTgxODtzdHJva2Utd2lkdGg6MS4wOyIvPjxsaW5lIHN0eWxlPSJzdHJva2U6IzE4MTgxODtzdHJva2Utd2lkdGg6MS4wOyIgeDE9IjM3NC41IiB4Mj0iNDg0LjUiIHkxPSIyMDEuNjg3NSIgeTI9IjIwMS42ODc1Ii8+PGxpbmUgc3R5bGU9InN0cm9rZTojMTgxODE4O3N0cm9rZS13aWR0aDoxLjA7IiB4MT0iNDg0LjUiIHgyPSI0ODQuNSIgeTE9IjIwMS42ODc1IiB5Mj0iMjU4LjY3MTkiLz48cG9seWdvbiBmaWxsPSIjMTgxODE4IiBwb2ludHM9IjQ4MC41LDI0OC42NzE5LDQ4NC41LDI1OC42NzE5LDQ4OC41LDI0OC42NzE5LDQ4NC41LDI1Mi42NzE5IiBzdHlsZT0ic3Ryb2tlOiMxODE4MTg7c3Ryb2tlLXdpZHRoOjEuMDsiLz48bGluZSBzdHlsZT0ic3Ryb2tlOiMxODE4MTg7c3Ryb2tlLXdpZHRoOjEuMDsiIHgxPSIxNzQuNSIgeDI9IjE3NC41IiB5MT0iNzIxLjI2NTYiIHkyPSI3NTEuMjY1NiIvPjxsaW5lIHN0eWxlPSJzdHJva2U6IzE4MTgxODtzdHJva2Utd2lkdGg6MS4wOyIgeDE9IjE3NC41IiB4Mj0iMzE3LjUiIHkxPSI3NTEuMjY1NiIgeTI9Ijc1MS4yNjU2Ii8+PHBvbHlnb24gZmlsbD0iIzE4MTgxOCIgcG9pbnRzPSIzMDcuNSw3NDcuMjY1NiwzMTcuNSw3NTEuMjY1NiwzMDcuNSw3NTUuMjY1NiwzMTEuNSw3NTEuMjY1NiIgc3R5bGU9InN0cm9rZTojMTgxODE4O3N0cm9rZS13aWR0aDoxLjA7Ii8+PGxpbmUgc3R5bGU9InN0cm9rZTojMTgxODE4O3N0cm9rZS13aWR0aDoxLjA7IiB4MT0iNDg0LjUiIHgyPSI0ODQuNSIgeTE9IjYwOC41NzgxIiB5Mj0iNzUxLjI2NTYiLz48bGluZSBzdHlsZT0ic3Ryb2tlOiMxODE4MTg7c3Ryb2tlLXdpZHRoOjEuMDsiIHgxPSI0ODQuNSIgeDI9IjM0MS41IiB5MT0iNzUxLjI2NTYiIHkyPSI3NTEuMjY1NiIvPjxwb2x5Z29uIGZpbGw9IiMxODE4MTgiIHBvaW50cz0iMzUxLjUsNzQ3LjI2NTYsMzQxLjUsNzUxLjI2NTYsMzUxLjUsNzU1LjI2NTYsMzQ3LjUsNzUxLjI2NTYiIHN0eWxlPSJzdHJva2U6IzE4MTgxODtzdHJva2Utd2lkdGg6MS4wOyIvPjxsaW5lIHN0eWxlPSJzdHJva2U6IzE4MTgxODtzdHJva2Utd2lkdGg6MS4wOyIgeDE9IjY2Ny41IiB4Mj0iNjY3LjUiIHkxPSIyMjIuNTMxMyIgeTI9IjI1Ny41MzEzIi8+PHBvbHlnb24gZmlsbD0iIzE4MTgxOCIgcG9pbnRzPSI2NjMuNSwyNDcuNTMxMyw2NjcuNSwyNTcuNTMxMyw2NzEuNSwyNDcuNTMxMyw2NjcuNSwyNTEuNTMxMyIgc3R5bGU9InN0cm9rZTojMTgxODE4O3N0cm9rZS13aWR0aDoxLjA7Ii8+PGxpbmUgc3R5bGU9InN0cm9rZTojMTgxODE4O3N0cm9rZS13aWR0aDoxLjA7IiB4MT0iNDQ1LjUiIHgyPSIzMjkuNSIgeTE9IjE2Ny42ODc1IiB5Mj0iMTY3LjY4NzUiLz48bGluZSBzdHlsZT0ic3Ryb2tlOiMxODE4MTg7c3Ryb2tlLXdpZHRoOjEuMDsiIHgxPSIzMjkuNSIgeDI9IjMyOS41IiB5MT0iMTY3LjY4NzUiIHkyPSIxODkuNjg3NSIvPjxwb2x5Z29uIGZpbGw9IiMxODE4MTgiIHBvaW50cz0iMzI1LjUsMTc5LjY4NzUsMzI5LjUsMTg5LjY4NzUsMzMzLjUsMTc5LjY4NzUsMzI5LjUsMTgzLjY4NzUiIHN0eWxlPSJzdHJva2U6IzE4MTgxODtzdHJva2Utd2lkdGg6MS4wOyIvPjxsaW5lIHN0eWxlPSJzdHJva2U6IzE4MTgxODtzdHJva2Utd2lkdGg6MS4wOyIgeDE9IjU3MS41IiB4Mj0iNjY3LjUiIHkxPSIxNjcuNjg3NSIgeTI9IjE2Ny42ODc1Ii8+PGxpbmUgc3R5bGU9InN0cm9rZTojMTgxODE4O3N0cm9rZS13aWR0aDoxLjA7IiB4MT0iNjY3LjUiIHgyPSI2NjcuNSIgeTE9IjE2Ny42ODc1IiB5Mj0iMTg5LjY4NzUiLz48cG9seWdvbiBmaWxsPSIjMTgxODE4IiBwb2ludHM9IjY2My41LDE3OS42ODc1LDY2Ny41LDE4OS42ODc1LDY3MS41LDE3OS42ODc1LDY2Ny41LDE4My42ODc1IiBzdHlsZT0ic3Ryb2tlOiMxODE4MTg7c3Ryb2tlLXdpZHRoOjEuMDsiLz48bGluZSBzdHlsZT0ic3Ryb2tlOiMxODE4MTg7c3Ryb2tlLXdpZHRoOjEuMDsiIHgxPSIzMjkuNSIgeDI9IjMyOS41IiB5MT0iNzYzLjI2NTYiIHkyPSI3ODEuMjY1NiIvPjxsaW5lIHN0eWxlPSJzdHJva2U6IzE4MTgxODtzdHJva2Utd2lkdGg6MS4wOyIgeDE9IjMyOS41IiB4Mj0iNDk2LjUiIHkxPSI3ODEuMjY1NiIgeTI9Ijc4MS4yNjU2Ii8+PHBvbHlnb24gZmlsbD0iIzE4MTgxOCIgcG9pbnRzPSI0ODYuNSw3NzcuMjY1Niw0OTYuNSw3ODEuMjY1Niw0ODYuNSw3ODUuMjY1Niw0OTAuNSw3ODEuMjY1NiIgc3R5bGU9InN0cm9rZTojMTgxODE4O3N0cm9rZS13aWR0aDoxLjA7Ii8+PGxpbmUgc3R5bGU9InN0cm9rZTojMTgxODE4O3N0cm9rZS13aWR0aDoxLjA7IiB4MT0iNjY3LjUiIHgyPSI2NjcuNSIgeTE9IjI5MC4zNzUiIHkyPSI3ODEuMjY1NiIvPjxsaW5lIHN0eWxlPSJzdHJva2U6IzE4MTgxODtzdHJva2Utd2lkdGg6MS4wOyIgeDE9IjY2Ny41IiB4Mj0iNTIwLjUiIHkxPSI3ODEuMjY1NiIgeTI9Ijc4MS4yNjU2Ii8+PHBvbHlnb24gZmlsbD0iIzE4MTgxOCIgcG9pbnRzPSI1MzAuNSw3NzcuMjY1Niw1MjAuNSw3ODEuMjY1Niw1MzAuNSw3ODUuMjY1Niw1MjYuNSw3ODEuMjY1NiIgc3R5bGU9InN0cm9rZTojMTgxODE4O3N0cm9rZS13aWR0aDoxLjA7Ii8+PGxpbmUgc3R5bGU9InN0cm9rZTojMTgxODE4O3N0cm9rZS13aWR0aDoxLjA7IiB4MT0iNTA4LjUiIHgyPSI1MDguNSIgeTE9IjEzNS42ODc1IiB5Mj0iMTU1LjY4NzUiLz48cG9seWdvbiBmaWxsPSIjMTgxODE4IiBwb2ludHM9IjUwNC41LDE0NS42ODc1LDUwOC41LDE1NS42ODc1LDUxMi41LDE0NS42ODc1LDUwOC41LDE0OS42ODc1IiBzdHlsZT0ic3Ryb2tlOiMxODE4MTg7c3Ryb2tlLXdpZHRoOjEuMDsiLz48bGluZSBzdHlsZT0ic3Ryb2tlOiMxODE4MTg7c3Ryb2tlLXdpZHRoOjEuMDsiIHgxPSI1MDguNSIgeDI9IjUwOC41IiB5MT0iNzkzLjI2NTYiIHkyPSI4MTMuMjY1NiIvPjxwb2x5Z29uIGZpbGw9IiMxODE4MTgiIHBvaW50cz0iNTA0LjUsODAzLjI2NTYsNTA4LjUsODEzLjI2NTYsNTEyLjUsODAzLjI2NTYsNTA4LjUsODA3LjI2NTYiIHN0eWxlPSJzdHJva2U6IzE4MTgxODtzdHJva2Utd2lkdGg6MS4wOyIvPjwhLS1TUkM9W1ZMRERaemVtNEJ0ZEx1b3M1djFNdWdFeEluR0U1STZucjR5WGliSmdxU0gzUzM1c1AzajVLUk5fVktxSU1hWW9FbVZCY2RiLVItUlBEV1NrU3doZjRST3FGTUhRNVA4amJMMFFGZjBnRkZDRkdMRkJfdDFSbWJ5Rk44SmowdWlleWtFZGtnT3FHenRhN3Z4eVFWWEd2T2NJamljRU5WWFp4LUxBVzY3QTNMVm9CRzUydWwxWnMxS1dacENvY1RyR2tUTG8tbXZORjI2RjlFdXFEUHREbWdZaEM5eHdWWkhuMmZ3blpqYUI0ZnY5c0VIcEJfWWNDWXhkZGlUdENBWnNhMUhmWWlSaTJsNWYyN1FGNFdRX3EwbWhyWkZnaXU3NDVXb2J4VFJGeVJfdGttTzdIQVpKTkpGQTlPQWJIY2VITGJoamtDM3ZSSjVjdDh1c0VOaVJpU2M1ZVdwTVE4ZVptYzBMYU00QmlNM2lHZjRTazEyY0xWXzl5R0lCRjFTUzZObkhzdFJ6TUpsTlFxMUFndTRJSXNyWE9CMW0za0tNc01ZRGxwNXJjeFBxV2JJZC11ZUtqWUx5blZCYXhnQzU4Ym5PcjNOOFVMemh0Q0RwY1VEenFfNm1oc0x0MDJBcWI1ekZ6NUJqSzFaZG5HX0xVbmxucUxiTUVpTlV3eFhvUXdjRUVQTGJMd0cyVmdVSVBiWHJpTEI2U2ZkcjZ0UzZOOWROdl93ZXVSZ3lhdFZXcE1qbmYzcWxmSVNUZVMwc2xsNThDaHhwUmZxQWFocXdHUW9ycVpLeU1BRkw5SklfZXB4WUZlX0FObTQwXS0tPjwvZz48L3N2Zz4=;" vertex="1" parent="1">
            <mxGeometry x="-1520" y="-473.5" width="725" height="846" as="geometry" />
          </mxCell>
        </UserObject>
        <UserObject label="" plantUmlData="{&#xa;  &quot;data&quot;: &quot;@startuml\n!define RECTANGLE class\n\n&#39; Level 0\nRECTANGLE \&quot;Student Module\&quot; as StudentModule {\n    + User Management\n    + Job Management\n    + Application Management\n}\n\n&#39; Level 1\nRECTANGLE UserManagement {\n    + Sign Up\n    + Login\n    + Create Profile\n    + Upload Resume\n}\n\nRECTANGLE JobManagement {\n    + Filter Jobs\n    + Search Jobs\n}\n\nRECTANGLE ApplicationManagement {\n    + Apply for Job\n}\n\n&#39; Level 0 to Level 1 relationships\nStudentModule --&gt; UserManagement\nStudentModule --&gt; JobManagement\nStudentModule --&gt; ApplicationManagement\n\n&#39; Level 2 actions for Students\nUserManagement --&gt; UserManagement : Sign Up\nUserManagement --&gt; UserManagement : Login\nUserManagement --&gt; UserManagement : Create Profile\nUserManagement --&gt; UserManagement : Upload Resume\nJobManagement --&gt; JobManagement : Filter Jobs\nJobManagement --&gt; JobManagement : Search Jobs\nApplicationManagement --&gt; ApplicationManagement : Apply for Job\n\n@enduml\n&quot;,&#xa;  &quot;format&quot;: &quot;svg&quot;&#xa;}" id="B4BPFSr__uT_kfEw5dcK-2">
          <mxCell style="shape=image;noLabel=1;verticalAlign=top;aspect=fixed;imageAspect=0;image=data:image/svg+xml,PD94bWwgdmVyc2lvbj0iMS4wIiBlbmNvZGluZz0idXMtYXNjaWkiIHN0YW5kYWxvbmU9Im5vIj8+PHN2ZyB4bWxucz0iaHR0cDovL3d3dy53My5vcmcvMjAwMC9zdmciIHhtbG5zOnhsaW5rPSJodHRwOi8vd3d3LnczLm9yZy8xOTk5L3hsaW5rIiBjb250ZW50U3R5bGVUeXBlPSJ0ZXh0L2NzcyIgaGVpZ2h0PSIyNzVweCIgcHJlc2VydmVBc3BlY3RSYXRpbz0ibm9uZSIgc3R5bGU9IndpZHRoOjEyNTJweDtoZWlnaHQ6Mjc1cHg7YmFja2dyb3VuZDojRkZGRkZGOyIgdmVyc2lvbj0iMS4xIiB2aWV3Qm94PSIwIDAgMTI1MiAyNzUiIHdpZHRoPSIxMjUycHgiIHpvb21BbmRQYW49Im1hZ25pZnkiPjxkZWZzLz48Zz48IS0tY2xhc3MgU3R1ZGVudE1vZHVsZS0tPjxnIGlkPSJlbGVtX1N0dWRlbnRNb2R1bGUiPjxyZWN0IGNvZGVMaW5lPSI0IiBmaWxsPSIjRjFGMUYxIiBoZWlnaHQ9IjkyLjk1MzEiIGlkPSJTdHVkZW50TW9kdWxlIiByeD0iMi41IiByeT0iMi41IiBzdHlsZT0ic3Ryb2tlOiMxODE4MTg7c3Ryb2tlLXdpZHRoOjAuNTsiIHdpZHRoPSIxODEiIHg9IjUzMCIgeT0iNyIvPjxlbGxpcHNlIGN4PSI1NjcuOTUiIGN5PSIyMyIgZmlsbD0iI0FERDFCMiIgcng9IjExIiByeT0iMTEiIHN0eWxlPSJzdHJva2U6IzE4MTgxODtzdHJva2Utd2lkdGg6MS4wOyIvPjxwYXRoIGQ9Ik01NjUuNTc1LDI3LjI1IEw1NjUuNTc1LDI5IEw1NzAuNTEyNSwyOSBMNTcwLjUxMjUsMjcuMjUgTDU2NS41NzUsMjcuMjUgWiBNNTY2LjI2MjUsMjcuOTM3NSBRNTY2LjI2MjUsMjcuOTM3NSA1NjYuMjYyNSwxOC43NSBMNTY0LjUxMjUsMTguNzUgUTU2NC41MTI1LDE4Ljc1IDU2NC41MTI1LDI3LjkzNzUgTDU2Ni4yNjI1LDI3LjkzNzUgWiBNNTY5LjgyNSwyNy45Mzc1IEw1NzEuNTc1LDI3LjkzNzUgUTU3MS41NzUsMjcuOTM3NSA1NzEuNTc1LDI1LjEyNSBMNTY5LjgyNSwyNS4xMjUgUTU2OS44MjUsMjUuMTI1IDU2OS44MjUsMjcuOTM3NSBaIE01NjkuODI1LDE4Ljc1IFE1NjkuODI1LDE4Ljc1IDU2OS44MjUsMjEuNTYyNSBMNTcxLjU3NSwyMS41NjI1IFE1NzEuNTc1LDIxLjU2MjUgNTcxLjU3NSwxOC43NSBMNTY5LjgyNSwxOC43NSBaIE01NjUuNTc1LDE5LjQzNzUgTDU3MC41MTI1LDE5LjQzNzUgTDU3MC41MTI1LDE3LjY4NzUgTDU2NS41NzUsMTcuNjg3NSBMNTY1LjU3NSwxOS40Mzc1IFogIiBmaWxsPSIjMDAwMDAwIi8+PHRleHQgZmlsbD0iIzAwMDAwMCIgZm9udC1mYW1pbHk9InNhbnMtc2VyaWYiIGZvbnQtc2l6ZT0iMTQiIGxlbmd0aEFkanVzdD0ic3BhY2luZyIgdGV4dExlbmd0aD0iOTgiIHg9IjU4Ny4wNSIgeT0iMjguNzQyMiI+U3R1ZGVudCBNb2R1bGU8L3RleHQ+PGxpbmUgc3R5bGU9InN0cm9rZTojMTgxODE4O3N0cm9rZS13aWR0aDowLjU7IiB4MT0iNTMxIiB4Mj0iNzEwIiB5MT0iMzkiIHkyPSIzOSIvPjxlbGxpcHNlIGN4PSI1NDEiIGN5PSI1MS45OTIyIiBmaWxsPSJub25lIiByeD0iMyIgcnk9IjMiIHN0eWxlPSJzdHJva2U6IzAzODA0ODtzdHJva2Utd2lkdGg6MS4wOyIvPjx0ZXh0IGZpbGw9IiMwMDAwMDAiIGZvbnQtZmFtaWx5PSJzYW5zLXNlcmlmIiBmb250LXNpemU9IjE0IiBsZW5ndGhBZGp1c3Q9InNwYWNpbmciIHRleHRMZW5ndGg9IjEwNiIgeD0iNTUwIiB5PSI1Ni4yMzQ0Ij5Vc2VyIE1hbmFnZW1lbnQ8L3RleHQ+PGVsbGlwc2UgY3g9IjU0MSIgY3k9IjY2Ljk3NjYiIGZpbGw9Im5vbmUiIHJ4PSIzIiByeT0iMyIgc3R5bGU9InN0cm9rZTojMDM4MDQ4O3N0cm9rZS13aWR0aDoxLjA7Ii8+PHRleHQgZmlsbD0iIzAwMDAwMCIgZm9udC1mYW1pbHk9InNhbnMtc2VyaWYiIGZvbnQtc2l6ZT0iMTQiIGxlbmd0aEFkanVzdD0ic3BhY2luZyIgdGV4dExlbmd0aD0iMTAwIiB4PSI1NTAiIHk9IjcxLjIxODgiPkpvYiBNYW5hZ2VtZW50PC90ZXh0PjxlbGxpcHNlIGN4PSI1NDEiIGN5PSI4MS45NjA5IiBmaWxsPSJub25lIiByeD0iMyIgcnk9IjMiIHN0eWxlPSJzdHJva2U6IzAzODA0ODtzdHJva2Utd2lkdGg6MS4wOyIvPjx0ZXh0IGZpbGw9IiMwMDAwMDAiIGZvbnQtZmFtaWx5PSJzYW5zLXNlcmlmIiBmb250LXNpemU9IjE0IiBsZW5ndGhBZGp1c3Q9InNwYWNpbmciIHRleHRMZW5ndGg9IjE1NSIgeD0iNTUwIiB5PSI4Ni4yMDMxIj5BcHBsaWNhdGlvbiBNYW5hZ2VtZW50PC90ZXh0PjxsaW5lIHN0eWxlPSJzdHJva2U6IzE4MTgxODtzdHJva2Utd2lkdGg6MC41OyIgeDE9IjUzMSIgeDI9IjcxMCIgeTE9IjkxLjk1MzEiIHkyPSI5MS45NTMxIi8+PC9nPjwhLS1jbGFzcyBVc2VyTWFuYWdlbWVudC0tPjxnIGlkPSJlbGVtX1VzZXJNYW5hZ2VtZW50Ij48cmVjdCBjb2RlTGluZT0iMTEiIGZpbGw9IiNGMUYxRjEiIGhlaWdodD0iMTA3LjkzNzUiIGlkPSJVc2VyTWFuYWdlbWVudCIgcng9IjIuNSIgcnk9IjIuNSIgc3R5bGU9InN0cm9rZTojMTgxODE4O3N0cm9rZS13aWR0aDowLjU7IiB3aWR0aD0iMTMxIiB4PSI3IiB5PSIxNjEiLz48ZWxsaXBzZSBjeD0iMjIiIGN5PSIxNzciIGZpbGw9IiNBREQxQjIiIHJ4PSIxMSIgcnk9IjExIiBzdHlsZT0ic3Ryb2tlOiMxODE4MTg7c3Ryb2tlLXdpZHRoOjEuMDsiLz48cGF0aCBkPSJNMTkuNjI1LDE4MS4yNSBMMTkuNjI1LDE4MyBMMjQuNTYyNSwxODMgTDI0LjU2MjUsMTgxLjI1IEwxOS42MjUsMTgxLjI1IFogTTIwLjMxMjUsMTgxLjkzNzUgUTIwLjMxMjUsMTgxLjkzNzUgMjAuMzEyNSwxNzIuNzUgTDE4LjU2MjUsMTcyLjc1IFExOC41NjI1LDE3Mi43NSAxOC41NjI1LDE4MS45Mzc1IEwyMC4zMTI1LDE4MS45Mzc1IFogTTIzLjg3NSwxODEuOTM3NSBMMjUuNjI1LDE4MS45Mzc1IFEyNS42MjUsMTgxLjkzNzUgMjUuNjI1LDE3OS4xMjUgTDIzLjg3NSwxNzkuMTI1IFEyMy44NzUsMTc5LjEyNSAyMy44NzUsMTgxLjkzNzUgWiBNMjMuODc1LDE3Mi43NSBRMjMuODc1LDE3Mi43NSAyMy44NzUsMTc1LjU2MjUgTDI1LjYyNSwxNzUuNTYyNSBRMjUuNjI1LDE3NS41NjI1IDI1LjYyNSwxNzIuNzUgTDIzLjg3NSwxNzIuNzUgWiBNMTkuNjI1LDE3My40Mzc1IEwyNC41NjI1LDE3My40Mzc1IEwyNC41NjI1LDE3MS42ODc1IEwxOS42MjUsMTcxLjY4NzUgTDE5LjYyNSwxNzMuNDM3NSBaICIgZmlsbD0iIzAwMDAwMCIvPjx0ZXh0IGZpbGw9IiMwMDAwMDAiIGZvbnQtZmFtaWx5PSJzYW5zLXNlcmlmIiBmb250LXNpemU9IjE0IiBsZW5ndGhBZGp1c3Q9InNwYWNpbmciIHRleHRMZW5ndGg9Ijk5IiB4PSIzNiIgeT0iMTgyLjc0MjIiPlVzZXJNYW5hZ2VtZW50PC90ZXh0PjxsaW5lIHN0eWxlPSJzdHJva2U6IzE4MTgxODtzdHJva2Utd2lkdGg6MC41OyIgeDE9IjgiIHgyPSIxMzciIHkxPSIxOTMiIHkyPSIxOTMiLz48ZWxsaXBzZSBjeD0iMTgiIGN5PSIyMDUuOTkyMiIgZmlsbD0ibm9uZSIgcng9IjMiIHJ5PSIzIiBzdHlsZT0ic3Ryb2tlOiMwMzgwNDg7c3Ryb2tlLXdpZHRoOjEuMDsiLz48dGV4dCBmaWxsPSIjMDAwMDAwIiBmb250LWZhbWlseT0ic2Fucy1zZXJpZiIgZm9udC1zaXplPSIxNCIgbGVuZ3RoQWRqdXN0PSJzcGFjaW5nIiB0ZXh0TGVuZ3RoPSI0OSIgeD0iMjciIHk9IjIxMC4yMzQ0Ij5TaWduIFVwPC90ZXh0PjxlbGxpcHNlIGN4PSIxOCIgY3k9IjIyMC45NzY2IiBmaWxsPSJub25lIiByeD0iMyIgcnk9IjMiIHN0eWxlPSJzdHJva2U6IzAzODA0ODtzdHJva2Utd2lkdGg6MS4wOyIvPjx0ZXh0IGZpbGw9IiMwMDAwMDAiIGZvbnQtZmFtaWx5PSJzYW5zLXNlcmlmIiBmb250LXNpemU9IjE0IiBsZW5ndGhBZGp1c3Q9InNwYWNpbmciIHRleHRMZW5ndGg9IjM1IiB4PSIyNyIgeT0iMjI1LjIxODgiPkxvZ2luPC90ZXh0PjxlbGxpcHNlIGN4PSIxOCIgY3k9IjIzNS45NjA5IiBmaWxsPSJub25lIiByeD0iMyIgcnk9IjMiIHN0eWxlPSJzdHJva2U6IzAzODA0ODtzdHJva2Utd2lkdGg6MS4wOyIvPjx0ZXh0IGZpbGw9IiMwMDAwMDAiIGZvbnQtZmFtaWx5PSJzYW5zLXNlcmlmIiBmb250LXNpemU9IjE0IiBsZW5ndGhBZGp1c3Q9InNwYWNpbmciIHRleHRMZW5ndGg9Ijk4IiB4PSIyNyIgeT0iMjQwLjIwMzEiPkNyZWF0ZSBQcm9maWxlPC90ZXh0PjxlbGxpcHNlIGN4PSIxOCIgY3k9IjI1MC45NDUzIiBmaWxsPSJub25lIiByeD0iMyIgcnk9IjMiIHN0eWxlPSJzdHJva2U6IzAzODA0ODtzdHJva2Utd2lkdGg6MS4wOyIvPjx0ZXh0IGZpbGw9IiMwMDAwMDAiIGZvbnQtZmFtaWx5PSJzYW5zLXNlcmlmIiBmb250LXNpemU9IjE0IiBsZW5ndGhBZGp1c3Q9InNwYWNpbmciIHRleHRMZW5ndGg9IjkyIiB4PSIyNyIgeT0iMjU1LjE4NzUiPlVwbG9hZCBSZXN1bWU8L3RleHQ+PGxpbmUgc3R5bGU9InN0cm9rZTojMTgxODE4O3N0cm9rZS13aWR0aDowLjU7IiB4MT0iOCIgeDI9IjEzNyIgeTE9IjI2MC45Mzc1IiB5Mj0iMjYwLjkzNzUiLz48L2c+PCEtLWNsYXNzIEpvYk1hbmFnZW1lbnQtLT48ZyBpZD0iZWxlbV9Kb2JNYW5hZ2VtZW50Ij48cmVjdCBjb2RlTGluZT0iMTgiIGZpbGw9IiNGMUYxRjEiIGhlaWdodD0iNzcuOTY4OCIgaWQ9IkpvYk1hbmFnZW1lbnQiIHJ4PSIyLjUiIHJ5PSIyLjUiIHN0eWxlPSJzdHJva2U6IzE4MTgxODtzdHJva2Utd2lkdGg6MC41OyIgd2lkdGg9IjEyNSIgeD0iNTU4IiB5PSIxNzYiLz48ZWxsaXBzZSBjeD0iNTczIiBjeT0iMTkyIiBmaWxsPSIjQUREMUIyIiByeD0iMTEiIHJ5PSIxMSIgc3R5bGU9InN0cm9rZTojMTgxODE4O3N0cm9rZS13aWR0aDoxLjA7Ii8+PHBhdGggZD0iTTU3MC42MjUsMTk2LjI1IEw1NzAuNjI1LDE5OCBMNTc1LjU2MjUsMTk4IEw1NzUuNTYyNSwxOTYuMjUgTDU3MC42MjUsMTk2LjI1IFogTTU3MS4zMTI1LDE5Ni45Mzc1IFE1NzEuMzEyNSwxOTYuOTM3NSA1NzEuMzEyNSwxODcuNzUgTDU2OS41NjI1LDE4Ny43NSBRNTY5LjU2MjUsMTg3Ljc1IDU2OS41NjI1LDE5Ni45Mzc1IEw1NzEuMzEyNSwxOTYuOTM3NSBaIE01NzQuODc1LDE5Ni45Mzc1IEw1NzYuNjI1LDE5Ni45Mzc1IFE1NzYuNjI1LDE5Ni45Mzc1IDU3Ni42MjUsMTk0LjEyNSBMNTc0Ljg3NSwxOTQuMTI1IFE1NzQuODc1LDE5NC4xMjUgNTc0Ljg3NSwxOTYuOTM3NSBaIE01NzQuODc1LDE4Ny43NSBRNTc0Ljg3NSwxODcuNzUgNTc0Ljg3NSwxOTAuNTYyNSBMNTc2LjYyNSwxOTAuNTYyNSBRNTc2LjYyNSwxOTAuNTYyNSA1NzYuNjI1LDE4Ny43NSBMNTc0Ljg3NSwxODcuNzUgWiBNNTcwLjYyNSwxODguNDM3NSBMNTc1LjU2MjUsMTg4LjQzNzUgTDU3NS41NjI1LDE4Ni42ODc1IEw1NzAuNjI1LDE4Ni42ODc1IEw1NzAuNjI1LDE4OC40Mzc1IFogIiBmaWxsPSIjMDAwMDAwIi8+PHRleHQgZmlsbD0iIzAwMDAwMCIgZm9udC1mYW1pbHk9InNhbnMtc2VyaWYiIGZvbnQtc2l6ZT0iMTQiIGxlbmd0aEFkanVzdD0ic3BhY2luZyIgdGV4dExlbmd0aD0iOTMiIHg9IjU4NyIgeT0iMTk3Ljc0MjIiPkpvYk1hbmFnZW1lbnQ8L3RleHQ+PGxpbmUgc3R5bGU9InN0cm9rZTojMTgxODE4O3N0cm9rZS13aWR0aDowLjU7IiB4MT0iNTU5IiB4Mj0iNjgyIiB5MT0iMjA4IiB5Mj0iMjA4Ii8+PGVsbGlwc2UgY3g9IjU2OSIgY3k9IjIyMC45OTIyIiBmaWxsPSJub25lIiByeD0iMyIgcnk9IjMiIHN0eWxlPSJzdHJva2U6IzAzODA0ODtzdHJva2Utd2lkdGg6MS4wOyIvPjx0ZXh0IGZpbGw9IiMwMDAwMDAiIGZvbnQtZmFtaWx5PSJzYW5zLXNlcmlmIiBmb250LXNpemU9IjE0IiBsZW5ndGhBZGp1c3Q9InNwYWNpbmciIHRleHRMZW5ndGg9Ijc4IiB4PSI1NzgiIHk9IjIyNS4yMzQ0Ij5GaWx0ZXIgSm9iczwvdGV4dD48ZWxsaXBzZSBjeD0iNTY5IiBjeT0iMjM1Ljk3NjYiIGZpbGw9Im5vbmUiIHJ4PSIzIiByeT0iMyIgc3R5bGU9InN0cm9rZTojMDM4MDQ4O3N0cm9rZS13aWR0aDoxLjA7Ii8+PHRleHQgZmlsbD0iIzAwMDAwMCIgZm9udC1mYW1pbHk9InNhbnMtc2VyaWYiIGZvbnQtc2l6ZT0iMTQiIGxlbmd0aEFkanVzdD0ic3BhY2luZyIgdGV4dExlbmd0aD0iNzgiIHg9IjU3OCIgeT0iMjQwLjIxODgiPlNlYXJjaCBKb2JzPC90ZXh0PjxsaW5lIHN0eWxlPSJzdHJva2U6IzE4MTgxODtzdHJva2Utd2lkdGg6MC41OyIgeDE9IjU1OSIgeDI9IjY4MiIgeTE9IjI0NS45Njg4IiB5Mj0iMjQ1Ljk2ODgiLz48L2c+PCEtLWNsYXNzIEFwcGxpY2F0aW9uTWFuYWdlbWVudC0tPjxnIGlkPSJlbGVtX0FwcGxpY2F0aW9uTWFuYWdlbWVudCI+PHJlY3QgY29kZUxpbmU9IjIzIiBmaWxsPSIjRjFGMUYxIiBoZWlnaHQ9IjYyLjk4NDQiIGlkPSJBcHBsaWNhdGlvbk1hbmFnZW1lbnQiIHJ4PSIyLjUiIHJ5PSIyLjUiIHN0eWxlPSJzdHJva2U6IzE4MTgxODtzdHJva2Utd2lkdGg6MC41OyIgd2lkdGg9IjE4MCIgeD0iOTI5LjUiIHk9IjE4My41Ii8+PGVsbGlwc2UgY3g9Ijk0NC41IiBjeT0iMTk5LjUiIGZpbGw9IiNBREQxQjIiIHJ4PSIxMSIgcnk9IjExIiBzdHlsZT0ic3Ryb2tlOiMxODE4MTg7c3Ryb2tlLXdpZHRoOjEuMDsiLz48cGF0aCBkPSJNOTQyLjEyNSwyMDMuNzUgTDk0Mi4xMjUsMjA1LjUgTDk0Ny4wNjI1LDIwNS41IEw5NDcuMDYyNSwyMDMuNzUgTDk0Mi4xMjUsMjAzLjc1IFogTTk0Mi44MTI1LDIwNC40Mzc1IFE5NDIuODEyNSwyMDQuNDM3NSA5NDIuODEyNSwxOTUuMjUgTDk0MS4wNjI1LDE5NS4yNSBROTQxLjA2MjUsMTk1LjI1IDk0MS4wNjI1LDIwNC40Mzc1IEw5NDIuODEyNSwyMDQuNDM3NSBaIE05NDYuMzc1LDIwNC40Mzc1IEw5NDguMTI1LDIwNC40Mzc1IFE5NDguMTI1LDIwNC40Mzc1IDk0OC4xMjUsMjAxLjYyNSBMOTQ2LjM3NSwyMDEuNjI1IFE5NDYuMzc1LDIwMS42MjUgOTQ2LjM3NSwyMDQuNDM3NSBaIE05NDYuMzc1LDE5NS4yNSBROTQ2LjM3NSwxOTUuMjUgOTQ2LjM3NSwxOTguMDYyNSBMOTQ4LjEyNSwxOTguMDYyNSBROTQ4LjEyNSwxOTguMDYyNSA5NDguMTI1LDE5NS4yNSBMOTQ2LjM3NSwxOTUuMjUgWiBNOTQyLjEyNSwxOTUuOTM3NSBMOTQ3LjA2MjUsMTk1LjkzNzUgTDk0Ny4wNjI1LDE5NC4xODc1IEw5NDIuMTI1LDE5NC4xODc1IEw5NDIuMTI1LDE5NS45Mzc1IFogIiBmaWxsPSIjMDAwMDAwIi8+PHRleHQgZmlsbD0iIzAwMDAwMCIgZm9udC1mYW1pbHk9InNhbnMtc2VyaWYiIGZvbnQtc2l6ZT0iMTQiIGxlbmd0aEFkanVzdD0ic3BhY2luZyIgdGV4dExlbmd0aD0iMTQ4IiB4PSI5NTguNSIgeT0iMjA1LjI0MjIiPkFwcGxpY2F0aW9uTWFuYWdlbWVudDwvdGV4dD48bGluZSBzdHlsZT0ic3Ryb2tlOiMxODE4MTg7c3Ryb2tlLXdpZHRoOjAuNTsiIHgxPSI5MzAuNSIgeDI9IjExMDguNSIgeTE9IjIxNS41IiB5Mj0iMjE1LjUiLz48ZWxsaXBzZSBjeD0iOTQwLjUiIGN5PSIyMjguNDkyMiIgZmlsbD0ibm9uZSIgcng9IjMiIHJ5PSIzIiBzdHlsZT0ic3Ryb2tlOiMwMzgwNDg7c3Ryb2tlLXdpZHRoOjEuMDsiLz48dGV4dCBmaWxsPSIjMDAwMDAwIiBmb250LWZhbWlseT0ic2Fucy1zZXJpZiIgZm9udC1zaXplPSIxNCIgbGVuZ3RoQWRqdXN0PSJzcGFjaW5nIiB0ZXh0TGVuZ3RoPSI5MiIgeD0iOTQ5LjUiIHk9IjIzMi43MzQ0Ij5BcHBseSBmb3IgSm9iPC90ZXh0PjxsaW5lIHN0eWxlPSJzdHJva2U6IzE4MTgxODtzdHJva2Utd2lkdGg6MC41OyIgeDE9IjkzMC41IiB4Mj0iMTEwOC41IiB5MT0iMjM4LjQ4NDQiIHkyPSIyMzguNDg0NCIvPjwvZz48IS0tbGluayBTdHVkZW50TW9kdWxlIHRvIFVzZXJNYW5hZ2VtZW50LS0+PGcgaWQ9ImxpbmtfU3R1ZGVudE1vZHVsZV9Vc2VyTWFuYWdlbWVudCI+PHBhdGggY29kZUxpbmU9IjI4IiBkPSJNNTI5LjcsODAuOTMgQzQxOS4yOSwxMTMuMDYgMjQxLjM4MSwxNjQuODQzNCAxNDMuODMxLDE5My4yMzM0ICIgZmlsbD0ibm9uZSIgaWQ9IlN0dWRlbnRNb2R1bGUtdG8tVXNlck1hbmFnZW1lbnQiIHN0eWxlPSJzdHJva2U6IzE4MTgxODtzdHJva2Utd2lkdGg6MS4wOyIvPjxwb2x5Z29uIGZpbGw9IiMxODE4MTgiIHBvaW50cz0iMTM4LjA3LDE5NC45MSwxNDcuODI5MiwxOTYuMjM1NywxNDIuODcwOCwxOTMuNTEyOCwxNDUuNTkzNywxODguNTU0NCwxMzguMDcsMTk0LjkxIiBzdHlsZT0ic3Ryb2tlOiMxODE4MTg7c3Ryb2tlLXdpZHRoOjEuMDsiLz48L2c+PCEtLWxpbmsgU3R1ZGVudE1vZHVsZSB0byBKb2JNYW5hZ2VtZW50LS0+PGcgaWQ9ImxpbmtfU3R1ZGVudE1vZHVsZV9Kb2JNYW5hZ2VtZW50Ij48cGF0aCBjb2RlTGluZT0iMjkiIGQ9Ik02MjAuNSwxMDAuMjEgQzYyMC41LDEyNC4xNCA2MjAuNSwxNDcuMTEgNjIwLjUsMTY5LjgzICIgZmlsbD0ibm9uZSIgaWQ9IlN0dWRlbnRNb2R1bGUtdG8tSm9iTWFuYWdlbWVudCIgc3R5bGU9InN0cm9rZTojMTgxODE4O3N0cm9rZS13aWR0aDoxLjA7Ii8+PHBvbHlnb24gZmlsbD0iIzE4MTgxOCIgcG9pbnRzPSI2MjAuNSwxNzUuODMsNjI0LjUsMTY2LjgzLDYyMC41LDE3MC44Myw2MTYuNSwxNjYuODMsNjIwLjUsMTc1LjgzIiBzdHlsZT0ic3Ryb2tlOiMxODE4MTg7c3Ryb2tlLXdpZHRoOjEuMDsiLz48L2c+PCEtLWxpbmsgU3R1ZGVudE1vZHVsZSB0byBBcHBsaWNhdGlvbk1hbmFnZW1lbnQtLT48ZyBpZD0ibGlua19TdHVkZW50TW9kdWxlX0FwcGxpY2F0aW9uTWFuYWdlbWVudCI+PHBhdGggY29kZUxpbmU9IjMwIiBkPSJNNzExLjI1LDg0Ljk1IEM3NjkuMTUsMTA1LjA1IDg0NS40NSwxMzIuOCA5MTEuNSwxNjEgQzkyNy40NCwxNjcuODEgOTM5LjAxMTYsMTczLjEzMDkgOTU0LjY1MTYsMTgwLjc5MDkgIiBmaWxsPSJub25lIiBpZD0iU3R1ZGVudE1vZHVsZS10by1BcHBsaWNhdGlvbk1hbmFnZW1lbnQiIHN0eWxlPSJzdHJva2U6IzE4MTgxODtzdHJva2Utd2lkdGg6MS4wOyIvPjxwb2x5Z29uIGZpbGw9IiMxODE4MTgiIHBvaW50cz0iOTYwLjA0LDE4My40Myw5NTMuNzE2NywxNzUuODc5MSw5NTUuNTQ5NiwxODEuMjMwOCw5NTAuMTk4LDE4My4wNjM3LDk2MC4wNCwxODMuNDMiIHN0eWxlPSJzdHJva2U6IzE4MTgxODtzdHJva2Utd2lkdGg6MS4wOyIvPjwvZz48IS0tbGluayBVc2VyTWFuYWdlbWVudCB0byBVc2VyTWFuYWdlbWVudC0tPjxnIGlkPSJsaW5rX1VzZXJNYW5hZ2VtZW50X1VzZXJNYW5hZ2VtZW50Ij48cGF0aCBjb2RlTGluZT0iMzMiIGQ9Ik0xMzguMjMsMjExLjA3IEMxNTcuNzgsMjExLjE5IDE3MywyMTIuNSAxNzMsMjE1IEMxNzMsMjE3LjUgMTYzLjc3OTksMjE4Ljc3MzIgMTQ0LjIyOTksMjE4Ljg5MzIgIiBmaWxsPSJub25lIiBpZD0iVXNlck1hbmFnZW1lbnQtdG8tVXNlck1hbmFnZW1lbnQiIHN0eWxlPSJzdHJva2U6IzE4MTgxODtzdHJva2Utd2lkdGg6MS4wOyIvPjxwb2x5Z29uIGZpbGw9IiMxODE4MTgiIHBvaW50cz0iMTM4LjIzLDIxOC45MywxNDcuMjU0NCwyMjIuODc0NywxNDMuMjI5OSwyMTguODk5MywxNDcuMjA1MywyMTQuODc0OCwxMzguMjMsMjE4LjkzIiBzdHlsZT0ic3Ryb2tlOiMxODE4MTg7c3Ryb2tlLXdpZHRoOjEuMDsiLz48dGV4dCBmaWxsPSIjMDAwMDAwIiBmb250LWZhbWlseT0ic2Fucy1zZXJpZiIgZm9udC1zaXplPSIxMyIgbGVuZ3RoQWRqdXN0PSJzcGFjaW5nIiB0ZXh0TGVuZ3RoPSI0OCIgeD0iMTc5IiB5PSIyMjAuNzg5MSI+U2lnbiBVcDwvdGV4dD48L2c+PCEtLWxpbmsgVXNlck1hbmFnZW1lbnQgdG8gVXNlck1hbmFnZW1lbnQtLT48ZyBpZD0ibGlua19Vc2VyTWFuYWdlbWVudF9Vc2VyTWFuYWdlbWVudCI+PHBhdGggY29kZUxpbmU9IjM0IiBkPSJNMTM4LjA5LDIwNy44MiBDMTg0LjUxLDIwNS44IDIzMywyMDguMTkgMjMzLDIxNSBDMjMzLDIyMS44MSAxOTAuNTA0MywyMjQuNDYwOCAxNDQuMDg0MywyMjIuNDQwOCAiIGZpbGw9Im5vbmUiIGlkPSJVc2VyTWFuYWdlbWVudC10by1Vc2VyTWFuYWdlbWVudC0xIiBzdHlsZT0ic3Ryb2tlOiMxODE4MTg7c3Ryb2tlLXdpZHRoOjEuMDsiLz48cG9seWdvbiBmaWxsPSIjMTgxODE4IiBwb2ludHM9IjEzOC4wOSwyMjIuMTgsMTQ2LjkwNzYsMjI2LjU2NzUsMTQzLjA4NTMsMjIyLjM5NzQsMTQ3LjI1NTQsMjE4LjU3NTEsMTM4LjA5LDIyMi4xOCIgc3R5bGU9InN0cm9rZTojMTgxODE4O3N0cm9rZS13aWR0aDoxLjA7Ii8+PHRleHQgZmlsbD0iIzAwMDAwMCIgZm9udC1mYW1pbHk9InNhbnMtc2VyaWYiIGZvbnQtc2l6ZT0iMTMiIGxlbmd0aEFkanVzdD0ic3BhY2luZyIgdGV4dExlbmd0aD0iMzQiIHg9IjIzOSIgeT0iMjIwLjc4OTEiPkxvZ2luPC90ZXh0PjwvZz48IS0tbGluayBVc2VyTWFuYWdlbWVudCB0byBVc2VyTWFuYWdlbWVudC0tPjxnIGlkPSJsaW5rX1VzZXJNYW5hZ2VtZW50X1VzZXJNYW5hZ2VtZW50Ij48cGF0aCBjb2RlTGluZT0iMzUiIGQ9Ik0xMzguMTQsMjA1LjM3IEMyMDIuNTIsMjAwLjUzIDI3OSwyMDMuNzQgMjc5LDIxNSBDMjc5LDIyNi4yNiAyMDguNTAzMSwyMjkuOTE5OCAxNDQuMTIzMSwyMjUuMDc5OCAiIGZpbGw9Im5vbmUiIGlkPSJVc2VyTWFuYWdlbWVudC10by1Vc2VyTWFuYWdlbWVudC0yIiBzdHlsZT0ic3Ryb2tlOiMxODE4MTg7c3Ryb2tlLXdpZHRoOjEuMDsiLz48cG9seWdvbiBmaWxsPSIjMTgxODE4IiBwb2ludHM9IjEzOC4xNCwyMjQuNjMsMTQ2LjgxNDgsMjI5LjI5MzQsMTQzLjEyNTksMjI1LjAwNDgsMTQ3LjQxNDUsMjIxLjMxNiwxMzguMTQsMjI0LjYzIiBzdHlsZT0ic3Ryb2tlOiMxODE4MTg7c3Ryb2tlLXdpZHRoOjEuMDsiLz48dGV4dCBmaWxsPSIjMDAwMDAwIiBmb250LWZhbWlseT0ic2Fucy1zZXJpZiIgZm9udC1zaXplPSIxMyIgbGVuZ3RoQWRqdXN0PSJzcGFjaW5nIiB0ZXh0TGVuZ3RoPSI5NCIgeD0iMjg1IiB5PSIyMjAuNzg5MSI+Q3JlYXRlIFByb2ZpbGU8L3RleHQ+PC9nPjwhLS1saW5rIFVzZXJNYW5hZ2VtZW50IHRvIFVzZXJNYW5hZ2VtZW50LS0+PGcgaWQ9ImxpbmtfVXNlck1hbmFnZW1lbnRfVXNlck1hbmFnZW1lbnQiPjxwYXRoIGNvZGVMaW5lPSIzNiIgZD0iTTEzOC4yNiwyMDQuMjMgQzIzNi4wNywxOTUgMzg1LDE5OC41OSAzODUsMjE1IEMzODUsMjMxLjQxIDI0Mi4wNDM1LDIzNS41NjM3IDE0NC4yMzM1LDIyNi4zMzM3ICIgZmlsbD0ibm9uZSIgaWQ9IlVzZXJNYW5hZ2VtZW50LXRvLVVzZXJNYW5hZ2VtZW50LTMiIHN0eWxlPSJzdHJva2U6IzE4MTgxODtzdHJva2Utd2lkdGg6MS4wOyIvPjxwb2x5Z29uIGZpbGw9IiMxODE4MTgiIHBvaW50cz0iMTM4LjI2LDIyNS43NywxNDYuODQ0NCwyMzAuNTk3OSwxNDMuMjM3OSwyMjYuMjM5NywxNDcuNTk2LDIyMi42MzMyLDEzOC4yNiwyMjUuNzciIHN0eWxlPSJzdHJva2U6IzE4MTgxODtzdHJva2Utd2lkdGg6MS4wOyIvPjx0ZXh0IGZpbGw9IiMwMDAwMDAiIGZvbnQtZmFtaWx5PSJzYW5zLXNlcmlmIiBmb250LXNpemU9IjEzIiBsZW5ndGhBZGp1c3Q9InNwYWNpbmciIHRleHRMZW5ndGg9Ijg5IiB4PSIzOTEiIHk9IjIyMC43ODkxIj5VcGxvYWQgUmVzdW1lPC90ZXh0PjwvZz48IS0tbGluayBKb2JNYW5hZ2VtZW50IHRvIEpvYk1hbmFnZW1lbnQtLT48ZyBpZD0ibGlua19Kb2JNYW5hZ2VtZW50X0pvYk1hbmFnZW1lbnQiPjxwYXRoIGNvZGVMaW5lPSIzNyIgZD0iTTY4My4zMywyMDcuMTMgQzcwMi43NSwyMDcuMjkgNzE4LDIwOS45MSA3MTgsMjE1IEM3MTgsMjIwLjA5IDcwOC43NDk4LDIyMi42NjA2IDY4OS4zMjk4LDIyMi44MjA2ICIgZmlsbD0ibm9uZSIgaWQ9IkpvYk1hbmFnZW1lbnQtdG8tSm9iTWFuYWdlbWVudCIgc3R5bGU9InN0cm9rZTojMTgxODE4O3N0cm9rZS13aWR0aDoxLjA7Ii8+PHBvbHlnb24gZmlsbD0iIzE4MTgxOCIgcG9pbnRzPSI2ODMuMzMsMjIyLjg3LDY5Mi4zNjI2LDIyNi43OTU3LDY4OC4zMjk4LDIyMi44Mjg4LDY5Mi4yOTY3LDIxOC43OTYsNjgzLjMzLDIyMi44NyIgc3R5bGU9InN0cm9rZTojMTgxODE4O3N0cm9rZS13aWR0aDoxLjA7Ii8+PHRleHQgZmlsbD0iIzAwMDAwMCIgZm9udC1mYW1pbHk9InNhbnMtc2VyaWYiIGZvbnQtc2l6ZT0iMTMiIGxlbmd0aEFkanVzdD0ic3BhY2luZyIgdGV4dExlbmd0aD0iNzQiIHg9IjcyNCIgeT0iMjIwLjc4OTEiPkZpbHRlciBKb2JzPC90ZXh0PjwvZz48IS0tbGluayBKb2JNYW5hZ2VtZW50IHRvIEpvYk1hbmFnZW1lbnQtLT48ZyBpZD0ibGlua19Kb2JNYW5hZ2VtZW50X0pvYk1hbmFnZW1lbnQiPjxwYXRoIGNvZGVMaW5lPSIzOCIgZD0iTTY4My4xLDIwMS40MiBDNzM4LjUyLDE5Ni4wOCA4MDQsMjAwLjYgODA0LDIxNSBDODA0LDIyOS40IDc0NC40OTIzLDIzNC40OTU1IDY4OS4wNzIzLDIyOS4xNTU1ICIgZmlsbD0ibm9uZSIgaWQ9IkpvYk1hbmFnZW1lbnQtdG8tSm9iTWFuYWdlbWVudC0xIiBzdHlsZT0ic3Ryb2tlOiMxODE4MTg7c3Ryb2tlLXdpZHRoOjEuMDsiLz48cG9seWdvbiBmaWxsPSIjMTgxODE4IiBwb2ludHM9IjY4My4xLDIyOC41OCw2OTEuNjc0OSwyMzMuNDI0OCw2ODguMDc2OSwyMjkuMDU5Niw2OTIuNDQyMiwyMjUuNDYxNiw2ODMuMSwyMjguNTgiIHN0eWxlPSJzdHJva2U6IzE4MTgxODtzdHJva2Utd2lkdGg6MS4wOyIvPjx0ZXh0IGZpbGw9IiMwMDAwMDAiIGZvbnQtZmFtaWx5PSJzYW5zLXNlcmlmIiBmb250LXNpemU9IjEzIiBsZW5ndGhBZGp1c3Q9InNwYWNpbmciIHRleHRMZW5ndGg9Ijc3IiB4PSI4MTAiIHk9IjIyMC43ODkxIj5TZWFyY2ggSm9iczwvdGV4dD48L2c+PCEtLWxpbmsgQXBwbGljYXRpb25NYW5hZ2VtZW50IHRvIEFwcGxpY2F0aW9uTWFuYWdlbWVudC0tPjxnIGlkPSJsaW5rX0FwcGxpY2F0aW9uTWFuYWdlbWVudF9BcHBsaWNhdGlvbk1hbmFnZW1lbnQiPjxwYXRoIGNvZGVMaW5lPSIzOSIgZD0iTTExMDkuNjcsMTk5LjY1IEMxMTI5LjgxLDIwMS4wNyAxMTQ0LjUsMjA2LjE4IDExNDQuNSwyMTUgQzExNDQuNSwyMjMuODIgMTEzNS43OTUxLDIyOC41MDggMTExNS42NTUxLDIyOS45MjggIiBmaWxsPSJub25lIiBpZD0iQXBwbGljYXRpb25NYW5hZ2VtZW50LXRvLUFwcGxpY2F0aW9uTWFuYWdlbWVudCIgc3R5bGU9InN0cm9rZTojMTgxODE4O3N0cm9rZS13aWR0aDoxLjA7Ii8+PHBvbHlnb24gZmlsbD0iIzE4MTgxOCIgcG9pbnRzPSIxMTA5LjY3LDIzMC4zNSwxMTE4LjkyOSwyMzMuNzA3MSwxMTE0LjY1NzYsMjI5Ljk5ODMsMTExOC4zNjY0LDIyNS43MjY5LDExMDkuNjcsMjMwLjM1IiBzdHlsZT0ic3Ryb2tlOiMxODE4MTg7c3Ryb2tlLXdpZHRoOjEuMDsiLz48dGV4dCBmaWxsPSIjMDAwMDAwIiBmb250LWZhbWlseT0ic2Fucy1zZXJpZiIgZm9udC1zaXplPSIxMyIgbGVuZ3RoQWRqdXN0PSJzcGFjaW5nIiB0ZXh0TGVuZ3RoPSI4OSIgeD0iMTE1MC41IiB5PSIyMjAuNzg5MSI+QXBwbHkgZm9yIEpvYjwvdGV4dD48L2c+PCEtLVNSQz1bWkxCQkppQ200QnB4QXZQVUVBMUFYSUM3ZkFlZ0kyWDVnQUtWTzk5RFFpY3JCVGoxR2VYX250ZExUY0JLdjlKaXBDeEV4a0ljbTk4OVhGcnN5eDUtVXljc2E3RGczMjZ0YUU0TlNiV0gzb3FFall2R01EWjlla1F1MDZnV0J0S0wtMjdXZFppdTZqSW1ldTlNVTdQZU50c0xkekZZTVlkRVNjZ1A1Mjd1d290UzFuT1FPUy13cDNrbUlpMUh6TC1QaDlaZXRwU1FnS0x1cng5YTcwVHhZYWpRbTF2RFZTUGNiMV9XRjJScWRuY3RSWUM3Y2M0WUtmc1ZrYWVhNEVvSjQ2aEdSb1hiZ25La2tHOGhYdHIxOHN5NXA4YWZHLThKQnZURmVvaWEyRDRNMkpuZnFmanYwOWd0eXJrZFZSaVhlLURGZFMzWjlPYXZ0MndkRVNuSFlkRFF1ZXBaTTJTZFNsbW11a2xpQ0Z2cXVsLVVzTkw3Vnk0Vl0tLT48L2c+PC9zdmc+;" vertex="1" parent="1">
            <mxGeometry x="-273.5" y="-225" width="1252" height="275" as="geometry" />
          </mxCell>
        </UserObject>
        <UserObject label="" plantUmlData="{&#xa;  &quot;data&quot;: &quot;@startuml\n!define RECTANGLE class\n\n&#39; Level 0\nRECTANGLE \&quot;Employer Module\&quot; as EmployerModule {\n    + User Management\n    + Job Management\n    + Application Management\n}\n\n&#39; Level 1\nRECTANGLE UserManagement {\n    + Sign Up\n    + Login\n}\n\nRECTANGLE JobManagement {\n    + Create Company\n    + Create Job\n}\n\nRECTANGLE ApplicationManagement {\n    + Accept Applicant\n    + Reject Applicant\n}\n\n&#39; Level 0 to Level 1 relationships\nEmployerModule --&gt; UserManagement\nEmployerModule --&gt; JobManagement\nEmployerModule --&gt; ApplicationManagement\n\n&#39; Level 2 actions for Employers\nUserManagement --&gt; UserManagement : Sign Up\nUserManagement --&gt; UserManagement : Login\nJobManagement --&gt; JobManagement : Create Company\nJobManagement --&gt; JobManagement : Create Job\nApplicationManagement --&gt; ApplicationManagement : Accept Applicant\nApplicationManagement --&gt; ApplicationManagement : Reject Applicant\n\n@enduml\n&quot;,&#xa;  &quot;format&quot;: &quot;svg&quot;&#xa;}" id="B4BPFSr__uT_kfEw5dcK-3">
          <mxCell style="shape=image;noLabel=1;verticalAlign=top;aspect=fixed;imageAspect=0;image=data:image/svg+xml,PD94bWwgdmVyc2lvbj0iMS4wIiBlbmNvZGluZz0idXMtYXNjaWkiIHN0YW5kYWxvbmU9Im5vIj8+PHN2ZyB4bWxucz0iaHR0cDovL3d3dy53My5vcmcvMjAwMC9zdmciIHhtbG5zOnhsaW5rPSJodHRwOi8vd3d3LnczLm9yZy8xOTk5L3hsaW5rIiBjb250ZW50U3R5bGVUeXBlPSJ0ZXh0L2NzcyIgaGVpZ2h0PSIyNDVweCIgcHJlc2VydmVBc3BlY3RSYXRpbz0ibm9uZSIgc3R5bGU9IndpZHRoOjExNjJweDtoZWlnaHQ6MjQ1cHg7YmFja2dyb3VuZDojRkZGRkZGOyIgdmVyc2lvbj0iMS4xIiB2aWV3Qm94PSIwIDAgMTE2MiAyNDUiIHdpZHRoPSIxMTYycHgiIHpvb21BbmRQYW49Im1hZ25pZnkiPjxkZWZzLz48Zz48IS0tY2xhc3MgRW1wbG95ZXJNb2R1bGUtLT48ZyBpZD0iZWxlbV9FbXBsb3llck1vZHVsZSI+PHJlY3QgY29kZUxpbmU9IjQiIGZpbGw9IiNGMUYxRjEiIGhlaWdodD0iOTIuOTUzMSIgaWQ9IkVtcGxveWVyTW9kdWxlIiByeD0iMi41IiByeT0iMi41IiBzdHlsZT0ic3Ryb2tlOiMxODE4MTg7c3Ryb2tlLXdpZHRoOjAuNTsiIHdpZHRoPSIxODEiIHg9IjI4NyIgeT0iNyIvPjxlbGxpcHNlIGN4PSIzMjEuMzUiIGN5PSIyMyIgZmlsbD0iI0FERDFCMiIgcng9IjExIiByeT0iMTEiIHN0eWxlPSJzdHJva2U6IzE4MTgxODtzdHJva2Utd2lkdGg6MS4wOyIvPjxwYXRoIGQ9Ik0zMTguOTc1LDI3LjI1IEwzMTguOTc1LDI5IEwzMjMuOTEyNSwyOSBMMzIzLjkxMjUsMjcuMjUgTDMxOC45NzUsMjcuMjUgWiBNMzE5LjY2MjUsMjcuOTM3NSBRMzE5LjY2MjUsMjcuOTM3NSAzMTkuNjYyNSwxOC43NSBMMzE3LjkxMjUsMTguNzUgUTMxNy45MTI1LDE4Ljc1IDMxNy45MTI1LDI3LjkzNzUgTDMxOS42NjI1LDI3LjkzNzUgWiBNMzIzLjIyNSwyNy45Mzc1IEwzMjQuOTc1LDI3LjkzNzUgUTMyNC45NzUsMjcuOTM3NSAzMjQuOTc1LDI1LjEyNSBMMzIzLjIyNSwyNS4xMjUgUTMyMy4yMjUsMjUuMTI1IDMyMy4yMjUsMjcuOTM3NSBaIE0zMjMuMjI1LDE4Ljc1IFEzMjMuMjI1LDE4Ljc1IDMyMy4yMjUsMjEuNTYyNSBMMzI0Ljk3NSwyMS41NjI1IFEzMjQuOTc1LDIxLjU2MjUgMzI0Ljk3NSwxOC43NSBMMzIzLjIyNSwxOC43NSBaIE0zMTguOTc1LDE5LjQzNzUgTDMyMy45MTI1LDE5LjQzNzUgTDMyMy45MTI1LDE3LjY4NzUgTDMxOC45NzUsMTcuNjg3NSBMMzE4Ljk3NSwxOS40Mzc1IFogIiBmaWxsPSIjMDAwMDAwIi8+PHRleHQgZmlsbD0iIzAwMDAwMCIgZm9udC1mYW1pbHk9InNhbnMtc2VyaWYiIGZvbnQtc2l6ZT0iMTQiIGxlbmd0aEFkanVzdD0ic3BhY2luZyIgdGV4dExlbmd0aD0iMTA2IiB4PSIzMzkuNjUiIHk9IjI4Ljc0MjIiPkVtcGxveWVyIE1vZHVsZTwvdGV4dD48bGluZSBzdHlsZT0ic3Ryb2tlOiMxODE4MTg7c3Ryb2tlLXdpZHRoOjAuNTsiIHgxPSIyODgiIHgyPSI0NjciIHkxPSIzOSIgeTI9IjM5Ii8+PGVsbGlwc2UgY3g9IjI5OCIgY3k9IjUxLjk5MjIiIGZpbGw9Im5vbmUiIHJ4PSIzIiByeT0iMyIgc3R5bGU9InN0cm9rZTojMDM4MDQ4O3N0cm9rZS13aWR0aDoxLjA7Ii8+PHRleHQgZmlsbD0iIzAwMDAwMCIgZm9udC1mYW1pbHk9InNhbnMtc2VyaWYiIGZvbnQtc2l6ZT0iMTQiIGxlbmd0aEFkanVzdD0ic3BhY2luZyIgdGV4dExlbmd0aD0iMTA2IiB4PSIzMDciIHk9IjU2LjIzNDQiPlVzZXIgTWFuYWdlbWVudDwvdGV4dD48ZWxsaXBzZSBjeD0iMjk4IiBjeT0iNjYuOTc2NiIgZmlsbD0ibm9uZSIgcng9IjMiIHJ5PSIzIiBzdHlsZT0ic3Ryb2tlOiMwMzgwNDg7c3Ryb2tlLXdpZHRoOjEuMDsiLz48dGV4dCBmaWxsPSIjMDAwMDAwIiBmb250LWZhbWlseT0ic2Fucy1zZXJpZiIgZm9udC1zaXplPSIxNCIgbGVuZ3RoQWRqdXN0PSJzcGFjaW5nIiB0ZXh0TGVuZ3RoPSIxMDAiIHg9IjMwNyIgeT0iNzEuMjE4OCI+Sm9iIE1hbmFnZW1lbnQ8L3RleHQ+PGVsbGlwc2UgY3g9IjI5OCIgY3k9IjgxLjk2MDkiIGZpbGw9Im5vbmUiIHJ4PSIzIiByeT0iMyIgc3R5bGU9InN0cm9rZTojMDM4MDQ4O3N0cm9rZS13aWR0aDoxLjA7Ii8+PHRleHQgZmlsbD0iIzAwMDAwMCIgZm9udC1mYW1pbHk9InNhbnMtc2VyaWYiIGZvbnQtc2l6ZT0iMTQiIGxlbmd0aEFkanVzdD0ic3BhY2luZyIgdGV4dExlbmd0aD0iMTU1IiB4PSIzMDciIHk9Ijg2LjIwMzEiPkFwcGxpY2F0aW9uIE1hbmFnZW1lbnQ8L3RleHQ+PGxpbmUgc3R5bGU9InN0cm9rZTojMTgxODE4O3N0cm9rZS13aWR0aDowLjU7IiB4MT0iMjg4IiB4Mj0iNDY3IiB5MT0iOTEuOTUzMSIgeTI9IjkxLjk1MzEiLz48L2c+PCEtLWNsYXNzIFVzZXJNYW5hZ2VtZW50LS0+PGcgaWQ9ImVsZW1fVXNlck1hbmFnZW1lbnQiPjxyZWN0IGNvZGVMaW5lPSIxMSIgZmlsbD0iI0YxRjFGMSIgaGVpZ2h0PSI3Ny45Njg4IiBpZD0iVXNlck1hbmFnZW1lbnQiIHJ4PSIyLjUiIHJ5PSIyLjUiIHN0eWxlPSJzdHJva2U6IzE4MTgxODtzdHJva2Utd2lkdGg6MC41OyIgd2lkdGg9IjEzMSIgeD0iNyIgeT0iMTYxIi8+PGVsbGlwc2UgY3g9IjIyIiBjeT0iMTc3IiBmaWxsPSIjQUREMUIyIiByeD0iMTEiIHJ5PSIxMSIgc3R5bGU9InN0cm9rZTojMTgxODE4O3N0cm9rZS13aWR0aDoxLjA7Ii8+PHBhdGggZD0iTTE5LjYyNSwxODEuMjUgTDE5LjYyNSwxODMgTDI0LjU2MjUsMTgzIEwyNC41NjI1LDE4MS4yNSBMMTkuNjI1LDE4MS4yNSBaIE0yMC4zMTI1LDE4MS45Mzc1IFEyMC4zMTI1LDE4MS45Mzc1IDIwLjMxMjUsMTcyLjc1IEwxOC41NjI1LDE3Mi43NSBRMTguNTYyNSwxNzIuNzUgMTguNTYyNSwxODEuOTM3NSBMMjAuMzEyNSwxODEuOTM3NSBaIE0yMy44NzUsMTgxLjkzNzUgTDI1LjYyNSwxODEuOTM3NSBRMjUuNjI1LDE4MS45Mzc1IDI1LjYyNSwxNzkuMTI1IEwyMy44NzUsMTc5LjEyNSBRMjMuODc1LDE3OS4xMjUgMjMuODc1LDE4MS45Mzc1IFogTTIzLjg3NSwxNzIuNzUgUTIzLjg3NSwxNzIuNzUgMjMuODc1LDE3NS41NjI1IEwyNS42MjUsMTc1LjU2MjUgUTI1LjYyNSwxNzUuNTYyNSAyNS42MjUsMTcyLjc1IEwyMy44NzUsMTcyLjc1IFogTTE5LjYyNSwxNzMuNDM3NSBMMjQuNTYyNSwxNzMuNDM3NSBMMjQuNTYyNSwxNzEuNjg3NSBMMTkuNjI1LDE3MS42ODc1IEwxOS42MjUsMTczLjQzNzUgWiAiIGZpbGw9IiMwMDAwMDAiLz48dGV4dCBmaWxsPSIjMDAwMDAwIiBmb250LWZhbWlseT0ic2Fucy1zZXJpZiIgZm9udC1zaXplPSIxNCIgbGVuZ3RoQWRqdXN0PSJzcGFjaW5nIiB0ZXh0TGVuZ3RoPSI5OSIgeD0iMzYiIHk9IjE4Mi43NDIyIj5Vc2VyTWFuYWdlbWVudDwvdGV4dD48bGluZSBzdHlsZT0ic3Ryb2tlOiMxODE4MTg7c3Ryb2tlLXdpZHRoOjAuNTsiIHgxPSI4IiB4Mj0iMTM3IiB5MT0iMTkzIiB5Mj0iMTkzIi8+PGVsbGlwc2UgY3g9IjE4IiBjeT0iMjA1Ljk5MjIiIGZpbGw9Im5vbmUiIHJ4PSIzIiByeT0iMyIgc3R5bGU9InN0cm9rZTojMDM4MDQ4O3N0cm9rZS13aWR0aDoxLjA7Ii8+PHRleHQgZmlsbD0iIzAwMDAwMCIgZm9udC1mYW1pbHk9InNhbnMtc2VyaWYiIGZvbnQtc2l6ZT0iMTQiIGxlbmd0aEFkanVzdD0ic3BhY2luZyIgdGV4dExlbmd0aD0iNDkiIHg9IjI3IiB5PSIyMTAuMjM0NCI+U2lnbiBVcDwvdGV4dD48ZWxsaXBzZSBjeD0iMTgiIGN5PSIyMjAuOTc2NiIgZmlsbD0ibm9uZSIgcng9IjMiIHJ5PSIzIiBzdHlsZT0ic3Ryb2tlOiMwMzgwNDg7c3Ryb2tlLXdpZHRoOjEuMDsiLz48dGV4dCBmaWxsPSIjMDAwMDAwIiBmb250LWZhbWlseT0ic2Fucy1zZXJpZiIgZm9udC1zaXplPSIxNCIgbGVuZ3RoQWRqdXN0PSJzcGFjaW5nIiB0ZXh0TGVuZ3RoPSIzNSIgeD0iMjciIHk9IjIyNS4yMTg4Ij5Mb2dpbjwvdGV4dD48bGluZSBzdHlsZT0ic3Ryb2tlOiMxODE4MTg7c3Ryb2tlLXdpZHRoOjAuNTsiIHgxPSI4IiB4Mj0iMTM3IiB5MT0iMjMwLjk2ODgiIHkyPSIyMzAuOTY4OCIvPjwvZz48IS0tY2xhc3MgSm9iTWFuYWdlbWVudC0tPjxnIGlkPSJlbGVtX0pvYk1hbmFnZW1lbnQiPjxyZWN0IGNvZGVMaW5lPSIxNiIgZmlsbD0iI0YxRjFGMSIgaGVpZ2h0PSI3Ny45Njg4IiBpZD0iSm9iTWFuYWdlbWVudCIgcng9IjIuNSIgcnk9IjIuNSIgc3R5bGU9InN0cm9rZTojMTgxODE4O3N0cm9rZS13aWR0aDowLjU7IiB3aWR0aD0iMTI1IiB4PSIzMTUiIHk9IjE2MSIvPjxlbGxpcHNlIGN4PSIzMzAiIGN5PSIxNzciIGZpbGw9IiNBREQxQjIiIHJ4PSIxMSIgcnk9IjExIiBzdHlsZT0ic3Ryb2tlOiMxODE4MTg7c3Ryb2tlLXdpZHRoOjEuMDsiLz48cGF0aCBkPSJNMzI3LjYyNSwxODEuMjUgTDMyNy42MjUsMTgzIEwzMzIuNTYyNSwxODMgTDMzMi41NjI1LDE4MS4yNSBMMzI3LjYyNSwxODEuMjUgWiBNMzI4LjMxMjUsMTgxLjkzNzUgUTMyOC4zMTI1LDE4MS45Mzc1IDMyOC4zMTI1LDE3Mi43NSBMMzI2LjU2MjUsMTcyLjc1IFEzMjYuNTYyNSwxNzIuNzUgMzI2LjU2MjUsMTgxLjkzNzUgTDMyOC4zMTI1LDE4MS45Mzc1IFogTTMzMS44NzUsMTgxLjkzNzUgTDMzMy42MjUsMTgxLjkzNzUgUTMzMy42MjUsMTgxLjkzNzUgMzMzLjYyNSwxNzkuMTI1IEwzMzEuODc1LDE3OS4xMjUgUTMzMS44NzUsMTc5LjEyNSAzMzEuODc1LDE4MS45Mzc1IFogTTMzMS44NzUsMTcyLjc1IFEzMzEuODc1LDE3Mi43NSAzMzEuODc1LDE3NS41NjI1IEwzMzMuNjI1LDE3NS41NjI1IFEzMzMuNjI1LDE3NS41NjI1IDMzMy42MjUsMTcyLjc1IEwzMzEuODc1LDE3Mi43NSBaIE0zMjcuNjI1LDE3My40Mzc1IEwzMzIuNTYyNSwxNzMuNDM3NSBMMzMyLjU2MjUsMTcxLjY4NzUgTDMyNy42MjUsMTcxLjY4NzUgTDMyNy42MjUsMTczLjQzNzUgWiAiIGZpbGw9IiMwMDAwMDAiLz48dGV4dCBmaWxsPSIjMDAwMDAwIiBmb250LWZhbWlseT0ic2Fucy1zZXJpZiIgZm9udC1zaXplPSIxNCIgbGVuZ3RoQWRqdXN0PSJzcGFjaW5nIiB0ZXh0TGVuZ3RoPSI5MyIgeD0iMzQ0IiB5PSIxODIuNzQyMiI+Sm9iTWFuYWdlbWVudDwvdGV4dD48bGluZSBzdHlsZT0ic3Ryb2tlOiMxODE4MTg7c3Ryb2tlLXdpZHRoOjAuNTsiIHgxPSIzMTYiIHgyPSI0MzkiIHkxPSIxOTMiIHkyPSIxOTMiLz48ZWxsaXBzZSBjeD0iMzI2IiBjeT0iMjA1Ljk5MjIiIGZpbGw9Im5vbmUiIHJ4PSIzIiByeT0iMyIgc3R5bGU9InN0cm9rZTojMDM4MDQ4O3N0cm9rZS13aWR0aDoxLjA7Ii8+PHRleHQgZmlsbD0iIzAwMDAwMCIgZm9udC1mYW1pbHk9InNhbnMtc2VyaWYiIGZvbnQtc2l6ZT0iMTQiIGxlbmd0aEFkanVzdD0ic3BhY2luZyIgdGV4dExlbmd0aD0iOTkiIHg9IjMzNSIgeT0iMjEwLjIzNDQiPkNyZWF0ZSBDb21wYW55PC90ZXh0PjxlbGxpcHNlIGN4PSIzMjYiIGN5PSIyMjAuOTc2NiIgZmlsbD0ibm9uZSIgcng9IjMiIHJ5PSIzIiBzdHlsZT0ic3Ryb2tlOiMwMzgwNDg7c3Ryb2tlLXdpZHRoOjEuMDsiLz48dGV4dCBmaWxsPSIjMDAwMDAwIiBmb250LWZhbWlseT0ic2Fucy1zZXJpZiIgZm9udC1zaXplPSIxNCIgbGVuZ3RoQWRqdXN0PSJzcGFjaW5nIiB0ZXh0TGVuZ3RoPSI3MSIgeD0iMzM1IiB5PSIyMjUuMjE4OCI+Q3JlYXRlIEpvYjwvdGV4dD48bGluZSBzdHlsZT0ic3Ryb2tlOiMxODE4MTg7c3Ryb2tlLXdpZHRoOjAuNTsiIHgxPSIzMTYiIHgyPSI0MzkiIHkxPSIyMzAuOTY4OCIgeTI9IjIzMC45Njg4Ii8+PC9nPjwhLS1jbGFzcyBBcHBsaWNhdGlvbk1hbmFnZW1lbnQtLT48ZyBpZD0iZWxlbV9BcHBsaWNhdGlvbk1hbmFnZW1lbnQiPjxyZWN0IGNvZGVMaW5lPSIyMSIgZmlsbD0iI0YxRjFGMSIgaGVpZ2h0PSI3Ny45Njg4IiBpZD0iQXBwbGljYXRpb25NYW5hZ2VtZW50IiByeD0iMi41IiByeT0iMi41IiBzdHlsZT0ic3Ryb2tlOiMxODE4MTg7c3Ryb2tlLXdpZHRoOjAuNTsiIHdpZHRoPSIxODAiIHg9IjcwMC41IiB5PSIxNjEiLz48ZWxsaXBzZSBjeD0iNzE1LjUiIGN5PSIxNzciIGZpbGw9IiNBREQxQjIiIHJ4PSIxMSIgcnk9IjExIiBzdHlsZT0ic3Ryb2tlOiMxODE4MTg7c3Ryb2tlLXdpZHRoOjEuMDsiLz48cGF0aCBkPSJNNzEzLjEyNSwxODEuMjUgTDcxMy4xMjUsMTgzIEw3MTguMDYyNSwxODMgTDcxOC4wNjI1LDE4MS4yNSBMNzEzLjEyNSwxODEuMjUgWiBNNzEzLjgxMjUsMTgxLjkzNzUgUTcxMy44MTI1LDE4MS45Mzc1IDcxMy44MTI1LDE3Mi43NSBMNzEyLjA2MjUsMTcyLjc1IFE3MTIuMDYyNSwxNzIuNzUgNzEyLjA2MjUsMTgxLjkzNzUgTDcxMy44MTI1LDE4MS45Mzc1IFogTTcxNy4zNzUsMTgxLjkzNzUgTDcxOS4xMjUsMTgxLjkzNzUgUTcxOS4xMjUsMTgxLjkzNzUgNzE5LjEyNSwxNzkuMTI1IEw3MTcuMzc1LDE3OS4xMjUgUTcxNy4zNzUsMTc5LjEyNSA3MTcuMzc1LDE4MS45Mzc1IFogTTcxNy4zNzUsMTcyLjc1IFE3MTcuMzc1LDE3Mi43NSA3MTcuMzc1LDE3NS41NjI1IEw3MTkuMTI1LDE3NS41NjI1IFE3MTkuMTI1LDE3NS41NjI1IDcxOS4xMjUsMTcyLjc1IEw3MTcuMzc1LDE3Mi43NSBaIE03MTMuMTI1LDE3My40Mzc1IEw3MTguMDYyNSwxNzMuNDM3NSBMNzE4LjA2MjUsMTcxLjY4NzUgTDcxMy4xMjUsMTcxLjY4NzUgTDcxMy4xMjUsMTczLjQzNzUgWiAiIGZpbGw9IiMwMDAwMDAiLz48dGV4dCBmaWxsPSIjMDAwMDAwIiBmb250LWZhbWlseT0ic2Fucy1zZXJpZiIgZm9udC1zaXplPSIxNCIgbGVuZ3RoQWRqdXN0PSJzcGFjaW5nIiB0ZXh0TGVuZ3RoPSIxNDgiIHg9IjcyOS41IiB5PSIxODIuNzQyMiI+QXBwbGljYXRpb25NYW5hZ2VtZW50PC90ZXh0PjxsaW5lIHN0eWxlPSJzdHJva2U6IzE4MTgxODtzdHJva2Utd2lkdGg6MC41OyIgeDE9IjcwMS41IiB4Mj0iODc5LjUiIHkxPSIxOTMiIHkyPSIxOTMiLz48ZWxsaXBzZSBjeD0iNzExLjUiIGN5PSIyMDUuOTkyMiIgZmlsbD0ibm9uZSIgcng9IjMiIHJ5PSIzIiBzdHlsZT0ic3Ryb2tlOiMwMzgwNDg7c3Ryb2tlLXdpZHRoOjEuMDsiLz48dGV4dCBmaWxsPSIjMDAwMDAwIiBmb250LWZhbWlseT0ic2Fucy1zZXJpZiIgZm9udC1zaXplPSIxNCIgbGVuZ3RoQWRqdXN0PSJzcGFjaW5nIiB0ZXh0TGVuZ3RoPSIxMTIiIHg9IjcyMC41IiB5PSIyMTAuMjM0NCI+QWNjZXB0IEFwcGxpY2FudDwvdGV4dD48ZWxsaXBzZSBjeD0iNzExLjUiIGN5PSIyMjAuOTc2NiIgZmlsbD0ibm9uZSIgcng9IjMiIHJ5PSIzIiBzdHlsZT0ic3Ryb2tlOiMwMzgwNDg7c3Ryb2tlLXdpZHRoOjEuMDsiLz48dGV4dCBmaWxsPSIjMDAwMDAwIiBmb250LWZhbWlseT0ic2Fucy1zZXJpZiIgZm9udC1zaXplPSIxNCIgbGVuZ3RoQWRqdXN0PSJzcGFjaW5nIiB0ZXh0TGVuZ3RoPSIxMTIiIHg9IjcyMC41IiB5PSIyMjUuMjE4OCI+UmVqZWN0IEFwcGxpY2FudDwvdGV4dD48bGluZSBzdHlsZT0ic3Ryb2tlOiMxODE4MTg7c3Ryb2tlLXdpZHRoOjAuNTsiIHgxPSI3MDEuNSIgeDI9Ijg3OS41IiB5MT0iMjMwLjk2ODgiIHkyPSIyMzAuOTY4OCIvPjwvZz48IS0tbGluayBFbXBsb3llck1vZHVsZSB0byBVc2VyTWFuYWdlbWVudC0tPjxnIGlkPSJsaW5rX0VtcGxveWVyTW9kdWxlX1VzZXJNYW5hZ2VtZW50Ij48cGF0aCBjb2RlTGluZT0iMjciIGQ9Ik0yODYuODIsOTcuNDYgQzIzOS4wNSwxMjAuMDkgMTg2Ljk3MjEsMTQ0Ljc2MDcgMTQzLjU2MjEsMTY1LjMzMDcgIiBmaWxsPSJub25lIiBpZD0iRW1wbG95ZXJNb2R1bGUtdG8tVXNlck1hbmFnZW1lbnQiIHN0eWxlPSJzdHJva2U6IzE4MTgxODtzdHJva2Utd2lkdGg6MS4wOyIvPjxwb2x5Z29uIGZpbGw9IiMxODE4MTgiIHBvaW50cz0iMTM4LjE0LDE2Ny45LDE0Ny45ODYsMTY3LjY2MDgsMTQyLjY1ODQsMTY1Ljc1ODksMTQ0LjU2MDMsMTYwLjQzMTQsMTM4LjE0LDE2Ny45IiBzdHlsZT0ic3Ryb2tlOiMxODE4MTg7c3Ryb2tlLXdpZHRoOjEuMDsiLz48L2c+PCEtLWxpbmsgRW1wbG95ZXJNb2R1bGUgdG8gSm9iTWFuYWdlbWVudC0tPjxnIGlkPSJsaW5rX0VtcGxveWVyTW9kdWxlX0pvYk1hbmFnZW1lbnQiPjxwYXRoIGNvZGVMaW5lPSIyOCIgZD0iTTM3Ny41LDEwMC4yMiBDMzc3LjUsMTE5LjczIDM3Ny41LDEzNi4yNSAzNzcuNSwxNTQuODUgIiBmaWxsPSJub25lIiBpZD0iRW1wbG95ZXJNb2R1bGUtdG8tSm9iTWFuYWdlbWVudCIgc3R5bGU9InN0cm9rZTojMTgxODE4O3N0cm9rZS13aWR0aDoxLjA7Ii8+PHBvbHlnb24gZmlsbD0iIzE4MTgxOCIgcG9pbnRzPSIzNzcuNSwxNjAuODUsMzgxLjUsMTUxLjg1LDM3Ny41LDE1NS44NSwzNzMuNSwxNTEuODUsMzc3LjUsMTYwLjg1IiBzdHlsZT0ic3Ryb2tlOiMxODE4MTg7c3Ryb2tlLXdpZHRoOjEuMDsiLz48L2c+PCEtLWxpbmsgRW1wbG95ZXJNb2R1bGUgdG8gQXBwbGljYXRpb25NYW5hZ2VtZW50LS0+PGcgaWQ9ImxpbmtfRW1wbG95ZXJNb2R1bGVfQXBwbGljYXRpb25NYW5hZ2VtZW50Ij48cGF0aCBjb2RlTGluZT0iMjkiIGQ9Ik00NjguMjcsODYuMTMgQzUyOC45NCwxMDcuMjkgNjEwLjUyLDEzNS43NyA2ODIuNSwxNjEgQzY4OC4zMSwxNjMuMDQgNjg4LjY0OTYsMTYzLjE1IDY5NC42Nzk2LDE2NS4yNyAiIGZpbGw9Im5vbmUiIGlkPSJFbXBsb3llck1vZHVsZS10by1BcHBsaWNhdGlvbk1hbmFnZW1lbnQiIHN0eWxlPSJzdHJva2U6IzE4MTgxODtzdHJva2Utd2lkdGg6MS4wOyIvPjxwb2x5Z29uIGZpbGw9IiMxODE4MTgiIHBvaW50cz0iNzAwLjM0LDE2Ny4yNiw2OTMuMTc2MiwxNjAuNTAxNCw2OTUuNjIzLDE2NS42MDE2LDY5MC41MjI4LDE2OC4wNDg1LDcwMC4zNCwxNjcuMjYiIHN0eWxlPSJzdHJva2U6IzE4MTgxODtzdHJva2Utd2lkdGg6MS4wOyIvPjwvZz48IS0tbGluayBVc2VyTWFuYWdlbWVudCB0byBVc2VyTWFuYWdlbWVudC0tPjxnIGlkPSJsaW5rX1VzZXJNYW5hZ2VtZW50X1VzZXJNYW5hZ2VtZW50Ij48cGF0aCBjb2RlTGluZT0iMzIiIGQ9Ik0xMzguMjMsMTkzLjY0IEMxNTcuNzgsMTkzLjgzIDE3MywxOTUuOTUgMTczLDIwMCBDMTczLDIwNC4wNSAxNjMuNzc5NywyMDYuMTExNyAxNDQuMjI5NywyMDYuMzAxNyAiIGZpbGw9Im5vbmUiIGlkPSJVc2VyTWFuYWdlbWVudC10by1Vc2VyTWFuYWdlbWVudCIgc3R5bGU9InN0cm9rZTojMTgxODE4O3N0cm9rZS13aWR0aDoxLjA7Ii8+PHBvbHlnb24gZmlsbD0iIzE4MTgxOCIgcG9pbnRzPSIxMzguMjMsMjA2LjM2LDE0Ny4yNjg0LDIxMC4yNzIzLDE0My4yMjk4LDIwNi4zMTE0LDE0Ny4xOTA3LDIwMi4yNzI3LDEzOC4yMywyMDYuMzYiIHN0eWxlPSJzdHJva2U6IzE4MTgxODtzdHJva2Utd2lkdGg6MS4wOyIvPjx0ZXh0IGZpbGw9IiMwMDAwMDAiIGZvbnQtZmFtaWx5PSJzYW5zLXNlcmlmIiBmb250LXNpemU9IjEzIiBsZW5ndGhBZGp1c3Q9InNwYWNpbmciIHRleHRMZW5ndGg9IjQ4IiB4PSIxNzkiIHk9IjIwNS43ODkxIj5TaWduIFVwPC90ZXh0PjwvZz48IS0tbGluayBVc2VyTWFuYWdlbWVudCB0byBVc2VyTWFuYWdlbWVudC0tPjxnIGlkPSJsaW5rX1VzZXJNYW5hZ2VtZW50X1VzZXJNYW5hZ2VtZW50Ij48cGF0aCBjb2RlTGluZT0iMzMiIGQ9Ik0xMzguMDksMTg4LjM3IEMxODQuNTEsMTg1LjEgMjMzLDE4OC45OCAyMzMsMjAwIEMyMzMsMjExLjAyIDE5MC40OTUyLDIxNS4zMjE2IDE0NC4wNzUyLDIxMi4wNTE2ICIgZmlsbD0ibm9uZSIgaWQ9IlVzZXJNYW5hZ2VtZW50LXRvLVVzZXJNYW5hZ2VtZW50LTEiIHN0eWxlPSJzdHJva2U6IzE4MTgxODtzdHJva2Utd2lkdGg6MS4wOyIvPjxwb2x5Z29uIGZpbGw9IiMxODE4MTgiIHBvaW50cz0iMTM4LjA5LDIxMS42MywxNDYuNzg2NywyMTYuMjUyNSwxNDMuMDc3NiwyMTEuOTgxMywxNDcuMzQ4OCwyMDguMjcyMywxMzguMDksMjExLjYzIiBzdHlsZT0ic3Ryb2tlOiMxODE4MTg7c3Ryb2tlLXdpZHRoOjEuMDsiLz48dGV4dCBmaWxsPSIjMDAwMDAwIiBmb250LWZhbWlseT0ic2Fucy1zZXJpZiIgZm9udC1zaXplPSIxMyIgbGVuZ3RoQWRqdXN0PSJzcGFjaW5nIiB0ZXh0TGVuZ3RoPSIzNCIgeD0iMjM5IiB5PSIyMDUuNzg5MSI+TG9naW48L3RleHQ+PC9nPjwhLS1saW5rIEpvYk1hbmFnZW1lbnQgdG8gSm9iTWFuYWdlbWVudC0tPjxnIGlkPSJsaW5rX0pvYk1hbmFnZW1lbnRfSm9iTWFuYWdlbWVudCI+PHBhdGggY29kZUxpbmU9IjM0IiBkPSJNNDQwLjMzLDE5My42MyBDNDU5Ljc1LDE5My43NiA0NzUsMTk1Ljg4IDQ3NSwyMDAgQzQ3NSwyMDQuMTIgNDY1Ljc0OTksMjA2LjE5OTggNDQ2LjMyOTksMjA2LjMyOTggIiBmaWxsPSJub25lIiBpZD0iSm9iTWFuYWdlbWVudC10by1Kb2JNYW5hZ2VtZW50IiBzdHlsZT0ic3Ryb2tlOiMxODE4MTg7c3Ryb2tlLXdpZHRoOjEuMDsiLz48cG9seWdvbiBmaWxsPSIjMTgxODE4IiBwb2ludHM9IjQ0MC4zMywyMDYuMzcsNDQ5LjM1NjYsMjEwLjMwOTcsNDQ1LjMyOTksMjA2LjMzNjUsNDQ5LjMwMywyMDIuMzA5OCw0NDAuMzMsMjA2LjM3IiBzdHlsZT0ic3Ryb2tlOiMxODE4MTg7c3Ryb2tlLXdpZHRoOjEuMDsiLz48dGV4dCBmaWxsPSIjMDAwMDAwIiBmb250LWZhbWlseT0ic2Fucy1zZXJpZiIgZm9udC1zaXplPSIxMyIgbGVuZ3RoQWRqdXN0PSJzcGFjaW5nIiB0ZXh0TGVuZ3RoPSI5NiIgeD0iNDgxIiB5PSIyMDUuNzg5MSI+Q3JlYXRlIENvbXBhbnk8L3RleHQ+PC9nPjwhLS1saW5rIEpvYk1hbmFnZW1lbnQgdG8gSm9iTWFuYWdlbWVudC0tPjxnIGlkPSJsaW5rX0pvYk1hbmFnZW1lbnRfSm9iTWFuYWdlbWVudCI+PHBhdGggY29kZUxpbmU9IjM1IiBkPSJNNDQwLjAxLDE4OS4zOSBDNTAyLjgsMTg0LjQ4IDU4MywxODguMDEgNTgzLDIwMCBDNTgzLDIxMS45OSA1MDguNzgxNywyMTUuOTg3OCA0NDUuOTkxNywyMTEuMDc3OCAiIGZpbGw9Im5vbmUiIGlkPSJKb2JNYW5hZ2VtZW50LXRvLUpvYk1hbmFnZW1lbnQtMSIgc3R5bGU9InN0cm9rZTojMTgxODE4O3N0cm9rZS13aWR0aDoxLjA7Ii8+PHBvbHlnb24gZmlsbD0iIzE4MTgxOCIgcG9pbnRzPSI0NDAuMDEsMjEwLjYxLDQ0OC42NzA4LDIxNS4yOTk1LDQ0NC45OTQ4LDIxMC45OTk4LDQ0OS4yOTQ0LDIwNy4zMjM4LDQ0MC4wMSwyMTAuNjEiIHN0eWxlPSJzdHJva2U6IzE4MTgxODtzdHJva2Utd2lkdGg6MS4wOyIvPjx0ZXh0IGZpbGw9IiMwMDAwMDAiIGZvbnQtZmFtaWx5PSJzYW5zLXNlcmlmIiBmb250LXNpemU9IjEzIiBsZW5ndGhBZGp1c3Q9InNwYWNpbmciIHRleHRMZW5ndGg9IjY5IiB4PSI1ODkiIHk9IjIwNS43ODkxIj5DcmVhdGUgSm9iPC90ZXh0PjwvZz48IS0tbGluayBBcHBsaWNhdGlvbk1hbmFnZW1lbnQgdG8gQXBwbGljYXRpb25NYW5hZ2VtZW50LS0+PGcgaWQ9ImxpbmtfQXBwbGljYXRpb25NYW5hZ2VtZW50X0FwcGxpY2F0aW9uTWFuYWdlbWVudCI+PHBhdGggY29kZUxpbmU9IjM2IiBkPSJNODgwLjY3LDE5My43OSBDOTAwLjgxLDE5NC4zNiA5MTUuNSwxOTYuNDMgOTE1LjUsMjAwIEM5MTUuNSwyMDMuNTcgOTA2LjgwNzYsMjA1LjQ3MDMgODg2LjY2NzYsMjA2LjA0MDMgIiBmaWxsPSJub25lIiBpZD0iQXBwbGljYXRpb25NYW5hZ2VtZW50LXRvLUFwcGxpY2F0aW9uTWFuYWdlbWVudCIgc3R5bGU9InN0cm9rZTojMTgxODE4O3N0cm9rZS13aWR0aDoxLjA7Ii8+PHBvbHlnb24gZmlsbD0iIzE4MTgxOCIgcG9pbnRzPSI4ODAuNjcsMjA2LjIxLDg4OS43Nzk2LDIwOS45NTM4LDg4NS42NjgsMjA2LjA2ODUsODg5LjU1MzIsMjAxLjk1Nyw4ODAuNjcsMjA2LjIxIiBzdHlsZT0ic3Ryb2tlOiMxODE4MTg7c3Ryb2tlLXdpZHRoOjEuMDsiLz48dGV4dCBmaWxsPSIjMDAwMDAwIiBmb250LWZhbWlseT0ic2Fucy1zZXJpZiIgZm9udC1zaXplPSIxMyIgbGVuZ3RoQWRqdXN0PSJzcGFjaW5nIiB0ZXh0TGVuZ3RoPSIxMDgiIHg9IjkyMS41IiB5PSIyMDUuNzg5MSI+QWNjZXB0IEFwcGxpY2FudDwvdGV4dD48L2c+PCEtLWxpbmsgQXBwbGljYXRpb25NYW5hZ2VtZW50IHRvIEFwcGxpY2F0aW9uTWFuYWdlbWVudC0tPjxnIGlkPSJsaW5rX0FwcGxpY2F0aW9uTWFuYWdlbWVudF9BcHBsaWNhdGlvbk1hbmFnZW1lbnQiPjxwYXRoIGNvZGVMaW5lPSIzNyIgZD0iTTg4MC44MSwxODguNTEgQzk1Mi43MSwxODUgMTAzNS41LDE4OC44MyAxMDM1LjUsMjAwIEMxMDM1LjUsMjExLjE3IDk1OC43MDI5LDIxNS4yOTI2IDg4Ni44MDI5LDIxMS43ODI2ICIgZmlsbD0ibm9uZSIgaWQ9IkFwcGxpY2F0aW9uTWFuYWdlbWVudC10by1BcHBsaWNhdGlvbk1hbmFnZW1lbnQtMSIgc3R5bGU9InN0cm9rZTojMTgxODE4O3N0cm9rZS13aWR0aDoxLjA7Ii8+PHBvbHlnb24gZmlsbD0iIzE4MTgxOCIgcG9pbnRzPSI4ODAuODEsMjExLjQ5LDg4OS42MDQzLDIxNS45MjQxLDg4NS44MDQxLDIxMS43MzM4LDg4OS45OTQzLDIwNy45MzM2LDg4MC44MSwyMTEuNDkiIHN0eWxlPSJzdHJva2U6IzE4MTgxODtzdHJva2Utd2lkdGg6MS4wOyIvPjx0ZXh0IGZpbGw9IiMwMDAwMDAiIGZvbnQtZmFtaWx5PSJzYW5zLXNlcmlmIiBmb250LXNpemU9IjEzIiBsZW5ndGhBZGp1c3Q9InNwYWNpbmciIHRleHRMZW5ndGg9IjEwOCIgeD0iMTA0MS41IiB5PSIyMDUuNzg5MSI+UmVqZWN0IEFwcGxpY2FudDwvdGV4dD48L2c+PCEtLVNSQz1bYkw1MVJpOG00QnB4NUxpa0ZMSDhiNkNGYlE4ZUdnaEk3ZzB5bTNMQkM3OWlBcFA4MkY3dEVhMVludDRid2ZsN2ktRVBkUVNEUmhiNE0xUnZUX1FyQTBqV1dYZjNvM0VLVTRHMUMtQVY5YU1qWEpmWDB2emdTbjB1ME1nV21zdUdkMGN1eW05aHF6QWVmMU5NQUVxVF9MMF9PcDNKTWQxNkJMU29WQm51NHctMVlMUk9pX2hfTGhvSWlEUnRNd2FnQmJpNUYtVS1KZXBiM0xBQmFBalFLdGFRV2N2WUExNE9KS1hiWkE2czdRYkZqeUd6aVgwRVNpdDBnWXVZRDJZa3FjUjdqSTdITWdWSnpvWHZZWjc4YzI4YTR0V19TdzNpUVc2c2drY1JESUpRLVRXQ2xGSzVGQ0F6ckpEaVBFSlZ5UTlzN1h2ZWNxa056VVNJdEYyZW1GekJuNk5fMFcwMF0tLT48L2c+PC9zdmc+;" vertex="1" parent="1">
            <mxGeometry x="-250" y="105" width="1162" height="245" as="geometry" />
          </mxCell>
        </UserObject>
        <UserObject label="@startuml&#xa;!define RECTANGLE class&#xa;&#xa;&#xa;&#39; Level 0&#xa;RECTANGLE &quot;Student Module&quot; as StudentModule {&#xa;}&#xa;&#xa;&#xa;&#39; Level 1&#xa;RECTANGLE &quot;User Management&quot; as StudentUserManagement {&#xa;    + Sign Up&#xa;    + Login&#xa;    + Create Profile&#xa;    + Upload Resume&#xa;}&#xa;&#xa;&#xa;RECTANGLE &quot;Job Management&quot; as StudentJobManagement {&#xa;    + Filter Jobs&#xa;    + Search Jobs&#xa;}&#xa;&#xa;&#xa;RECTANGLE &quot;Application Management&quot; as StudentApplicationManagement {&#xa;    + Apply for Job&#xa;}&#xa;&#xa;&#xa;&#39; Level 0 to Level 1 relationships&#xa;StudentModule --&gt; StudentUserManagement : Manage Users&#xa;StudentModule --&gt; StudentJobManagement : Manage Jobs&#xa;StudentModule --&gt; StudentApplicationManagement : Manage Applications&#xa;&#xa;&#xa;&#39; Level 1 actions for Students&#xa;StudentUserManagement --&gt; StudentUserManagement : Sign Up&#xa;StudentUserManagement --&gt; StudentUserManagement : Login&#xa;StudentUserManagement --&gt; StudentUserManagement : Create Profile&#xa;StudentUserManagement --&gt; StudentUserManagement : Upload Resume&#xa;StudentJobManagement --&gt; StudentJobManagement : Filter Jobs&#xa;StudentJobManagement --&gt; StudentJobManagement : Search Jobs&#xa;StudentApplicationManagement --&gt; StudentApplicationManagement : Apply for Job&#xa;&#xa;&#xa;@enduml" plantUmlData="{&quot;data&quot;:&quot;@startuml\n!define RECTANGLE class\n\nskinparam backgroundColor #FFFFFF\nskinparam node {\n    BackgroundColor #ADD8E6\n    BorderColor #4682B4\n    FontColor #000080\n}\nskinparam decision {\n    BackgroundColor #FFEB3B\n    BorderColor #F57F17\n}\nskinparam partition {\n    BackgroundColor #E1F5FE\n    FontColor #0277BD\n    BorderColor #0288D1\n}\n\nstart\n:Sign Up;\n:Login;\n\nif (Login Successful?) then (Yes)\n    if (Is Student?) then (Yes)\n        partition \&quot;User Management\&quot; {\n            :Create Profile;\n            :Edit/Update Profile;\n            :Upload Resume (PDF);\n        }\n\n        partition \&quot;Student Profile Management\&quot; {\n            :Add/Update Skills;\n            :View Applied Jobs;\n            :Track Application Status (Accepted/Rejected);\n        }\n\n        partition \&quot;Job Search and Filter\&quot; {\n            :Search Jobs by Keyword;\n            :Filter Jobs (Location, Type, Skills);\n            :View Job Details;\n        }\n        \n    else (No)\n        partition \&quot;Recruiter Profile &amp; Company Management\&quot; {\n            :Add/Update Company Details;\n            :Manage Job Postings;\n            :Track Job Applications;\n            :View/Manage Student Applications;\n        }\n\n        partition \&quot;Job Posting Management\&quot; {\n            :Create Job;\n            :Edit Job;\n            :Delete Job;\n        }\n    endif\nelse (No)\n    :Show Error;\n    :Retry Login;\nendif\n\nstop\n@enduml\n&quot;,&quot;format&quot;:&quot;svg&quot;}" id="B4BPFSr__uT_kfEw5dcK-4">
          <mxCell style="shape=image;noLabel=1;verticalAlign=top;aspect=fixed;imageAspect=0;image=data:image/svg+xml,PD94bWwgdmVyc2lvbj0iMS4wIiBlbmNvZGluZz0idXMtYXNjaWkiIHN0YW5kYWxvbmU9Im5vIj8+PHN2ZyB4bWxucz0iaHR0cDovL3d3dy53My5vcmcvMjAwMC9zdmciIHhtbG5zOnhsaW5rPSJodHRwOi8vd3d3LnczLm9yZy8xOTk5L3hsaW5rIiBjb250ZW50U3R5bGVUeXBlPSJ0ZXh0L2NzcyIgaGVpZ2h0PSI5NzhweCIgcHJlc2VydmVBc3BlY3RSYXRpbz0ibm9uZSIgc3R5bGU9IndpZHRoOjc1NXB4O2hlaWdodDo5NzhweDtiYWNrZ3JvdW5kOiNGRkZGRkY7IiB2ZXJzaW9uPSIxLjEiIHZpZXdCb3g9IjAgMCA3NTUgOTc4IiB3aWR0aD0iNzU1cHgiIHpvb21BbmRQYW49Im1hZ25pZnkiPjxkZWZzLz48Zz48ZWxsaXBzZSBjeD0iNTMwLjM3NSIgY3k9IjIwIiBmaWxsPSIjMjIyMjIyIiByeD0iMTAiIHJ5PSIxMCIgc3R5bGU9InN0cm9rZTojMjIyMjIyO3N0cm9rZS13aWR0aDoxLjA7Ii8+PHJlY3QgZmlsbD0iI0YxRjFGMSIgaGVpZ2h0PSIzMi44NDM4IiByeD0iMTIuNSIgcnk9IjEyLjUiIHN0eWxlPSJzdHJva2U6IzE4MTgxODtzdHJva2Utd2lkdGg6MC41OyIgd2lkdGg9IjY3IiB4PSI0OTYuODc1IiB5PSI1MCIvPjx0ZXh0IGZpbGw9IiMwMDAwMDAiIGZvbnQtZmFtaWx5PSJzYW5zLXNlcmlmIiBmb250LXNpemU9IjEyIiBsZW5ndGhBZGp1c3Q9InNwYWNpbmciIHRleHRMZW5ndGg9IjQ3IiB4PSI1MDYuODc1IiB5PSI3MS4zNDM4Ij5TaWduIFVwPC90ZXh0PjxyZWN0IGZpbGw9IiNGMUYxRjEiIGhlaWdodD0iMzIuODQzOCIgcng9IjEyLjUiIHJ5PSIxMi41IiBzdHlsZT0ic3Ryb2tlOiMxODE4MTg7c3Ryb2tlLXdpZHRoOjAuNTsiIHdpZHRoPSI1MyIgeD0iNTAzLjg3NSIgeT0iMTAyLjg0MzgiLz48dGV4dCBmaWxsPSIjMDAwMDAwIiBmb250LWZhbWlseT0ic2Fucy1zZXJpZiIgZm9udC1zaXplPSIxMiIgbGVuZ3RoQWRqdXN0PSJzcGFjaW5nIiB0ZXh0TGVuZ3RoPSIzMyIgeD0iNTEzLjg3NSIgeT0iMTI0LjE4NzUiPkxvZ2luPC90ZXh0Pjxwb2x5Z29uIGZpbGw9IiNGMUYxRjEiIHBvaW50cz0iNDc5LjM3NSwxNTUuNjg3NSw1ODEuMzc1LDE1NS42ODc1LDU5My4zNzUsMTY3LjY4NzUsNTgxLjM3NSwxNzkuNjg3NSw0NzkuMzc1LDE3OS42ODc1LDQ2Ny4zNzUsMTY3LjY4NzUsNDc5LjM3NSwxNTUuNjg3NSIgc3R5bGU9InN0cm9rZTojMTgxODE4O3N0cm9rZS13aWR0aDowLjU7Ii8+PHRleHQgZmlsbD0iIzAwMDAwMCIgZm9udC1mYW1pbHk9InNhbnMtc2VyaWYiIGZvbnQtc2l6ZT0iMTEiIGxlbmd0aEFkanVzdD0ic3BhY2luZyIgdGV4dExlbmd0aD0iMTAyIiB4PSI0NzkuMzc1IiB5PSIxNzIuMTk5MiI+TG9naW4gU3VjY2Vzc2Z1bD88L3RleHQ+PHRleHQgZmlsbD0iIzAwMDAwMCIgZm9udC1mYW1pbHk9InNhbnMtc2VyaWYiIGZvbnQtc2l6ZT0iMTEiIGxlbmd0aEFkanVzdD0ic3BhY2luZyIgdGV4dExlbmd0aD0iMTgiIHg9IjQ0OS4zNzUiIHk9IjE2Ni4zMTI1Ij5ZZXM8L3RleHQ+PHRleHQgZmlsbD0iIzAwMDAwMCIgZm9udC1mYW1pbHk9InNhbnMtc2VyaWYiIGZvbnQtc2l6ZT0iMTEiIGxlbmd0aEFkanVzdD0ic3BhY2luZyIgdGV4dExlbmd0aD0iMTIiIHg9IjU5My4zNzUiIHk9IjE2Ni4zMTI1Ij5ObzwvdGV4dD48cG9seWdvbiBmaWxsPSIjRjFGMUYxIiBwb2ludHM9IjMwNS4yNSwxODkuNjg3NSwzNzEuMjUsMTg5LjY4NzUsMzgzLjI1LDIwMS42ODc1LDM3MS4yNSwyMTMuNjg3NSwzMDUuMjUsMjEzLjY4NzUsMjkzLjI1LDIwMS42ODc1LDMwNS4yNSwxODkuNjg3NSIgc3R5bGU9InN0cm9rZTojMTgxODE4O3N0cm9rZS13aWR0aDowLjU7Ii8+PHRleHQgZmlsbD0iIzAwMDAwMCIgZm9udC1mYW1pbHk9InNhbnMtc2VyaWYiIGZvbnQtc2l6ZT0iMTEiIGxlbmd0aEFkanVzdD0ic3BhY2luZyIgdGV4dExlbmd0aD0iNjYiIHg9IjMwNS4yNSIgeT0iMjA2LjE5OTIiPklzIFN0dWRlbnQ/PC90ZXh0Pjx0ZXh0IGZpbGw9IiMwMDAwMDAiIGZvbnQtZmFtaWx5PSJzYW5zLXNlcmlmIiBmb250LXNpemU9IjExIiBsZW5ndGhBZGp1c3Q9InNwYWNpbmciIHRleHRMZW5ndGg9IjE4IiB4PSIyNzUuMjUiIHk9IjIwMC4zMTI1Ij5ZZXM8L3RleHQ+PHRleHQgZmlsbD0iIzAwMDAwMCIgZm9udC1mYW1pbHk9InNhbnMtc2VyaWYiIGZvbnQtc2l6ZT0iMTEiIGxlbmd0aEFkanVzdD0ic3BhY2luZyIgdGV4dExlbmd0aD0iMTIiIHg9IjM4My4yNSIgeT0iMjAwLjMxMjUiPk5vPC90ZXh0PjxyZWN0IGZpbGw9IiNFMUY1RkUiIGhlaWdodD0iMTg1LjUxNTYiIHN0eWxlPSJzdHJva2U6IzAyODhEMTtzdHJva2Utd2lkdGg6MS41OyIgd2lkdGg9IjE2NiIgeD0iOTEuNSIgeT0iMjIzLjY4NzUiLz48cGF0aCBkPSJNMjA3LjUsMjIzLjY4NzUgTDIwNy41LDIzMS42NzE5IEwxOTcuNSwyNDEuNjcxOSBMOTEuNSwyNDEuNjcxOSAiIGZpbGw9Im5vbmUiIHN0eWxlPSJzdHJva2U6IzAyODhEMTtzdHJva2Utd2lkdGg6MS41OyIvPjx0ZXh0IGZpbGw9IiMwMjc3QkQiIGZvbnQtZmFtaWx5PSJzYW5zLXNlcmlmIiBmb250LXNpemU9IjE0IiBsZW5ndGhBZGp1c3Q9InNwYWNpbmciIHRleHRMZW5ndGg9IjEwNiIgeD0iOTQuNSIgeT0iMjM3LjkyMTkiPlVzZXIgTWFuYWdlbWVudDwvdGV4dD48cmVjdCBmaWxsPSIjRjFGMUYxIiBoZWlnaHQ9IjMyLjg0MzgiIHJ4PSIxMi41IiByeT0iMTIuNSIgc3R5bGU9InN0cm9rZTojMTgxODE4O3N0cm9rZS13aWR0aDowLjU7IiB3aWR0aD0iMTEzIiB4PSIxMTgiIHk9IjI1OC42NzE5Ii8+PHRleHQgZmlsbD0iIzAwMDAwMCIgZm9udC1mYW1pbHk9InNhbnMtc2VyaWYiIGZvbnQtc2l6ZT0iMTIiIGxlbmd0aEFkanVzdD0ic3BhY2luZyIgdGV4dExlbmd0aD0iOTMiIHg9IjEyOCIgeT0iMjgwLjAxNTYiPkNyZWF0ZSBQcm9maWxlPC90ZXh0PjxyZWN0IGZpbGw9IiNGMUYxRjEiIGhlaWdodD0iMzIuODQzOCIgcng9IjEyLjUiIHJ5PSIxMi41IiBzdHlsZT0ic3Ryb2tlOiMxODE4MTg7c3Ryb2tlLXdpZHRoOjAuNTsiIHdpZHRoPSIxNDUiIHg9IjEwMiIgeT0iMzExLjUxNTYiLz48dGV4dCBmaWxsPSIjMDAwMDAwIiBmb250LWZhbWlseT0ic2Fucy1zZXJpZiIgZm9udC1zaXplPSIxMiIgbGVuZ3RoQWRqdXN0PSJzcGFjaW5nIiB0ZXh0TGVuZ3RoPSIxMjUiIHg9IjExMiIgeT0iMzMyLjg1OTQiPkVkaXQvVXBkYXRlIFByb2ZpbGU8L3RleHQ+PHJlY3QgZmlsbD0iI0YxRjFGMSIgaGVpZ2h0PSIzMi44NDM4IiByeD0iMTIuNSIgcnk9IjEyLjUiIHN0eWxlPSJzdHJva2U6IzE4MTgxODtzdHJva2Utd2lkdGg6MC41OyIgd2lkdGg9IjE0NiIgeD0iMTAxLjUiIHk9IjM2NC4zNTk0Ii8+PHRleHQgZmlsbD0iIzAwMDAwMCIgZm9udC1mYW1pbHk9InNhbnMtc2VyaWYiIGZvbnQtc2l6ZT0iMTIiIGxlbmd0aEFkanVzdD0ic3BhY2luZyIgdGV4dExlbmd0aD0iMTI2IiB4PSIxMTEuNSIgeT0iMzg1LjcwMzEiPlVwbG9hZCBSZXN1bWUgKFBERik8L3RleHQ+PHJlY3QgZmlsbD0iI0UxRjVGRSIgaGVpZ2h0PSIyMDAuNTE1NiIgc3R5bGU9InN0cm9rZTojMDI4OEQxO3N0cm9rZS13aWR0aDoxLjU7IiB3aWR0aD0iMzI3IiB4PSIxMSIgeT0iNDQ0LjIwMzEiLz48cGF0aCBkPSJNMjA0LDQ0NC4yMDMxIEwyMDQsNDUyLjE4NzUgTDE5NCw0NjIuMTg3NSBMMTEsNDYyLjE4NzUgIiBmaWxsPSJub25lIiBzdHlsZT0ic3Ryb2tlOiMwMjg4RDE7c3Ryb2tlLXdpZHRoOjEuNTsiLz48dGV4dCBmaWxsPSIjMDI3N0JEIiBmb250LWZhbWlseT0ic2Fucy1zZXJpZiIgZm9udC1zaXplPSIxNCIgbGVuZ3RoQWRqdXN0PSJzcGFjaW5nIiB0ZXh0TGVuZ3RoPSIxODMiIHg9IjE0IiB5PSI0NTguNDM3NSI+U3R1ZGVudCBQcm9maWxlIE1hbmFnZW1lbnQ8L3RleHQ+PHJlY3QgZmlsbD0iI0YxRjFGMSIgaGVpZ2h0PSIzMi44NDM4IiByeD0iMTIuNSIgcnk9IjEyLjUiIHN0eWxlPSJzdHJva2U6IzE4MTgxODtzdHJva2Utd2lkdGg6MC41OyIgd2lkdGg9IjEzMyIgeD0iMTA4IiB5PSI0NzkuMTg3NSIvPjx0ZXh0IGZpbGw9IiMwMDAwMDAiIGZvbnQtZmFtaWx5PSJzYW5zLXNlcmlmIiBmb250LXNpemU9IjEyIiBsZW5ndGhBZGp1c3Q9InNwYWNpbmciIHRleHRMZW5ndGg9IjExMyIgeD0iMTE4IiB5PSI1MDAuNTMxMyI+QWRkL1VwZGF0ZSBTa2lsbHM8L3RleHQ+PHJlY3QgZmlsbD0iI0YxRjFGMSIgaGVpZ2h0PSIzMi44NDM4IiByeD0iMTIuNSIgcnk9IjEyLjUiIHN0eWxlPSJzdHJva2U6IzE4MTgxODtzdHJva2Utd2lkdGg6MC41OyIgd2lkdGg9IjEzMiIgeD0iMTA4LjUiIHk9IjU0Ny4wMzEzIi8+PHRleHQgZmlsbD0iIzAwMDAwMCIgZm9udC1mYW1pbHk9InNhbnMtc2VyaWYiIGZvbnQtc2l6ZT0iMTIiIGxlbmd0aEFkanVzdD0ic3BhY2luZyIgdGV4dExlbmd0aD0iMTEyIiB4PSIxMTguNSIgeT0iNTY4LjM3NSI+VmlldyBBcHBsaWVkIEpvYnM8L3RleHQ+PHJlY3QgZmlsbD0iI0YxRjFGMSIgaGVpZ2h0PSIzMi44NDM4IiByeD0iMTIuNSIgcnk9IjEyLjUiIHN0eWxlPSJzdHJva2U6IzE4MTgxODtzdHJva2Utd2lkdGg6MC41OyIgd2lkdGg9IjMwNyIgeD0iMjEiIHk9IjU5OS44NzUiLz48dGV4dCBmaWxsPSIjMDAwMDAwIiBmb250LWZhbWlseT0ic2Fucy1zZXJpZiIgZm9udC1zaXplPSIxMiIgbGVuZ3RoQWRqdXN0PSJzcGFjaW5nIiB0ZXh0TGVuZ3RoPSIyODciIHg9IjMxIiB5PSI2MjEuMjE4OCI+VHJhY2sgQXBwbGljYXRpb24gU3RhdHVzIChBY2NlcHRlZC9SZWplY3RlZCk8L3RleHQ+PHJlY3QgZmlsbD0iI0UxRjVGRSIgaGVpZ2h0PSIxODUuNTE1NiIgc3R5bGU9InN0cm9rZTojMDI4OEQxO3N0cm9rZS13aWR0aDoxLjU7IiB3aWR0aD0iMjcwIiB4PSIzOS41IiB5PSI2NzkuNzE4OCIvPjxwYXRoIGQ9Ik0xOTcuNSw2NzkuNzE4OCBMMTk3LjUsNjg3LjcwMzEgTDE4Ny41LDY5Ny43MDMxIEwzOS41LDY5Ny43MDMxICIgZmlsbD0ibm9uZSIgc3R5bGU9InN0cm9rZTojMDI4OEQxO3N0cm9rZS13aWR0aDoxLjU7Ii8+PHRleHQgZmlsbD0iIzAyNzdCRCIgZm9udC1mYW1pbHk9InNhbnMtc2VyaWYiIGZvbnQtc2l6ZT0iMTQiIGxlbmd0aEFkanVzdD0ic3BhY2luZyIgdGV4dExlbmd0aD0iMTQ4IiB4PSI0Mi41IiB5PSI2OTMuOTUzMSI+Sm9iIFNlYXJjaCBhbmQgRmlsdGVyPC90ZXh0PjxyZWN0IGZpbGw9IiNGMUYxRjEiIGhlaWdodD0iMzIuODQzOCIgcng9IjEyLjUiIHJ5PSIxMi41IiBzdHlsZT0ic3Ryb2tlOiMxODE4MTg7c3Ryb2tlLXdpZHRoOjAuNTsiIHdpZHRoPSIxNjciIHg9IjkxIiB5PSI3MTQuNzAzMSIvPjx0ZXh0IGZpbGw9IiMwMDAwMDAiIGZvbnQtZmFtaWx5PSJzYW5zLXNlcmlmIiBmb250LXNpemU9IjEyIiBsZW5ndGhBZGp1c3Q9InNwYWNpbmciIHRleHRMZW5ndGg9IjE0NyIgeD0iMTAxIiB5PSI3MzYuMDQ2OSI+U2VhcmNoIEpvYnMgYnkgS2V5d29yZDwvdGV4dD48cmVjdCBmaWxsPSIjRjFGMUYxIiBoZWlnaHQ9IjMyLjg0MzgiIHJ4PSIxMi41IiByeT0iMTIuNSIgc3R5bGU9InN0cm9rZTojMTgxODE4O3N0cm9rZS13aWR0aDowLjU7IiB3aWR0aD0iMjUwIiB4PSI0OS41IiB5PSI3NjcuNTQ2OSIvPjx0ZXh0IGZpbGw9IiMwMDAwMDAiIGZvbnQtZmFtaWx5PSJzYW5zLXNlcmlmIiBmb250LXNpemU9IjEyIiBsZW5ndGhBZGp1c3Q9InNwYWNpbmciIHRleHRMZW5ndGg9IjIzMCIgeD0iNTkuNSIgeT0iNzg4Ljg5MDYiPkZpbHRlciBKb2JzIChMb2NhdGlvbiwgVHlwZSwgU2tpbGxzKTwvdGV4dD48cmVjdCBmaWxsPSIjRjFGMUYxIiBoZWlnaHQ9IjMyLjg0MzgiIHJ4PSIxMi41IiByeT0iMTIuNSIgc3R5bGU9InN0cm9rZTojMTgxODE4O3N0cm9rZS13aWR0aDowLjU7IiB3aWR0aD0iMTI0IiB4PSIxMTIuNSIgeT0iODIwLjM5MDYiLz48dGV4dCBmaWxsPSIjMDAwMDAwIiBmb250LWZhbWlseT0ic2Fucy1zZXJpZiIgZm9udC1zaXplPSIxMiIgbGVuZ3RoQWRqdXN0PSJzcGFjaW5nIiB0ZXh0TGVuZ3RoPSIxMDQiIHg9IjEyMi41IiB5PSI4NDEuNzM0NCI+VmlldyBKb2IgRGV0YWlsczwvdGV4dD48cmVjdCBmaWxsPSIjRTFGNUZFIiBoZWlnaHQ9IjI1My4zNTk0IiBzdHlsZT0ic3Ryb2tlOiMwMjg4RDE7c3Ryb2tlLXdpZHRoOjEuNTsiIHdpZHRoPSIyODMiIHg9IjM1OCIgeT0iMjIzLjY4NzUiLz48cGF0aCBkPSJNNjM2LDIyMy42ODc1IEw2MzYsMjMxLjY3MTkgTDYyNiwyNDEuNjcxOSBMMzU4LDI0MS42NzE5ICIgZmlsbD0ibm9uZSIgc3R5bGU9InN0cm9rZTojMDI4OEQxO3N0cm9rZS13aWR0aDoxLjU7Ii8+PHRleHQgZmlsbD0iIzAyNzdCRCIgZm9udC1mYW1pbHk9InNhbnMtc2VyaWYiIGZvbnQtc2l6ZT0iMTQiIGxlbmd0aEFkanVzdD0ic3BhY2luZyIgdGV4dExlbmd0aD0iMjY4IiB4PSIzNjEiIHk9IjIzNy45MjE5Ij5SZWNydWl0ZXIgUHJvZmlsZSAmYW1wOyBDb21wYW55IE1hbmFnZW1lbnQ8L3RleHQ+PHJlY3QgZmlsbD0iI0YxRjFGMSIgaGVpZ2h0PSIzMi44NDM4IiByeD0iMTIuNSIgcnk9IjEyLjUiIHN0eWxlPSJzdHJva2U6IzE4MTgxODtzdHJva2Utd2lkdGg6MC41OyIgd2lkdGg9IjE5NSIgeD0iNDA0LjUiIHk9IjI1OC42NzE5Ii8+PHRleHQgZmlsbD0iIzAwMDAwMCIgZm9udC1mYW1pbHk9InNhbnMtc2VyaWYiIGZvbnQtc2l6ZT0iMTIiIGxlbmd0aEFkanVzdD0ic3BhY2luZyIgdGV4dExlbmd0aD0iMTc1IiB4PSI0MTQuNSIgeT0iMjgwLjAxNTYiPkFkZC9VcGRhdGUgQ29tcGFueSBEZXRhaWxzPC90ZXh0PjxyZWN0IGZpbGw9IiNGMUYxRjEiIGhlaWdodD0iMzIuODQzOCIgcng9IjEyLjUiIHJ5PSIxMi41IiBzdHlsZT0ic3Ryb2tlOiMxODE4MTg7c3Ryb2tlLXdpZHRoOjAuNTsiIHdpZHRoPSIxNDgiIHg9IjQyOCIgeT0iMzExLjUxNTYiLz48dGV4dCBmaWxsPSIjMDAwMDAwIiBmb250LWZhbWlseT0ic2Fucy1zZXJpZiIgZm9udC1zaXplPSIxMiIgbGVuZ3RoQWRqdXN0PSJzcGFjaW5nIiB0ZXh0TGVuZ3RoPSIxMjgiIHg9IjQzOCIgeT0iMzMyLjg1OTQiPk1hbmFnZSBKb2IgUG9zdGluZ3M8L3RleHQ+PHJlY3QgZmlsbD0iI0YxRjFGMSIgaGVpZ2h0PSIzMi44NDM4IiByeD0iMTIuNSIgcnk9IjEyLjUiIHN0eWxlPSJzdHJva2U6IzE4MTgxODtzdHJva2Utd2lkdGg6MC41OyIgd2lkdGg9IjE2MyIgeD0iNDIwLjUiIHk9IjM2NC4zNTk0Ii8+PHRleHQgZmlsbD0iIzAwMDAwMCIgZm9udC1mYW1pbHk9InNhbnMtc2VyaWYiIGZvbnQtc2l6ZT0iMTIiIGxlbmd0aEFkanVzdD0ic3BhY2luZyIgdGV4dExlbmd0aD0iMTQzIiB4PSI0MzAuNSIgeT0iMzg1LjcwMzEiPlRyYWNrIEpvYiBBcHBsaWNhdGlvbnM8L3RleHQ+PHJlY3QgZmlsbD0iI0YxRjFGMSIgaGVpZ2h0PSIzMi44NDM4IiByeD0iMTIuNSIgcnk9IjEyLjUiIHN0eWxlPSJzdHJva2U6IzE4MTgxODtzdHJva2Utd2lkdGg6MC41OyIgd2lkdGg9IjIzMyIgeD0iMzg1LjUiIHk9IjQyNC4yMDMxIi8+PHRleHQgZmlsbD0iIzAwMDAwMCIgZm9udC1mYW1pbHk9InNhbnMtc2VyaWYiIGZvbnQtc2l6ZT0iMTIiIGxlbmd0aEFkanVzdD0ic3BhY2luZyIgdGV4dExlbmd0aD0iMjEzIiB4PSIzOTUuNSIgeT0iNDQ1LjU0NjkiPlZpZXcvTWFuYWdlIFN0dWRlbnQgQXBwbGljYXRpb25zPC90ZXh0PjxyZWN0IGZpbGw9IiNFMUY1RkUiIGhlaWdodD0iMjAwLjUxNTYiIHN0eWxlPSJzdHJva2U6IzAyODhEMTtzdHJva2Utd2lkdGg6MS41OyIgd2lkdGg9IjE3NiIgeD0iNDE0IiB5PSI1MTIuMDQ2OSIvPjxwYXRoIGQ9Ik01ODAsNTEyLjA0NjkgTDU4MCw1MjAuMDMxMyBMNTcwLDUzMC4wMzEzIEw0MTQsNTMwLjAzMTMgIiBmaWxsPSJub25lIiBzdHlsZT0ic3Ryb2tlOiMwMjg4RDE7c3Ryb2tlLXdpZHRoOjEuNTsiLz48dGV4dCBmaWxsPSIjMDI3N0JEIiBmb250LWZhbWlseT0ic2Fucy1zZXJpZiIgZm9udC1zaXplPSIxNCIgbGVuZ3RoQWRqdXN0PSJzcGFjaW5nIiB0ZXh0TGVuZ3RoPSIxNTYiIHg9IjQxNyIgeT0iNTI2LjI4MTMiPkpvYiBQb3N0aW5nIE1hbmFnZW1lbnQ8L3RleHQ+PHJlY3QgZmlsbD0iI0YxRjFGMSIgaGVpZ2h0PSIzMi44NDM4IiByeD0iMTIuNSIgcnk9IjEyLjUiIHN0eWxlPSJzdHJva2U6IzE4MTgxODtzdHJva2Utd2lkdGg6MC41OyIgd2lkdGg9Ijg3IiB4PSI0NTguNSIgeT0iNTQ3LjAzMTMiLz48dGV4dCBmaWxsPSIjMDAwMDAwIiBmb250LWZhbWlseT0ic2Fucy1zZXJpZiIgZm9udC1zaXplPSIxMiIgbGVuZ3RoQWRqdXN0PSJzcGFjaW5nIiB0ZXh0TGVuZ3RoPSI2NyIgeD0iNDY4LjUiIHk9IjU2OC4zNzUiPkNyZWF0ZSBKb2I8L3RleHQ+PHJlY3QgZmlsbD0iI0YxRjFGMSIgaGVpZ2h0PSIzMi44NDM4IiByeD0iMTIuNSIgcnk9IjEyLjUiIHN0eWxlPSJzdHJva2U6IzE4MTgxODtzdHJva2Utd2lkdGg6MC41OyIgd2lkdGg9IjcxIiB4PSI0NjYuNSIgeT0iNTk5Ljg3NSIvPjx0ZXh0IGZpbGw9IiMwMDAwMDAiIGZvbnQtZmFtaWx5PSJzYW5zLXNlcmlmIiBmb250LXNpemU9IjEyIiBsZW5ndGhBZGp1c3Q9InNwYWNpbmciIHRleHRMZW5ndGg9IjUxIiB4PSI0NzYuNSIgeT0iNjIxLjIxODgiPkVkaXQgSm9iPC90ZXh0PjxyZWN0IGZpbGw9IiNGMUYxRjEiIGhlaWdodD0iMzIuODQzOCIgcng9IjEyLjUiIHJ5PSIxMi41IiBzdHlsZT0ic3Ryb2tlOiMxODE4MTg7c3Ryb2tlLXdpZHRoOjAuNTsiIHdpZHRoPSI4NiIgeD0iNDU5IiB5PSI2NTkuNzE4OCIvPjx0ZXh0IGZpbGw9IiMwMDAwMDAiIGZvbnQtZmFtaWx5PSJzYW5zLXNlcmlmIiBmb250LXNpemU9IjEyIiBsZW5ndGhBZGp1c3Q9InNwYWNpbmciIHRleHRMZW5ndGg9IjY2IiB4PSI0NjkiIHk9IjY4MS4wNjI1Ij5EZWxldGUgSm9iPC90ZXh0Pjxwb2x5Z29uIGZpbGw9IiNGMUYxRjEiIHBvaW50cz0iMzM4LjI1LDg3MS4yMzQ0LDM1MC4yNSw4ODMuMjM0NCwzMzguMjUsODk1LjIzNDQsMzI2LjI1LDg4My4yMzQ0LDMzOC4yNSw4NzEuMjM0NCIgc3R5bGU9InN0cm9rZTojMTgxODE4O3N0cm9rZS13aWR0aDowLjU7Ii8+PHJlY3QgZmlsbD0iI0YxRjFGMSIgaGVpZ2h0PSIzMi44NDM4IiByeD0iMTIuNSIgcnk9IjEyLjUiIHN0eWxlPSJzdHJva2U6IzE4MTgxODtzdHJva2Utd2lkdGg6MC41OyIgd2lkdGg9Ijg3IiB4PSI2NTQiIHk9IjE4OS42ODc1Ii8+PHRleHQgZmlsbD0iIzAwMDAwMCIgZm9udC1mYW1pbHk9InNhbnMtc2VyaWYiIGZvbnQtc2l6ZT0iMTIiIGxlbmd0aEFkanVzdD0ic3BhY2luZyIgdGV4dExlbmd0aD0iNjciIHg9IjY2NCIgeT0iMjExLjAzMTMiPlNob3cgRXJyb3I8L3RleHQ+PHJlY3QgZmlsbD0iI0YxRjFGMSIgaGVpZ2h0PSIzMi44NDM4IiByeD0iMTIuNSIgcnk9IjEyLjUiIHN0eWxlPSJzdHJva2U6IzE4MTgxODtzdHJva2Utd2lkdGg6MC41OyIgd2lkdGg9IjkzIiB4PSI2NTEiIHk9IjI1Ny41MzEzIi8+PHRleHQgZmlsbD0iIzAwMDAwMCIgZm9udC1mYW1pbHk9InNhbnMtc2VyaWYiIGZvbnQtc2l6ZT0iMTIiIGxlbmd0aEFkanVzdD0ic3BhY2luZyIgdGV4dExlbmd0aD0iNzMiIHg9IjY2MSIgeT0iMjc4Ljg3NSI+UmV0cnkgTG9naW48L3RleHQ+PHBvbHlnb24gZmlsbD0iI0YxRjFGMSIgcG9pbnRzPSI1MzAuMzc1LDkwMS4yMzQ0LDU0Mi4zNzUsOTEzLjIzNDQsNTMwLjM3NSw5MjUuMjM0NCw1MTguMzc1LDkxMy4yMzQ0LDUzMC4zNzUsOTAxLjIzNDQiIHN0eWxlPSJzdHJva2U6IzE4MTgxODtzdHJva2Utd2lkdGg6MC41OyIvPjxlbGxpcHNlIGN4PSI1MzAuMzc1IiBjeT0iOTU2LjIzNDQiIGZpbGw9Im5vbmUiIHJ4PSIxMSIgcnk9IjExIiBzdHlsZT0ic3Ryb2tlOiMyMjIyMjI7c3Ryb2tlLXdpZHRoOjEuMDsiLz48ZWxsaXBzZSBjeD0iNTMwLjM3NSIgY3k9Ijk1Ni4yMzQ0IiBmaWxsPSIjMjIyMjIyIiByeD0iNiIgcnk9IjYiIHN0eWxlPSJzdHJva2U6IzIyMjIyMjtzdHJva2Utd2lkdGg6MS4wOyIvPjxsaW5lIHN0eWxlPSJzdHJva2U6IzE4MTgxODtzdHJva2Utd2lkdGg6MS4wOyIgeDE9IjUzMC4zNzUiIHgyPSI1MzAuMzc1IiB5MT0iMzAiIHkyPSI1MCIvPjxwb2x5Z29uIGZpbGw9IiMxODE4MTgiIHBvaW50cz0iNTI2LjM3NSw0MCw1MzAuMzc1LDUwLDUzNC4zNzUsNDAsNTMwLjM3NSw0NCIgc3R5bGU9InN0cm9rZTojMTgxODE4O3N0cm9rZS13aWR0aDoxLjA7Ii8+PGxpbmUgc3R5bGU9InN0cm9rZTojMTgxODE4O3N0cm9rZS13aWR0aDoxLjA7IiB4MT0iNTMwLjM3NSIgeDI9IjUzMC4zNzUiIHkxPSI4Mi44NDM4IiB5Mj0iMTAyLjg0MzgiLz48cG9seWdvbiBmaWxsPSIjMTgxODE4IiBwb2ludHM9IjUyNi4zNzUsOTIuODQzOCw1MzAuMzc1LDEwMi44NDM4LDUzNC4zNzUsOTIuODQzOCw1MzAuMzc1LDk2Ljg0MzgiIHN0eWxlPSJzdHJva2U6IzE4MTgxODtzdHJva2Utd2lkdGg6MS4wOyIvPjxsaW5lIHN0eWxlPSJzdHJva2U6IzE4MTgxODtzdHJva2Utd2lkdGg6MS4wOyIgeDE9IjE3NC41IiB4Mj0iMTc0LjUiIHkxPSIyOTEuNTE1NiIgeTI9IjMxMS41MTU2Ii8+PHBvbHlnb24gZmlsbD0iIzE4MTgxOCIgcG9pbnRzPSIxNzAuNSwzMDEuNTE1NiwxNzQuNSwzMTEuNTE1NiwxNzguNSwzMDEuNTE1NiwxNzQuNSwzMDUuNTE1NiIgc3R5bGU9InN0cm9rZTojMTgxODE4O3N0cm9rZS13aWR0aDoxLjA7Ii8+PGxpbmUgc3R5bGU9InN0cm9rZTojMTgxODE4O3N0cm9rZS13aWR0aDoxLjA7IiB4MT0iMTc0LjUiIHgyPSIxNzQuNSIgeTE9IjM0NC4zNTk0IiB5Mj0iMzY0LjM1OTQiLz48cG9seWdvbiBmaWxsPSIjMTgxODE4IiBwb2ludHM9IjE3MC41LDM1NC4zNTk0LDE3NC41LDM2NC4zNTk0LDE3OC41LDM1NC4zNTk0LDE3NC41LDM1OC4zNTk0IiBzdHlsZT0ic3Ryb2tlOiMxODE4MTg7c3Ryb2tlLXdpZHRoOjEuMDsiLz48bGluZSBzdHlsZT0ic3Ryb2tlOiMxODE4MTg7c3Ryb2tlLXdpZHRoOjEuMDsiIHgxPSIxNzQuNSIgeDI9IjE3NC41IiB5MT0iNTEyLjAzMTMiIHkyPSI1NDcuMDMxMyIvPjxwb2x5Z29uIGZpbGw9IiMxODE4MTgiIHBvaW50cz0iMTcwLjUsNTM3LjAzMTMsMTc0LjUsNTQ3LjAzMTMsMTc4LjUsNTM3LjAzMTMsMTc0LjUsNTQxLjAzMTMiIHN0eWxlPSJzdHJva2U6IzE4MTgxODtzdHJva2Utd2lkdGg6MS4wOyIvPjxsaW5lIHN0eWxlPSJzdHJva2U6IzE4MTgxODtzdHJva2Utd2lkdGg6MS4wOyIgeDE9IjE3NC41IiB4Mj0iMTc0LjUiIHkxPSI1NzkuODc1IiB5Mj0iNTk5Ljg3NSIvPjxwb2x5Z29uIGZpbGw9IiMxODE4MTgiIHBvaW50cz0iMTcwLjUsNTg5Ljg3NSwxNzQuNSw1OTkuODc1LDE3OC41LDU4OS44NzUsMTc0LjUsNTkzLjg3NSIgc3R5bGU9InN0cm9rZTojMTgxODE4O3N0cm9rZS13aWR0aDoxLjA7Ii8+PGxpbmUgc3R5bGU9InN0cm9rZTojMTgxODE4O3N0cm9rZS13aWR0aDoxLjA7IiB4MT0iMTc0LjUiIHgyPSIxNzQuNSIgeTE9IjM5Ny4yMDMxIiB5Mj0iNDc5LjE4NzUiLz48cG9seWdvbiBmaWxsPSIjMTgxODE4IiBwb2ludHM9IjE3MC41LDQ2OS4xODc1LDE3NC41LDQ3OS4xODc1LDE3OC41LDQ2OS4xODc1LDE3NC41LDQ3My4xODc1IiBzdHlsZT0ic3Ryb2tlOiMxODE4MTg7c3Ryb2tlLXdpZHRoOjEuMDsiLz48bGluZSBzdHlsZT0ic3Ryb2tlOiMxODE4MTg7c3Ryb2tlLXdpZHRoOjEuMDsiIHgxPSIxNzQuNSIgeDI9IjE3NC41IiB5MT0iNzQ3LjU0NjkiIHkyPSI3NjcuNTQ2OSIvPjxwb2x5Z29uIGZpbGw9IiMxODE4MTgiIHBvaW50cz0iMTcwLjUsNzU3LjU0NjksMTc0LjUsNzY3LjU0NjksMTc4LjUsNzU3LjU0NjksMTc0LjUsNzYxLjU0NjkiIHN0eWxlPSJzdHJva2U6IzE4MTgxODtzdHJva2Utd2lkdGg6MS4wOyIvPjxsaW5lIHN0eWxlPSJzdHJva2U6IzE4MTgxODtzdHJva2Utd2lkdGg6MS4wOyIgeDE9IjE3NC41IiB4Mj0iMTc0LjUiIHkxPSI4MDAuMzkwNiIgeTI9IjgyMC4zOTA2Ii8+PHBvbHlnb24gZmlsbD0iIzE4MTgxOCIgcG9pbnRzPSIxNzAuNSw4MTAuMzkwNiwxNzQuNSw4MjAuMzkwNiwxNzguNSw4MTAuMzkwNiwxNzQuNSw4MTQuMzkwNiIgc3R5bGU9InN0cm9rZTojMTgxODE4O3N0cm9rZS13aWR0aDoxLjA7Ii8+PGxpbmUgc3R5bGU9InN0cm9rZTojMTgxODE4O3N0cm9rZS13aWR0aDoxLjA7IiB4MT0iMTc0LjUiIHgyPSIxNzQuNSIgeTE9IjYzMi43MTg4IiB5Mj0iNzE0LjcwMzEiLz48cG9seWdvbiBmaWxsPSIjMTgxODE4IiBwb2ludHM9IjE3MC41LDcwNC43MDMxLDE3NC41LDcxNC43MDMxLDE3OC41LDcwNC43MDMxLDE3NC41LDcwOC43MDMxIiBzdHlsZT0ic3Ryb2tlOiMxODE4MTg7c3Ryb2tlLXdpZHRoOjEuMDsiLz48bGluZSBzdHlsZT0ic3Ryb2tlOiMxODE4MTg7c3Ryb2tlLXdpZHRoOjEuMDsiIHgxPSI1MDIiIHgyPSI1MDIiIHkxPSIyOTEuNTE1NiIgeTI9IjMxMS41MTU2Ii8+PHBvbHlnb24gZmlsbD0iIzE4MTgxOCIgcG9pbnRzPSI0OTgsMzAxLjUxNTYsNTAyLDMxMS41MTU2LDUwNiwzMDEuNTE1Niw1MDIsMzA1LjUxNTYiIHN0eWxlPSJzdHJva2U6IzE4MTgxODtzdHJva2Utd2lkdGg6MS4wOyIvPjxsaW5lIHN0eWxlPSJzdHJva2U6IzE4MTgxODtzdHJva2Utd2lkdGg6MS4wOyIgeDE9IjUwMiIgeDI9IjUwMiIgeTE9IjM0NC4zNTk0IiB5Mj0iMzY0LjM1OTQiLz48cG9seWdvbiBmaWxsPSIjMTgxODE4IiBwb2ludHM9IjQ5OCwzNTQuMzU5NCw1MDIsMzY0LjM1OTQsNTA2LDM1NC4zNTk0LDUwMiwzNTguMzU5NCIgc3R5bGU9InN0cm9rZTojMTgxODE4O3N0cm9rZS13aWR0aDoxLjA7Ii8+PGxpbmUgc3R5bGU9InN0cm9rZTojMTgxODE4O3N0cm9rZS13aWR0aDoxLjA7IiB4MT0iNTAyIiB4Mj0iNTAyIiB5MT0iMzk3LjIwMzEiIHkyPSI0MjQuMjAzMSIvPjxwb2x5Z29uIGZpbGw9IiMxODE4MTgiIHBvaW50cz0iNDk4LDQxNC4yMDMxLDUwMiw0MjQuMjAzMSw1MDYsNDE0LjIwMzEsNTAyLDQxOC4yMDMxIiBzdHlsZT0ic3Ryb2tlOiMxODE4MTg7c3Ryb2tlLXdpZHRoOjEuMDsiLz48bGluZSBzdHlsZT0ic3Ryb2tlOiMxODE4MTg7c3Ryb2tlLXdpZHRoOjEuMDsiIHgxPSI1MDIiIHgyPSI1MDIiIHkxPSI1NzkuODc1IiB5Mj0iNTk5Ljg3NSIvPjxwb2x5Z29uIGZpbGw9IiMxODE4MTgiIHBvaW50cz0iNDk4LDU4OS44NzUsNTAyLDU5OS44NzUsNTA2LDU4OS44NzUsNTAyLDU5My44NzUiIHN0eWxlPSJzdHJva2U6IzE4MTgxODtzdHJva2Utd2lkdGg6MS4wOyIvPjxsaW5lIHN0eWxlPSJzdHJva2U6IzE4MTgxODtzdHJva2Utd2lkdGg6MS4wOyIgeDE9IjUwMiIgeDI9IjUwMiIgeTE9IjYzMi43MTg4IiB5Mj0iNjU5LjcxODgiLz48cG9seWdvbiBmaWxsPSIjMTgxODE4IiBwb2ludHM9IjQ5OCw2NDkuNzE4OCw1MDIsNjU5LjcxODgsNTA2LDY0OS43MTg4LDUwMiw2NTMuNzE4OCIgc3R5bGU9InN0cm9rZTojMTgxODE4O3N0cm9rZS13aWR0aDoxLjA7Ii8+PGxpbmUgc3R5bGU9InN0cm9rZTojMTgxODE4O3N0cm9rZS13aWR0aDoxLjA7IiB4MT0iNTAyIiB4Mj0iNTAyIiB5MT0iNDU3LjA0NjkiIHkyPSI1NDcuMDMxMyIvPjxwb2x5Z29uIGZpbGw9IiMxODE4MTgiIHBvaW50cz0iNDk4LDUzNy4wMzEzLDUwMiw1NDcuMDMxMyw1MDYsNTM3LjAzMTMsNTAyLDU0MS4wMzEzIiBzdHlsZT0ic3Ryb2tlOiMxODE4MTg7c3Ryb2tlLXdpZHRoOjEuMDsiLz48bGluZSBzdHlsZT0ic3Ryb2tlOiMxODE4MTg7c3Ryb2tlLXdpZHRoOjEuMDsiIHgxPSIyOTMuMjUiIHgyPSIxNzQuNSIgeTE9IjIwMS42ODc1IiB5Mj0iMjAxLjY4NzUiLz48bGluZSBzdHlsZT0ic3Ryb2tlOiMxODE4MTg7c3Ryb2tlLXdpZHRoOjEuMDsiIHgxPSIxNzQuNSIgeDI9IjE3NC41IiB5MT0iMjAxLjY4NzUiIHkyPSIyNTguNjcxOSIvPjxwb2x5Z29uIGZpbGw9IiMxODE4MTgiIHBvaW50cz0iMTcwLjUsMjQ4LjY3MTksMTc0LjUsMjU4LjY3MTksMTc4LjUsMjQ4LjY3MTksMTc0LjUsMjUyLjY3MTkiIHN0eWxlPSJzdHJva2U6IzE4MTgxODtzdHJva2Utd2lkdGg6MS4wOyIvPjxsaW5lIHN0eWxlPSJzdHJva2U6IzE4MTgxODtzdHJva2Utd2lkdGg6MS4wOyIgeDE9IjM4My4yNSIgeDI9IjUwMiIgeTE9IjIwMS42ODc1IiB5Mj0iMjAxLjY4NzUiLz48bGluZSBzdHlsZT0ic3Ryb2tlOiMxODE4MTg7c3Ryb2tlLXdpZHRoOjEuMDsiIHgxPSI1MDIiIHgyPSI1MDIiIHkxPSIyMDEuNjg3NSIgeTI9IjI1OC42NzE5Ii8+PHBvbHlnb24gZmlsbD0iIzE4MTgxOCIgcG9pbnRzPSI0OTgsMjQ4LjY3MTksNTAyLDI1OC42NzE5LDUwNiwyNDguNjcxOSw1MDIsMjUyLjY3MTkiIHN0eWxlPSJzdHJva2U6IzE4MTgxODtzdHJva2Utd2lkdGg6MS4wOyIvPjxsaW5lIHN0eWxlPSJzdHJva2U6IzE4MTgxODtzdHJva2Utd2lkdGg6MS4wOyIgeDE9IjE3NC41IiB4Mj0iMTc0LjUiIHkxPSI4NTMuMjM0NCIgeTI9Ijg4My4yMzQ0Ii8+PGxpbmUgc3R5bGU9InN0cm9rZTojMTgxODE4O3N0cm9rZS13aWR0aDoxLjA7IiB4MT0iMTc0LjUiIHgyPSIzMjYuMjUiIHkxPSI4ODMuMjM0NCIgeTI9Ijg4My4yMzQ0Ii8+PHBvbHlnb24gZmlsbD0iIzE4MTgxOCIgcG9pbnRzPSIzMTYuMjUsODc5LjIzNDQsMzI2LjI1LDg4My4yMzQ0LDMxNi4yNSw4ODcuMjM0NCwzMjAuMjUsODgzLjIzNDQiIHN0eWxlPSJzdHJva2U6IzE4MTgxODtzdHJva2Utd2lkdGg6MS4wOyIvPjxsaW5lIHN0eWxlPSJzdHJva2U6IzE4MTgxODtzdHJva2Utd2lkdGg6MS4wOyIgeDE9IjUwMiIgeDI9IjUwMiIgeTE9IjY5Mi41NjI1IiB5Mj0iODgzLjIzNDQiLz48bGluZSBzdHlsZT0ic3Ryb2tlOiMxODE4MTg7c3Ryb2tlLXdpZHRoOjEuMDsiIHgxPSI1MDIiIHgyPSIzNTAuMjUiIHkxPSI4ODMuMjM0NCIgeTI9Ijg4My4yMzQ0Ii8+PHBvbHlnb24gZmlsbD0iIzE4MTgxOCIgcG9pbnRzPSIzNjAuMjUsODc5LjIzNDQsMzUwLjI1LDg4My4yMzQ0LDM2MC4yNSw4ODcuMjM0NCwzNTYuMjUsODgzLjIzNDQiIHN0eWxlPSJzdHJva2U6IzE4MTgxODtzdHJva2Utd2lkdGg6MS4wOyIvPjxsaW5lIHN0eWxlPSJzdHJva2U6IzE4MTgxODtzdHJva2Utd2lkdGg6MS4wOyIgeDE9IjY5Ny41IiB4Mj0iNjk3LjUiIHkxPSIyMjIuNTMxMyIgeTI9IjI1Ny41MzEzIi8+PHBvbHlnb24gZmlsbD0iIzE4MTgxOCIgcG9pbnRzPSI2OTMuNSwyNDcuNTMxMyw2OTcuNSwyNTcuNTMxMyw3MDEuNSwyNDcuNTMxMyw2OTcuNSwyNTEuNTMxMyIgc3R5bGU9InN0cm9rZTojMTgxODE4O3N0cm9rZS13aWR0aDoxLjA7Ii8+PGxpbmUgc3R5bGU9InN0cm9rZTojMTgxODE4O3N0cm9rZS13aWR0aDoxLjA7IiB4MT0iNDY3LjM3NSIgeDI9IjMzOC4yNSIgeTE9IjE2Ny42ODc1IiB5Mj0iMTY3LjY4NzUiLz48bGluZSBzdHlsZT0ic3Ryb2tlOiMxODE4MTg7c3Ryb2tlLXdpZHRoOjEuMDsiIHgxPSIzMzguMjUiIHgyPSIzMzguMjUiIHkxPSIxNjcuNjg3NSIgeTI9IjE4OS42ODc1Ii8+PHBvbHlnb24gZmlsbD0iIzE4MTgxOCIgcG9pbnRzPSIzMzQuMjUsMTc5LjY4NzUsMzM4LjI1LDE4OS42ODc1LDM0Mi4yNSwxNzkuNjg3NSwzMzguMjUsMTgzLjY4NzUiIHN0eWxlPSJzdHJva2U6IzE4MTgxODtzdHJva2Utd2lkdGg6MS4wOyIvPjxsaW5lIHN0eWxlPSJzdHJva2U6IzE4MTgxODtzdHJva2Utd2lkdGg6MS4wOyIgeDE9IjU5My4zNzUiIHgyPSI2OTcuNSIgeTE9IjE2Ny42ODc1IiB5Mj0iMTY3LjY4NzUiLz48bGluZSBzdHlsZT0ic3Ryb2tlOiMxODE4MTg7c3Ryb2tlLXdpZHRoOjEuMDsiIHgxPSI2OTcuNSIgeDI9IjY5Ny41IiB5MT0iMTY3LjY4NzUiIHkyPSIxODkuNjg3NSIvPjxwb2x5Z29uIGZpbGw9IiMxODE4MTgiIHBvaW50cz0iNjkzLjUsMTc5LjY4NzUsNjk3LjUsMTg5LjY4NzUsNzAxLjUsMTc5LjY4NzUsNjk3LjUsMTgzLjY4NzUiIHN0eWxlPSJzdHJva2U6IzE4MTgxODtzdHJva2Utd2lkdGg6MS4wOyIvPjxsaW5lIHN0eWxlPSJzdHJva2U6IzE4MTgxODtzdHJva2Utd2lkdGg6MS4wOyIgeDE9IjMzOC4yNSIgeDI9IjMzOC4yNSIgeTE9Ijg5NS4yMzQ0IiB5Mj0iOTEzLjIzNDQiLz48bGluZSBzdHlsZT0ic3Ryb2tlOiMxODE4MTg7c3Ryb2tlLXdpZHRoOjEuMDsiIHgxPSIzMzguMjUiIHgyPSI1MTguMzc1IiB5MT0iOTEzLjIzNDQiIHkyPSI5MTMuMjM0NCIvPjxwb2x5Z29uIGZpbGw9IiMxODE4MTgiIHBvaW50cz0iNTA4LjM3NSw5MDkuMjM0NCw1MTguMzc1LDkxMy4yMzQ0LDUwOC4zNzUsOTE3LjIzNDQsNTEyLjM3NSw5MTMuMjM0NCIgc3R5bGU9InN0cm9rZTojMTgxODE4O3N0cm9rZS13aWR0aDoxLjA7Ii8+PGxpbmUgc3R5bGU9InN0cm9rZTojMTgxODE4O3N0cm9rZS13aWR0aDoxLjA7IiB4MT0iNjk3LjUiIHgyPSI2OTcuNSIgeTE9IjI5MC4zNzUiIHkyPSI5MTMuMjM0NCIvPjxsaW5lIHN0eWxlPSJzdHJva2U6IzE4MTgxODtzdHJva2Utd2lkdGg6MS4wOyIgeDE9IjY5Ny41IiB4Mj0iNTQyLjM3NSIgeTE9IjkxMy4yMzQ0IiB5Mj0iOTEzLjIzNDQiLz48cG9seWdvbiBmaWxsPSIjMTgxODE4IiBwb2ludHM9IjU1Mi4zNzUsOTA5LjIzNDQsNTQyLjM3NSw5MTMuMjM0NCw1NTIuMzc1LDkxNy4yMzQ0LDU0OC4zNzUsOTEzLjIzNDQiIHN0eWxlPSJzdHJva2U6IzE4MTgxODtzdHJva2Utd2lkdGg6MS4wOyIvPjxsaW5lIHN0eWxlPSJzdHJva2U6IzE4MTgxODtzdHJva2Utd2lkdGg6MS4wOyIgeDE9IjUzMC4zNzUiIHgyPSI1MzAuMzc1IiB5MT0iMTM1LjY4NzUiIHkyPSIxNTUuNjg3NSIvPjxwb2x5Z29uIGZpbGw9IiMxODE4MTgiIHBvaW50cz0iNTI2LjM3NSwxNDUuNjg3NSw1MzAuMzc1LDE1NS42ODc1LDUzNC4zNzUsMTQ1LjY4NzUsNTMwLjM3NSwxNDkuNjg3NSIgc3R5bGU9InN0cm9rZTojMTgxODE4O3N0cm9rZS13aWR0aDoxLjA7Ii8+PGxpbmUgc3R5bGU9InN0cm9rZTojMTgxODE4O3N0cm9rZS13aWR0aDoxLjA7IiB4MT0iNTMwLjM3NSIgeDI9IjUzMC4zNzUiIHkxPSI5MjUuMjM0NCIgeTI9Ijk0NS4yMzQ0Ii8+PHBvbHlnb24gZmlsbD0iIzE4MTgxOCIgcG9pbnRzPSI1MjYuMzc1LDkzNS4yMzQ0LDUzMC4zNzUsOTQ1LjIzNDQsNTM0LjM3NSw5MzUuMjM0NCw1MzAuMzc1LDkzOS4yMzQ0IiBzdHlsZT0ic3Ryb2tlOiMxODE4MTg7c3Ryb2tlLXdpZHRoOjEuMDsiLz48IS0tU1JDPVtaTEpSWmplbTQ3dEZMcW90S1dOSUlib3drbzF1ZzA5OWdoUlI1S2dXS1h6REYwNE5PcVVzOHVITS0gLXpyUmJxV09SbHA0OHF5OS1TU3BxcG9XTUIyMTRCZXB2VmtxelQ3N3M5RWo3T1NsTUNZOU9oaU9LdFl0S1I5SkQydnY1QjFudzI4NHVJRzVFN1AwSGtwSXgzaFVNRl9lUW45SEw1THZ0U0Z1LTdpaFpXRmYzM0xRVF82a0UteWQ5MUpaOWJjS2JtSjIwOV96ZGRNNTBaa0h5NVdUNFBiZHVRUER4WnlHTjBWLTBySm16NWV2WktMLWlGbnMxak8xS1NSby1uQzhoT0hpNGdkcGtISFJmWU9FV3ZCZTVGYTQ2TG5aNWVkNlZfSTFSRDUwUHRWZ0JpNVF1eHdmWTRvNktMWGNsS3lOaHRWaDNHZy00YTRzVTNVdWMtZ3N6R25jSWlhMWM2WFBDOHVKaS1CRmNNY2pxaGZUU0dndlA5RzI1NWRVdUpFbVdrd2htWHhzSFA3YlZFUXkycnBCZ01yVkJIWmRFaUJ6THlDMy0yY0FNVDh1UmpTTnpRTm9Xd2oxQ0lhSzh5Q0NQYzZaY2lSZDFnYWxIM19PNm9KX3pnc3oxMFhLVjRNWUEwR0M2dkdESG5OWURtQmg4X20wdXk3a21LTmppZnRJdjJUVTZkajVmUjc1Ni1oWXRSUlJmZlJ5RDBHVGpnOGJ0elBhSTNOVFd2RmlkS1BHZW5MbmRCamtsY1ZPMnh0QUg3N1R1d1hIWlRpNUMySWVfMnZhRGVtaU1jVkkwdXVjS2hSTTdpTEx4cWp4VjNoZXdocXR4N3c1anNvell0NzdkQXluOVZUSHE1UHVmb3RWWDlqdkc1eWZRR2d1UENHWkpmMnpSTU5oellWV0twXzBXMDBdLS0+PC9nPjwvc3ZnPg==;" vertex="1" parent="1">
            <mxGeometry x="-1190" y="420" width="755" height="978" as="geometry" />
          </mxCell>
        </UserObject>
        <UserObject label="" plantUmlData="{&quot;data&quot;:&quot;@startuml\n!define RECTANGLE class\n\nskinparam backgroundColor #E6F7FF\nskinparam node {\n    BackgroundColor #ADD8E6\n    BorderColor #4682B4\n    FontColor #000080\n}\nskinparam decision {\n    BackgroundColor #FFEB3B\n    BorderColor #F57F17\n}\nskinparam partition {\n    BackgroundColor #E1F5FE\n    FontColor #0277BD\n    BorderColor #0288D1\n}\n\nstart\n:Sign Up;\n:Login;\n\nif (Login Successful?) then (Yes)\n    partition \&quot;User Management\&quot; {\n        :Create Profile;\n        :Edit/Update Profile;\n        :Upload Resume (PDF);\n    }\n\n    partition \&quot;Student Profile Management\&quot; {\n        :Add/Update Skills;\n        :View Applied Jobs;\n        :Track Application Status (Accepted/Rejected);\n    }\n\n    partition \&quot;Job Search and Filter\&quot; {\n        :Search Jobs by Keyword;\n        :Filter Jobs (Location, Type, Skills);\n        :View Job Details;\n    }\n\nelse (No)\n    :Show Error;\n    :Retry Login;\nendif\n\nstop\n@enduml\n&quot;,&quot;format&quot;:&quot;svg&quot;}" id="B4BPFSr__uT_kfEw5dcK-5">
          <mxCell style="shape=image;noLabel=1;verticalAlign=top;aspect=fixed;imageAspect=0;image=data:image/svg+xml,PD94bWwgdmVyc2lvbj0iMS4wIiBlbmNvZGluZz0idXMtYXNjaWkiIHN0YW5kYWxvbmU9Im5vIj8+PHN2ZyB4bWxucz0iaHR0cDovL3d3dy53My5vcmcvMjAwMC9zdmciIHhtbG5zOnhsaW5rPSJodHRwOi8vd3d3LnczLm9yZy8xOTk5L3hsaW5rIiBjb250ZW50U3R5bGVUeXBlPSJ0ZXh0L2NzcyIgaGVpZ2h0PSI4NjRweCIgcHJlc2VydmVBc3BlY3RSYXRpbz0ibm9uZSIgc3R5bGU9IndpZHRoOjQ2MnB4O2hlaWdodDo4NjRweDtiYWNrZ3JvdW5kOiNFNkY3RkY7IiB2ZXJzaW9uPSIxLjEiIHZpZXdCb3g9IjAgMCA0NjIgODY0IiB3aWR0aD0iNDYycHgiIHpvb21BbmRQYW49Im1hZ25pZnkiPjxkZWZzLz48Zz48cmVjdCBmaWxsPSIjRTZGN0ZGIiBoZWlnaHQ9Ijg2NCIgc3R5bGU9InN0cm9rZTpub25lO3N0cm9rZS13aWR0aDoxLjA7IiB3aWR0aD0iNDYyIiB4PSIwIiB5PSIwIi8+PGVsbGlwc2UgY3g9IjI4OS41IiBjeT0iMjAiIGZpbGw9IiMyMjIyMjIiIHJ4PSIxMCIgcnk9IjEwIiBzdHlsZT0ic3Ryb2tlOiMyMjIyMjI7c3Ryb2tlLXdpZHRoOjEuMDsiLz48cmVjdCBmaWxsPSIjRjFGMUYxIiBoZWlnaHQ9IjMyLjg0MzgiIHJ4PSIxMi41IiByeT0iMTIuNSIgc3R5bGU9InN0cm9rZTojMTgxODE4O3N0cm9rZS13aWR0aDowLjU7IiB3aWR0aD0iNjciIHg9IjI1NiIgeT0iNTAiLz48dGV4dCBmaWxsPSIjMDAwMDAwIiBmb250LWZhbWlseT0ic2Fucy1zZXJpZiIgZm9udC1zaXplPSIxMiIgbGVuZ3RoQWRqdXN0PSJzcGFjaW5nIiB0ZXh0TGVuZ3RoPSI0NyIgeD0iMjY2IiB5PSI3MS4zNDM4Ij5TaWduIFVwPC90ZXh0PjxyZWN0IGZpbGw9IiNGMUYxRjEiIGhlaWdodD0iMzIuODQzOCIgcng9IjEyLjUiIHJ5PSIxMi41IiBzdHlsZT0ic3Ryb2tlOiMxODE4MTg7c3Ryb2tlLXdpZHRoOjAuNTsiIHdpZHRoPSI1MyIgeD0iMjYzIiB5PSIxMDIuODQzOCIvPjx0ZXh0IGZpbGw9IiMwMDAwMDAiIGZvbnQtZmFtaWx5PSJzYW5zLXNlcmlmIiBmb250LXNpemU9IjEyIiBsZW5ndGhBZGp1c3Q9InNwYWNpbmciIHRleHRMZW5ndGg9IjMzIiB4PSIyNzMiIHk9IjEyNC4xODc1Ij5Mb2dpbjwvdGV4dD48cG9seWdvbiBmaWxsPSIjRjFGMUYxIiBwb2ludHM9IjIzOC41LDE1NS42ODc1LDM0MC41LDE1NS42ODc1LDM1Mi41LDE2Ny42ODc1LDM0MC41LDE3OS42ODc1LDIzOC41LDE3OS42ODc1LDIyNi41LDE2Ny42ODc1LDIzOC41LDE1NS42ODc1IiBzdHlsZT0ic3Ryb2tlOiMxODE4MTg7c3Ryb2tlLXdpZHRoOjAuNTsiLz48dGV4dCBmaWxsPSIjMDAwMDAwIiBmb250LWZhbWlseT0ic2Fucy1zZXJpZiIgZm9udC1zaXplPSIxMSIgbGVuZ3RoQWRqdXN0PSJzcGFjaW5nIiB0ZXh0TGVuZ3RoPSIxMDIiIHg9IjIzOC41IiB5PSIxNzIuMTk5MiI+TG9naW4gU3VjY2Vzc2Z1bD88L3RleHQ+PHRleHQgZmlsbD0iIzAwMDAwMCIgZm9udC1mYW1pbHk9InNhbnMtc2VyaWYiIGZvbnQtc2l6ZT0iMTEiIGxlbmd0aEFkanVzdD0ic3BhY2luZyIgdGV4dExlbmd0aD0iMTgiIHg9IjIwOC41IiB5PSIxNjYuMzEyNSI+WWVzPC90ZXh0Pjx0ZXh0IGZpbGw9IiMwMDAwMDAiIGZvbnQtZmFtaWx5PSJzYW5zLXNlcmlmIiBmb250LXNpemU9IjExIiBsZW5ndGhBZGp1c3Q9InNwYWNpbmciIHRleHRMZW5ndGg9IjEyIiB4PSIzNTIuNSIgeT0iMTY2LjMxMjUiPk5vPC90ZXh0PjxyZWN0IGZpbGw9IiNFMUY1RkUiIGhlaWdodD0iMjAwLjUxNTYiIHN0eWxlPSJzdHJva2U6IzAyODhEMTtzdHJva2Utd2lkdGg6MS41OyIgd2lkdGg9IjE2NiIgeD0iOTEuNSIgeT0iMTg5LjY4NzUiLz48cGF0aCBkPSJNMjA3LjUsMTg5LjY4NzUgTDIwNy41LDE5Ny42NzE5IEwxOTcuNSwyMDcuNjcxOSBMOTEuNSwyMDcuNjcxOSAiIGZpbGw9Im5vbmUiIHN0eWxlPSJzdHJva2U6IzAyODhEMTtzdHJva2Utd2lkdGg6MS41OyIvPjx0ZXh0IGZpbGw9IiMwMjc3QkQiIGZvbnQtZmFtaWx5PSJzYW5zLXNlcmlmIiBmb250LXNpemU9IjE0IiBsZW5ndGhBZGp1c3Q9InNwYWNpbmciIHRleHRMZW5ndGg9IjEwNiIgeD0iOTQuNSIgeT0iMjAzLjkyMTkiPlVzZXIgTWFuYWdlbWVudDwvdGV4dD48cmVjdCBmaWxsPSIjRjFGMUYxIiBoZWlnaHQ9IjMyLjg0MzgiIHJ4PSIxMi41IiByeT0iMTIuNSIgc3R5bGU9InN0cm9rZTojMTgxODE4O3N0cm9rZS13aWR0aDowLjU7IiB3aWR0aD0iMTEzIiB4PSIxMTgiIHk9IjIyNC42NzE5Ii8+PHRleHQgZmlsbD0iIzAwMDAwMCIgZm9udC1mYW1pbHk9InNhbnMtc2VyaWYiIGZvbnQtc2l6ZT0iMTIiIGxlbmd0aEFkanVzdD0ic3BhY2luZyIgdGV4dExlbmd0aD0iOTMiIHg9IjEyOCIgeT0iMjQ2LjAxNTYiPkNyZWF0ZSBQcm9maWxlPC90ZXh0PjxyZWN0IGZpbGw9IiNGMUYxRjEiIGhlaWdodD0iMzIuODQzOCIgcng9IjEyLjUiIHJ5PSIxMi41IiBzdHlsZT0ic3Ryb2tlOiMxODE4MTg7c3Ryb2tlLXdpZHRoOjAuNTsiIHdpZHRoPSIxNDUiIHg9IjEwMiIgeT0iMjkyLjUxNTYiLz48dGV4dCBmaWxsPSIjMDAwMDAwIiBmb250LWZhbWlseT0ic2Fucy1zZXJpZiIgZm9udC1zaXplPSIxMiIgbGVuZ3RoQWRqdXN0PSJzcGFjaW5nIiB0ZXh0TGVuZ3RoPSIxMjUiIHg9IjExMiIgeT0iMzEzLjg1OTQiPkVkaXQvVXBkYXRlIFByb2ZpbGU8L3RleHQ+PHJlY3QgZmlsbD0iI0YxRjFGMSIgaGVpZ2h0PSIzMi44NDM4IiByeD0iMTIuNSIgcnk9IjEyLjUiIHN0eWxlPSJzdHJva2U6IzE4MTgxODtzdHJva2Utd2lkdGg6MC41OyIgd2lkdGg9IjE0NiIgeD0iMTAxLjUiIHk9IjM0NS4zNTk0Ii8+PHRleHQgZmlsbD0iIzAwMDAwMCIgZm9udC1mYW1pbHk9InNhbnMtc2VyaWYiIGZvbnQtc2l6ZT0iMTIiIGxlbmd0aEFkanVzdD0ic3BhY2luZyIgdGV4dExlbmd0aD0iMTI2IiB4PSIxMTEuNSIgeT0iMzY2LjcwMzEiPlVwbG9hZCBSZXN1bWUgKFBERik8L3RleHQ+PHJlY3QgZmlsbD0iI0UxRjVGRSIgaGVpZ2h0PSIxODUuNTE1NiIgc3R5bGU9InN0cm9rZTojMDI4OEQxO3N0cm9rZS13aWR0aDoxLjU7IiB3aWR0aD0iMzI3IiB4PSIxMSIgeT0iNDAwLjIwMzEiLz48cGF0aCBkPSJNMjA0LDQwMC4yMDMxIEwyMDQsNDA4LjE4NzUgTDE5NCw0MTguMTg3NSBMMTEsNDE4LjE4NzUgIiBmaWxsPSJub25lIiBzdHlsZT0ic3Ryb2tlOiMwMjg4RDE7c3Ryb2tlLXdpZHRoOjEuNTsiLz48dGV4dCBmaWxsPSIjMDI3N0JEIiBmb250LWZhbWlseT0ic2Fucy1zZXJpZiIgZm9udC1zaXplPSIxNCIgbGVuZ3RoQWRqdXN0PSJzcGFjaW5nIiB0ZXh0TGVuZ3RoPSIxODMiIHg9IjE0IiB5PSI0MTQuNDM3NSI+U3R1ZGVudCBQcm9maWxlIE1hbmFnZW1lbnQ8L3RleHQ+PHJlY3QgZmlsbD0iI0YxRjFGMSIgaGVpZ2h0PSIzMi44NDM4IiByeD0iMTIuNSIgcnk9IjEyLjUiIHN0eWxlPSJzdHJva2U6IzE4MTgxODtzdHJva2Utd2lkdGg6MC41OyIgd2lkdGg9IjEzMyIgeD0iMTA4IiB5PSI0MzUuMTg3NSIvPjx0ZXh0IGZpbGw9IiMwMDAwMDAiIGZvbnQtZmFtaWx5PSJzYW5zLXNlcmlmIiBmb250LXNpemU9IjEyIiBsZW5ndGhBZGp1c3Q9InNwYWNpbmciIHRleHRMZW5ndGg9IjExMyIgeD0iMTE4IiB5PSI0NTYuNTMxMyI+QWRkL1VwZGF0ZSBTa2lsbHM8L3RleHQ+PHJlY3QgZmlsbD0iI0YxRjFGMSIgaGVpZ2h0PSIzMi44NDM4IiByeD0iMTIuNSIgcnk9IjEyLjUiIHN0eWxlPSJzdHJva2U6IzE4MTgxODtzdHJva2Utd2lkdGg6MC41OyIgd2lkdGg9IjEzMiIgeD0iMTA4LjUiIHk9IjQ4OC4wMzEzIi8+PHRleHQgZmlsbD0iIzAwMDAwMCIgZm9udC1mYW1pbHk9InNhbnMtc2VyaWYiIGZvbnQtc2l6ZT0iMTIiIGxlbmd0aEFkanVzdD0ic3BhY2luZyIgdGV4dExlbmd0aD0iMTEyIiB4PSIxMTguNSIgeT0iNTA5LjM3NSI+VmlldyBBcHBsaWVkIEpvYnM8L3RleHQ+PHJlY3QgZmlsbD0iI0YxRjFGMSIgaGVpZ2h0PSIzMi44NDM4IiByeD0iMTIuNSIgcnk9IjEyLjUiIHN0eWxlPSJzdHJva2U6IzE4MTgxODtzdHJva2Utd2lkdGg6MC41OyIgd2lkdGg9IjMwNyIgeD0iMjEiIHk9IjU0MC44NzUiLz48dGV4dCBmaWxsPSIjMDAwMDAwIiBmb250LWZhbWlseT0ic2Fucy1zZXJpZiIgZm9udC1zaXplPSIxMiIgbGVuZ3RoQWRqdXN0PSJzcGFjaW5nIiB0ZXh0TGVuZ3RoPSIyODciIHg9IjMxIiB5PSI1NjIuMjE4OCI+VHJhY2sgQXBwbGljYXRpb24gU3RhdHVzIChBY2NlcHRlZC9SZWplY3RlZCk8L3RleHQ+PHJlY3QgZmlsbD0iI0UxRjVGRSIgaGVpZ2h0PSIxODUuNTE1NiIgc3R5bGU9InN0cm9rZTojMDI4OEQxO3N0cm9rZS13aWR0aDoxLjU7IiB3aWR0aD0iMjcwIiB4PSIzOS41IiB5PSI1OTUuNzE4OCIvPjxwYXRoIGQ9Ik0xOTcuNSw1OTUuNzE4OCBMMTk3LjUsNjAzLjcwMzEgTDE4Ny41LDYxMy43MDMxIEwzOS41LDYxMy43MDMxICIgZmlsbD0ibm9uZSIgc3R5bGU9InN0cm9rZTojMDI4OEQxO3N0cm9rZS13aWR0aDoxLjU7Ii8+PHRleHQgZmlsbD0iIzAyNzdCRCIgZm9udC1mYW1pbHk9InNhbnMtc2VyaWYiIGZvbnQtc2l6ZT0iMTQiIGxlbmd0aEFkanVzdD0ic3BhY2luZyIgdGV4dExlbmd0aD0iMTQ4IiB4PSI0Mi41IiB5PSI2MDkuOTUzMSI+Sm9iIFNlYXJjaCBhbmQgRmlsdGVyPC90ZXh0PjxyZWN0IGZpbGw9IiNGMUYxRjEiIGhlaWdodD0iMzIuODQzOCIgcng9IjEyLjUiIHJ5PSIxMi41IiBzdHlsZT0ic3Ryb2tlOiMxODE4MTg7c3Ryb2tlLXdpZHRoOjAuNTsiIHdpZHRoPSIxNjciIHg9IjkxIiB5PSI2MzAuNzAzMSIvPjx0ZXh0IGZpbGw9IiMwMDAwMDAiIGZvbnQtZmFtaWx5PSJzYW5zLXNlcmlmIiBmb250LXNpemU9IjEyIiBsZW5ndGhBZGp1c3Q9InNwYWNpbmciIHRleHRMZW5ndGg9IjE0NyIgeD0iMTAxIiB5PSI2NTIuMDQ2OSI+U2VhcmNoIEpvYnMgYnkgS2V5d29yZDwvdGV4dD48cmVjdCBmaWxsPSIjRjFGMUYxIiBoZWlnaHQ9IjMyLjg0MzgiIHJ4PSIxMi41IiByeT0iMTIuNSIgc3R5bGU9InN0cm9rZTojMTgxODE4O3N0cm9rZS13aWR0aDowLjU7IiB3aWR0aD0iMjUwIiB4PSI0OS41IiB5PSI2ODMuNTQ2OSIvPjx0ZXh0IGZpbGw9IiMwMDAwMDAiIGZvbnQtZmFtaWx5PSJzYW5zLXNlcmlmIiBmb250LXNpemU9IjEyIiBsZW5ndGhBZGp1c3Q9InNwYWNpbmciIHRleHRMZW5ndGg9IjIzMCIgeD0iNTkuNSIgeT0iNzA0Ljg5MDYiPkZpbHRlciBKb2JzIChMb2NhdGlvbiwgVHlwZSwgU2tpbGxzKTwvdGV4dD48cmVjdCBmaWxsPSIjRjFGMUYxIiBoZWlnaHQ9IjMyLjg0MzgiIHJ4PSIxMi41IiByeT0iMTIuNSIgc3R5bGU9InN0cm9rZTojMTgxODE4O3N0cm9rZS13aWR0aDowLjU7IiB3aWR0aD0iMTI0IiB4PSIxMTIuNSIgeT0iNzM2LjM5MDYiLz48dGV4dCBmaWxsPSIjMDAwMDAwIiBmb250LWZhbWlseT0ic2Fucy1zZXJpZiIgZm9udC1zaXplPSIxMiIgbGVuZ3RoQWRqdXN0PSJzcGFjaW5nIiB0ZXh0TGVuZ3RoPSIxMDQiIHg9IjEyMi41IiB5PSI3NTcuNzM0NCI+VmlldyBKb2IgRGV0YWlsczwvdGV4dD48cmVjdCBmaWxsPSIjRjFGMUYxIiBoZWlnaHQ9IjMyLjg0MzgiIHJ4PSIxMi41IiByeT0iMTIuNSIgc3R5bGU9InN0cm9rZTojMTgxODE4O3N0cm9rZS13aWR0aDowLjU7IiB3aWR0aD0iODciIHg9IjM2MSIgeT0iMTg5LjY4NzUiLz48dGV4dCBmaWxsPSIjMDAwMDAwIiBmb250LWZhbWlseT0ic2Fucy1zZXJpZiIgZm9udC1zaXplPSIxMiIgbGVuZ3RoQWRqdXN0PSJzcGFjaW5nIiB0ZXh0TGVuZ3RoPSI2NyIgeD0iMzcxIiB5PSIyMTEuMDMxMyI+U2hvdyBFcnJvcjwvdGV4dD48cmVjdCBmaWxsPSIjRjFGMUYxIiBoZWlnaHQ9IjMyLjg0MzgiIHJ4PSIxMi41IiByeT0iMTIuNSIgc3R5bGU9InN0cm9rZTojMTgxODE4O3N0cm9rZS13aWR0aDowLjU7IiB3aWR0aD0iOTMiIHg9IjM1OCIgeT0iMjU3LjUzMTMiLz48dGV4dCBmaWxsPSIjMDAwMDAwIiBmb250LWZhbWlseT0ic2Fucy1zZXJpZiIgZm9udC1zaXplPSIxMiIgbGVuZ3RoQWRqdXN0PSJzcGFjaW5nIiB0ZXh0TGVuZ3RoPSI3MyIgeD0iMzY4IiB5PSIyNzguODc1Ij5SZXRyeSBMb2dpbjwvdGV4dD48cG9seWdvbiBmaWxsPSIjRjFGMUYxIiBwb2ludHM9IjI4OS41LDc4Ny4yMzQ0LDMwMS41LDc5OS4yMzQ0LDI4OS41LDgxMS4yMzQ0LDI3Ny41LDc5OS4yMzQ0LDI4OS41LDc4Ny4yMzQ0IiBzdHlsZT0ic3Ryb2tlOiMxODE4MTg7c3Ryb2tlLXdpZHRoOjAuNTsiLz48ZWxsaXBzZSBjeD0iMjg5LjUiIGN5PSI4NDIuMjM0NCIgZmlsbD0ibm9uZSIgcng9IjExIiByeT0iMTEiIHN0eWxlPSJzdHJva2U6IzIyMjIyMjtzdHJva2Utd2lkdGg6MS4wOyIvPjxlbGxpcHNlIGN4PSIyODkuNSIgY3k9Ijg0Mi4yMzQ0IiBmaWxsPSIjMjIyMjIyIiByeD0iNiIgcnk9IjYiIHN0eWxlPSJzdHJva2U6IzIyMjIyMjtzdHJva2Utd2lkdGg6MS4wOyIvPjxsaW5lIHN0eWxlPSJzdHJva2U6IzE4MTgxODtzdHJva2Utd2lkdGg6MS4wOyIgeDE9IjI4OS41IiB4Mj0iMjg5LjUiIHkxPSIzMCIgeTI9IjUwIi8+PHBvbHlnb24gZmlsbD0iIzE4MTgxOCIgcG9pbnRzPSIyODUuNSw0MCwyODkuNSw1MCwyOTMuNSw0MCwyODkuNSw0NCIgc3R5bGU9InN0cm9rZTojMTgxODE4O3N0cm9rZS13aWR0aDoxLjA7Ii8+PGxpbmUgc3R5bGU9InN0cm9rZTojMTgxODE4O3N0cm9rZS13aWR0aDoxLjA7IiB4MT0iMjg5LjUiIHgyPSIyODkuNSIgeTE9IjgyLjg0MzgiIHkyPSIxMDIuODQzOCIvPjxwb2x5Z29uIGZpbGw9IiMxODE4MTgiIHBvaW50cz0iMjg1LjUsOTIuODQzOCwyODkuNSwxMDIuODQzOCwyOTMuNSw5Mi44NDM4LDI4OS41LDk2Ljg0MzgiIHN0eWxlPSJzdHJva2U6IzE4MTgxODtzdHJva2Utd2lkdGg6MS4wOyIvPjxsaW5lIHN0eWxlPSJzdHJva2U6IzE4MTgxODtzdHJva2Utd2lkdGg6MS4wOyIgeDE9IjE3NC41IiB4Mj0iMTc0LjUiIHkxPSIyNTcuNTE1NiIgeTI9IjI5Mi41MTU2Ii8+PHBvbHlnb24gZmlsbD0iIzE4MTgxOCIgcG9pbnRzPSIxNzAuNSwyODIuNTE1NiwxNzQuNSwyOTIuNTE1NiwxNzguNSwyODIuNTE1NiwxNzQuNSwyODYuNTE1NiIgc3R5bGU9InN0cm9rZTojMTgxODE4O3N0cm9rZS13aWR0aDoxLjA7Ii8+PGxpbmUgc3R5bGU9InN0cm9rZTojMTgxODE4O3N0cm9rZS13aWR0aDoxLjA7IiB4MT0iMTc0LjUiIHgyPSIxNzQuNSIgeTE9IjMyNS4zNTk0IiB5Mj0iMzQ1LjM1OTQiLz48cG9seWdvbiBmaWxsPSIjMTgxODE4IiBwb2ludHM9IjE3MC41LDMzNS4zNTk0LDE3NC41LDM0NS4zNTk0LDE3OC41LDMzNS4zNTk0LDE3NC41LDMzOS4zNTk0IiBzdHlsZT0ic3Ryb2tlOiMxODE4MTg7c3Ryb2tlLXdpZHRoOjEuMDsiLz48bGluZSBzdHlsZT0ic3Ryb2tlOiMxODE4MTg7c3Ryb2tlLXdpZHRoOjEuMDsiIHgxPSIxNzQuNSIgeDI9IjE3NC41IiB5MT0iNDY4LjAzMTMiIHkyPSI0ODguMDMxMyIvPjxwb2x5Z29uIGZpbGw9IiMxODE4MTgiIHBvaW50cz0iMTcwLjUsNDc4LjAzMTMsMTc0LjUsNDg4LjAzMTMsMTc4LjUsNDc4LjAzMTMsMTc0LjUsNDgyLjAzMTMiIHN0eWxlPSJzdHJva2U6IzE4MTgxODtzdHJva2Utd2lkdGg6MS4wOyIvPjxsaW5lIHN0eWxlPSJzdHJva2U6IzE4MTgxODtzdHJva2Utd2lkdGg6MS4wOyIgeDE9IjE3NC41IiB4Mj0iMTc0LjUiIHkxPSI1MjAuODc1IiB5Mj0iNTQwLjg3NSIvPjxwb2x5Z29uIGZpbGw9IiMxODE4MTgiIHBvaW50cz0iMTcwLjUsNTMwLjg3NSwxNzQuNSw1NDAuODc1LDE3OC41LDUzMC44NzUsMTc0LjUsNTM0Ljg3NSIgc3R5bGU9InN0cm9rZTojMTgxODE4O3N0cm9rZS13aWR0aDoxLjA7Ii8+PGxpbmUgc3R5bGU9InN0cm9rZTojMTgxODE4O3N0cm9rZS13aWR0aDoxLjA7IiB4MT0iMTc0LjUiIHgyPSIxNzQuNSIgeTE9IjM3OC4yMDMxIiB5Mj0iNDM1LjE4NzUiLz48cG9seWdvbiBmaWxsPSIjMTgxODE4IiBwb2ludHM9IjE3MC41LDQyNS4xODc1LDE3NC41LDQzNS4xODc1LDE3OC41LDQyNS4xODc1LDE3NC41LDQyOS4xODc1IiBzdHlsZT0ic3Ryb2tlOiMxODE4MTg7c3Ryb2tlLXdpZHRoOjEuMDsiLz48bGluZSBzdHlsZT0ic3Ryb2tlOiMxODE4MTg7c3Ryb2tlLXdpZHRoOjEuMDsiIHgxPSIxNzQuNSIgeDI9IjE3NC41IiB5MT0iNjYzLjU0NjkiIHkyPSI2ODMuNTQ2OSIvPjxwb2x5Z29uIGZpbGw9IiMxODE4MTgiIHBvaW50cz0iMTcwLjUsNjczLjU0NjksMTc0LjUsNjgzLjU0NjksMTc4LjUsNjczLjU0NjksMTc0LjUsNjc3LjU0NjkiIHN0eWxlPSJzdHJva2U6IzE4MTgxODtzdHJva2Utd2lkdGg6MS4wOyIvPjxsaW5lIHN0eWxlPSJzdHJva2U6IzE4MTgxODtzdHJva2Utd2lkdGg6MS4wOyIgeDE9IjE3NC41IiB4Mj0iMTc0LjUiIHkxPSI3MTYuMzkwNiIgeTI9IjczNi4zOTA2Ii8+PHBvbHlnb24gZmlsbD0iIzE4MTgxOCIgcG9pbnRzPSIxNzAuNSw3MjYuMzkwNiwxNzQuNSw3MzYuMzkwNiwxNzguNSw3MjYuMzkwNiwxNzQuNSw3MzAuMzkwNiIgc3R5bGU9InN0cm9rZTojMTgxODE4O3N0cm9rZS13aWR0aDoxLjA7Ii8+PGxpbmUgc3R5bGU9InN0cm9rZTojMTgxODE4O3N0cm9rZS13aWR0aDoxLjA7IiB4MT0iMTc0LjUiIHgyPSIxNzQuNSIgeTE9IjU3My43MTg4IiB5Mj0iNjMwLjcwMzEiLz48cG9seWdvbiBmaWxsPSIjMTgxODE4IiBwb2ludHM9IjE3MC41LDYyMC43MDMxLDE3NC41LDYzMC43MDMxLDE3OC41LDYyMC43MDMxLDE3NC41LDYyNC43MDMxIiBzdHlsZT0ic3Ryb2tlOiMxODE4MTg7c3Ryb2tlLXdpZHRoOjEuMDsiLz48bGluZSBzdHlsZT0ic3Ryb2tlOiMxODE4MTg7c3Ryb2tlLXdpZHRoOjEuMDsiIHgxPSI0MDQuNSIgeDI9IjQwNC41IiB5MT0iMjIyLjUzMTMiIHkyPSIyNTcuNTMxMyIvPjxwb2x5Z29uIGZpbGw9IiMxODE4MTgiIHBvaW50cz0iNDAwLjUsMjQ3LjUzMTMsNDA0LjUsMjU3LjUzMTMsNDA4LjUsMjQ3LjUzMTMsNDA0LjUsMjUxLjUzMTMiIHN0eWxlPSJzdHJva2U6IzE4MTgxODtzdHJva2Utd2lkdGg6MS4wOyIvPjxsaW5lIHN0eWxlPSJzdHJva2U6IzE4MTgxODtzdHJva2Utd2lkdGg6MS4wOyIgeDE9IjIyNi41IiB4Mj0iMTc0LjUiIHkxPSIxNjcuNjg3NSIgeTI9IjE2Ny42ODc1Ii8+PGxpbmUgc3R5bGU9InN0cm9rZTojMTgxODE4O3N0cm9rZS13aWR0aDoxLjA7IiB4MT0iMTc0LjUiIHgyPSIxNzQuNSIgeTE9IjE2Ny42ODc1IiB5Mj0iMjI0LjY3MTkiLz48cG9seWdvbiBmaWxsPSIjMTgxODE4IiBwb2ludHM9IjE3MC41LDIxNC42NzE5LDE3NC41LDIyNC42NzE5LDE3OC41LDIxNC42NzE5LDE3NC41LDIxOC42NzE5IiBzdHlsZT0ic3Ryb2tlOiMxODE4MTg7c3Ryb2tlLXdpZHRoOjEuMDsiLz48bGluZSBzdHlsZT0ic3Ryb2tlOiMxODE4MTg7c3Ryb2tlLXdpZHRoOjEuMDsiIHgxPSIzNTIuNSIgeDI9IjQwNC41IiB5MT0iMTY3LjY4NzUiIHkyPSIxNjcuNjg3NSIvPjxsaW5lIHN0eWxlPSJzdHJva2U6IzE4MTgxODtzdHJva2Utd2lkdGg6MS4wOyIgeDE9IjQwNC41IiB4Mj0iNDA0LjUiIHkxPSIxNjcuNjg3NSIgeTI9IjE4OS42ODc1Ii8+PHBvbHlnb24gZmlsbD0iIzE4MTgxOCIgcG9pbnRzPSI0MDAuNSwxNzkuNjg3NSw0MDQuNSwxODkuNjg3NSw0MDguNSwxNzkuNjg3NSw0MDQuNSwxODMuNjg3NSIgc3R5bGU9InN0cm9rZTojMTgxODE4O3N0cm9rZS13aWR0aDoxLjA7Ii8+PGxpbmUgc3R5bGU9InN0cm9rZTojMTgxODE4O3N0cm9rZS13aWR0aDoxLjA7IiB4MT0iMTc0LjUiIHgyPSIxNzQuNSIgeTE9Ijc2OS4yMzQ0IiB5Mj0iNzk5LjIzNDQiLz48bGluZSBzdHlsZT0ic3Ryb2tlOiMxODE4MTg7c3Ryb2tlLXdpZHRoOjEuMDsiIHgxPSIxNzQuNSIgeDI9IjI3Ny41IiB5MT0iNzk5LjIzNDQiIHkyPSI3OTkuMjM0NCIvPjxwb2x5Z29uIGZpbGw9IiMxODE4MTgiIHBvaW50cz0iMjY3LjUsNzk1LjIzNDQsMjc3LjUsNzk5LjIzNDQsMjY3LjUsODAzLjIzNDQsMjcxLjUsNzk5LjIzNDQiIHN0eWxlPSJzdHJva2U6IzE4MTgxODtzdHJva2Utd2lkdGg6MS4wOyIvPjxsaW5lIHN0eWxlPSJzdHJva2U6IzE4MTgxODtzdHJva2Utd2lkdGg6MS4wOyIgeDE9IjQwNC41IiB4Mj0iNDA0LjUiIHkxPSIyOTAuMzc1IiB5Mj0iNzk5LjIzNDQiLz48bGluZSBzdHlsZT0ic3Ryb2tlOiMxODE4MTg7c3Ryb2tlLXdpZHRoOjEuMDsiIHgxPSI0MDQuNSIgeDI9IjMwMS41IiB5MT0iNzk5LjIzNDQiIHkyPSI3OTkuMjM0NCIvPjxwb2x5Z29uIGZpbGw9IiMxODE4MTgiIHBvaW50cz0iMzExLjUsNzk1LjIzNDQsMzAxLjUsNzk5LjIzNDQsMzExLjUsODAzLjIzNDQsMzA3LjUsNzk5LjIzNDQiIHN0eWxlPSJzdHJva2U6IzE4MTgxODtzdHJva2Utd2lkdGg6MS4wOyIvPjxsaW5lIHN0eWxlPSJzdHJva2U6IzE4MTgxODtzdHJva2Utd2lkdGg6MS4wOyIgeDE9IjI4OS41IiB4Mj0iMjg5LjUiIHkxPSIxMzUuNjg3NSIgeTI9IjE1NS42ODc1Ii8+PHBvbHlnb24gZmlsbD0iIzE4MTgxOCIgcG9pbnRzPSIyODUuNSwxNDUuNjg3NSwyODkuNSwxNTUuNjg3NSwyOTMuNSwxNDUuNjg3NSwyODkuNSwxNDkuNjg3NSIgc3R5bGU9InN0cm9rZTojMTgxODE4O3N0cm9rZS13aWR0aDoxLjA7Ii8+PGxpbmUgc3R5bGU9InN0cm9rZTojMTgxODE4O3N0cm9rZS13aWR0aDoxLjA7IiB4MT0iMjg5LjUiIHgyPSIyODkuNSIgeTE9IjgxMS4yMzQ0IiB5Mj0iODMxLjIzNDQiLz48cG9seWdvbiBmaWxsPSIjMTgxODE4IiBwb2ludHM9IjI4NS41LDgyMS4yMzQ0LDI4OS41LDgzMS4yMzQ0LDI5My41LDgyMS4yMzQ0LDI4OS41LDgyNS4yMzQ0IiBzdHlsZT0ic3Ryb2tlOiMxODE4MTg7c3Ryb2tlLXdpZHRoOjEuMDsiLz48IS0tU1JDPVtWTDlIUnplbTQ3eEZoeFhzQm8xTEFoMk1IRTVYSWFXeWdVc2dZaTJhRlBodTBYeDZqY243MjVOeHhwQ2FnMmNDdE9EYnROVi1sa19rVkNFbXVYOVhiYV9kb1VsdGJubkFHUXFEMGhsWEtiRDNqeDJhdk1QYkwydFBMMGJidTRpLTlZNFhkR2dmNkM5eDAzeEl5LThhb3c5eXQ2M0FDM0hqX2M0U1pUQTdPdnVld1RoaW00U3EyRnZxbzFjTXQ3OGJobWFHYWdUVnFxaTF5WFlJT1ZZOW9mLUVrX3ptdktGb0lGOEJLd0NtSkJEQlhTNGVZaEFYTG1ZaXl5bjFORjJMWDhNVTFGNkJNZDR2Mkc5VUdVenVYdzhrSXhJc2dpTXRGaFdySWtaekdqaV9pZHh1a2JyT0RGMjNJaGgyQktmdHNwZXpIM21ySTF0MmNyNEw1cFp2MDdCNnRWcjJpdC1aMm9xS1BKMTNNc3lIVWN5UHdKVWVEdHdjTmhZUVVUS0pvSktaMk1DZGtNQjNYUjBUalB5U1R2MWVCSldvVTVCQkJaT3RWazBETURBWk9rNmVnb3RxNFp5U3hQM1RwXzB0Ymx2b3JRQWRYMEFmQVRUMDlHRjJYS0Zwb0xzQjdoSFhrT1RkdEVfeXJaZXNjWlREV1R6RU8tS0V2ZGtEVHNyM19WRUUzaDhQRWlmRnBOZmRBQW9WdndqZ2JYV05ReE0zdDFYYmNlZnVYaXhpZVZxQUExY2wzWno1d1J5MF0tLT48L2c+PC9zdmc+;" vertex="1" parent="1">
            <mxGeometry x="-1660" y="453" width="462" height="864" as="geometry" />
          </mxCell>
        </UserObject>
        <UserObject label="" plantUmlData="{&quot;data&quot;:&quot;@startuml\n!define RECTANGLE class\n\nskinparam backgroundColor #E8F5E9\nskinparam node {\n    BackgroundColor #A5D6A7\n    BorderColor #388E3C\n    FontColor #1B5E20\n}\nskinparam decision {\n    BackgroundColor #FFD54F\n    BorderColor #FF6F00\n}\nskinparam partition {\n    BackgroundColor #C8E6C9\n    FontColor #2E7D32\n    BorderColor #388E3C\n}\n\nstart\n:Sign Up;\n:Login;\n\nif (Login Successful?) then (Yes)\n    partition \&quot;Recruiter Profile &amp; Company Management\&quot; {\n        :Add/Update Company Details;\n        :Manage Job Postings;\n        :Track Job Applications;\n        :View/Manage Student Applications;\n    }\n\n    partition \&quot;Job Posting Management\&quot; {\n        :Create Job;\n        :Edit Job;\n        :Delete Job;\n    }\n    \nelse (No)\n    :Show Error;\n    :Retry Login;\nendif\n\nstop\n@enduml\n&quot;,&quot;format&quot;:&quot;svg&quot;}" id="B4BPFSr__uT_kfEw5dcK-6">
          <mxCell style="shape=image;noLabel=1;verticalAlign=top;aspect=fixed;imageAspect=0;image=data:image/svg+xml,PD94bWwgdmVyc2lvbj0iMS4wIiBlbmNvZGluZz0idXMtYXNjaWkiIHN0YW5kYWxvbmU9Im5vIj8+PHN2ZyB4bWxucz0iaHR0cDovL3d3dy53My5vcmcvMjAwMC9zdmciIHhtbG5zOnhsaW5rPSJodHRwOi8vd3d3LnczLm9yZy8xOTk5L3hsaW5rIiBjb250ZW50U3R5bGVUeXBlPSJ0ZXh0L2NzcyIgaGVpZ2h0PSI3MjFweCIgcHJlc2VydmVBc3BlY3RSYXRpbz0ibm9uZSIgc3R5bGU9IndpZHRoOjQyM3B4O2hlaWdodDo3MjFweDtiYWNrZ3JvdW5kOiNFOEY1RTk7IiB2ZXJzaW9uPSIxLjEiIHZpZXdCb3g9IjAgMCA0MjMgNzIxIiB3aWR0aD0iNDIzcHgiIHpvb21BbmRQYW49Im1hZ25pZnkiPjxkZWZzLz48Zz48cmVjdCBmaWxsPSIjRThGNUU5IiBoZWlnaHQ9IjcyMSIgc3R5bGU9InN0cm9rZTpub25lO3N0cm9rZS13aWR0aDoxLjA7IiB3aWR0aD0iNDIzIiB4PSIwIiB5PSIwIi8+PGVsbGlwc2UgY3g9IjI2MC4yNSIgY3k9IjIwIiBmaWxsPSIjMjIyMjIyIiByeD0iMTAiIHJ5PSIxMCIgc3R5bGU9InN0cm9rZTojMjIyMjIyO3N0cm9rZS13aWR0aDoxLjA7Ii8+PHJlY3QgZmlsbD0iI0YxRjFGMSIgaGVpZ2h0PSIzMi44NDM4IiByeD0iMTIuNSIgcnk9IjEyLjUiIHN0eWxlPSJzdHJva2U6IzE4MTgxODtzdHJva2Utd2lkdGg6MC41OyIgd2lkdGg9IjY3IiB4PSIyMjYuNzUiIHk9IjUwIi8+PHRleHQgZmlsbD0iIzAwMDAwMCIgZm9udC1mYW1pbHk9InNhbnMtc2VyaWYiIGZvbnQtc2l6ZT0iMTIiIGxlbmd0aEFkanVzdD0ic3BhY2luZyIgdGV4dExlbmd0aD0iNDciIHg9IjIzNi43NSIgeT0iNzEuMzQzOCI+U2lnbiBVcDwvdGV4dD48cmVjdCBmaWxsPSIjRjFGMUYxIiBoZWlnaHQ9IjMyLjg0MzgiIHJ4PSIxMi41IiByeT0iMTIuNSIgc3R5bGU9InN0cm9rZTojMTgxODE4O3N0cm9rZS13aWR0aDowLjU7IiB3aWR0aD0iNTMiIHg9IjIzMy43NSIgeT0iMTAyLjg0MzgiLz48dGV4dCBmaWxsPSIjMDAwMDAwIiBmb250LWZhbWlseT0ic2Fucy1zZXJpZiIgZm9udC1zaXplPSIxMiIgbGVuZ3RoQWRqdXN0PSJzcGFjaW5nIiB0ZXh0TGVuZ3RoPSIzMyIgeD0iMjQzLjc1IiB5PSIxMjQuMTg3NSI+TG9naW48L3RleHQ+PHBvbHlnb24gZmlsbD0iI0YxRjFGMSIgcG9pbnRzPSIyMDkuMjUsMTU1LjY4NzUsMzExLjI1LDE1NS42ODc1LDMyMy4yNSwxNjcuNjg3NSwzMTEuMjUsMTc5LjY4NzUsMjA5LjI1LDE3OS42ODc1LDE5Ny4yNSwxNjcuNjg3NSwyMDkuMjUsMTU1LjY4NzUiIHN0eWxlPSJzdHJva2U6IzE4MTgxODtzdHJva2Utd2lkdGg6MC41OyIvPjx0ZXh0IGZpbGw9IiMwMDAwMDAiIGZvbnQtZmFtaWx5PSJzYW5zLXNlcmlmIiBmb250LXNpemU9IjExIiBsZW5ndGhBZGp1c3Q9InNwYWNpbmciIHRleHRMZW5ndGg9IjEwMiIgeD0iMjA5LjI1IiB5PSIxNzIuMTk5MiI+TG9naW4gU3VjY2Vzc2Z1bD88L3RleHQ+PHRleHQgZmlsbD0iIzAwMDAwMCIgZm9udC1mYW1pbHk9InNhbnMtc2VyaWYiIGZvbnQtc2l6ZT0iMTEiIGxlbmd0aEFkanVzdD0ic3BhY2luZyIgdGV4dExlbmd0aD0iMTgiIHg9IjE3OS4yNSIgeT0iMTY2LjMxMjUiPlllczwvdGV4dD48dGV4dCBmaWxsPSIjMDAwMDAwIiBmb250LWZhbWlseT0ic2Fucy1zZXJpZiIgZm9udC1zaXplPSIxMSIgbGVuZ3RoQWRqdXN0PSJzcGFjaW5nIiB0ZXh0TGVuZ3RoPSIxMiIgeD0iMzIzLjI1IiB5PSIxNjYuMzEyNSI+Tm88L3RleHQ+PHJlY3QgZmlsbD0iI0M4RTZDOSIgaGVpZ2h0PSIyNTMuMzU5NCIgc3R5bGU9InN0cm9rZTojMzg4RTNDO3N0cm9rZS13aWR0aDoxLjU7IiB3aWR0aD0iMjg4IiB4PSIxMSIgeT0iMTg5LjY4NzUiLz48cGF0aCBkPSJNMjg5LDE4OS42ODc1IEwyODksMTk3LjY3MTkgTDI3OSwyMDcuNjcxOSBMMTEsMjA3LjY3MTkgIiBmaWxsPSJub25lIiBzdHlsZT0ic3Ryb2tlOiMzODhFM0M7c3Ryb2tlLXdpZHRoOjEuNTsiLz48dGV4dCBmaWxsPSIjMkU3RDMyIiBmb250LWZhbWlseT0ic2Fucy1zZXJpZiIgZm9udC1zaXplPSIxNCIgbGVuZ3RoQWRqdXN0PSJzcGFjaW5nIiB0ZXh0TGVuZ3RoPSIyNjgiIHg9IjE0IiB5PSIyMDMuOTIxOSI+UmVjcnVpdGVyIFByb2ZpbGUgJmFtcDsgQ29tcGFueSBNYW5hZ2VtZW50PC90ZXh0PjxyZWN0IGZpbGw9IiNGMUYxRjEiIGhlaWdodD0iMzIuODQzOCIgcng9IjEyLjUiIHJ5PSIxMi41IiBzdHlsZT0ic3Ryb2tlOiMxODE4MTg7c3Ryb2tlLXdpZHRoOjAuNTsiIHdpZHRoPSIxOTUiIHg9IjU3LjUiIHk9IjIyNC42NzE5Ii8+PHRleHQgZmlsbD0iIzAwMDAwMCIgZm9udC1mYW1pbHk9InNhbnMtc2VyaWYiIGZvbnQtc2l6ZT0iMTIiIGxlbmd0aEFkanVzdD0ic3BhY2luZyIgdGV4dExlbmd0aD0iMTc1IiB4PSI2Ny41IiB5PSIyNDYuMDE1NiI+QWRkL1VwZGF0ZSBDb21wYW55IERldGFpbHM8L3RleHQ+PHJlY3QgZmlsbD0iI0YxRjFGMSIgaGVpZ2h0PSIzMi44NDM4IiByeD0iMTIuNSIgcnk9IjEyLjUiIHN0eWxlPSJzdHJva2U6IzE4MTgxODtzdHJva2Utd2lkdGg6MC41OyIgd2lkdGg9IjE0OCIgeD0iODEiIHk9IjI5Mi41MTU2Ii8+PHRleHQgZmlsbD0iIzAwMDAwMCIgZm9udC1mYW1pbHk9InNhbnMtc2VyaWYiIGZvbnQtc2l6ZT0iMTIiIGxlbmd0aEFkanVzdD0ic3BhY2luZyIgdGV4dExlbmd0aD0iMTI4IiB4PSI5MSIgeT0iMzEzLjg1OTQiPk1hbmFnZSBKb2IgUG9zdGluZ3M8L3RleHQ+PHJlY3QgZmlsbD0iI0YxRjFGMSIgaGVpZ2h0PSIzMi44NDM4IiByeD0iMTIuNSIgcnk9IjEyLjUiIHN0eWxlPSJzdHJva2U6IzE4MTgxODtzdHJva2Utd2lkdGg6MC41OyIgd2lkdGg9IjE2MyIgeD0iNzMuNSIgeT0iMzQ1LjM1OTQiLz48dGV4dCBmaWxsPSIjMDAwMDAwIiBmb250LWZhbWlseT0ic2Fucy1zZXJpZiIgZm9udC1zaXplPSIxMiIgbGVuZ3RoQWRqdXN0PSJzcGFjaW5nIiB0ZXh0TGVuZ3RoPSIxNDMiIHg9IjgzLjUiIHk9IjM2Ni43MDMxIj5UcmFjayBKb2IgQXBwbGljYXRpb25zPC90ZXh0PjxyZWN0IGZpbGw9IiNGMUYxRjEiIGhlaWdodD0iMzIuODQzOCIgcng9IjEyLjUiIHJ5PSIxMi41IiBzdHlsZT0ic3Ryb2tlOiMxODE4MTg7c3Ryb2tlLXdpZHRoOjAuNTsiIHdpZHRoPSIyMzMiIHg9IjM4LjUiIHk9IjM5OC4yMDMxIi8+PHRleHQgZmlsbD0iIzAwMDAwMCIgZm9udC1mYW1pbHk9InNhbnMtc2VyaWYiIGZvbnQtc2l6ZT0iMTIiIGxlbmd0aEFkanVzdD0ic3BhY2luZyIgdGV4dExlbmd0aD0iMjEzIiB4PSI0OC41IiB5PSI0MTkuNTQ2OSI+Vmlldy9NYW5hZ2UgU3R1ZGVudCBBcHBsaWNhdGlvbnM8L3RleHQ+PHJlY3QgZmlsbD0iI0M4RTZDOSIgaGVpZ2h0PSIxODUuNTE1NiIgc3R5bGU9InN0cm9rZTojMzg4RTNDO3N0cm9rZS13aWR0aDoxLjU7IiB3aWR0aD0iMTc2IiB4PSI2NyIgeT0iNDUzLjA0NjkiLz48cGF0aCBkPSJNMjMzLDQ1My4wNDY5IEwyMzMsNDYxLjAzMTMgTDIyMyw0NzEuMDMxMyBMNjcsNDcxLjAzMTMgIiBmaWxsPSJub25lIiBzdHlsZT0ic3Ryb2tlOiMzODhFM0M7c3Ryb2tlLXdpZHRoOjEuNTsiLz48dGV4dCBmaWxsPSIjMkU3RDMyIiBmb250LWZhbWlseT0ic2Fucy1zZXJpZiIgZm9udC1zaXplPSIxNCIgbGVuZ3RoQWRqdXN0PSJzcGFjaW5nIiB0ZXh0TGVuZ3RoPSIxNTYiIHg9IjcwIiB5PSI0NjcuMjgxMyI+Sm9iIFBvc3RpbmcgTWFuYWdlbWVudDwvdGV4dD48cmVjdCBmaWxsPSIjRjFGMUYxIiBoZWlnaHQ9IjMyLjg0MzgiIHJ4PSIxMi41IiByeT0iMTIuNSIgc3R5bGU9InN0cm9rZTojMTgxODE4O3N0cm9rZS13aWR0aDowLjU7IiB3aWR0aD0iODciIHg9IjExMS41IiB5PSI0ODguMDMxMyIvPjx0ZXh0IGZpbGw9IiMwMDAwMDAiIGZvbnQtZmFtaWx5PSJzYW5zLXNlcmlmIiBmb250LXNpemU9IjEyIiBsZW5ndGhBZGp1c3Q9InNwYWNpbmciIHRleHRMZW5ndGg9IjY3IiB4PSIxMjEuNSIgeT0iNTA5LjM3NSI+Q3JlYXRlIEpvYjwvdGV4dD48cmVjdCBmaWxsPSIjRjFGMUYxIiBoZWlnaHQ9IjMyLjg0MzgiIHJ4PSIxMi41IiByeT0iMTIuNSIgc3R5bGU9InN0cm9rZTojMTgxODE4O3N0cm9rZS13aWR0aDowLjU7IiB3aWR0aD0iNzEiIHg9IjExOS41IiB5PSI1NDAuODc1Ii8+PHRleHQgZmlsbD0iIzAwMDAwMCIgZm9udC1mYW1pbHk9InNhbnMtc2VyaWYiIGZvbnQtc2l6ZT0iMTIiIGxlbmd0aEFkanVzdD0ic3BhY2luZyIgdGV4dExlbmd0aD0iNTEiIHg9IjEyOS41IiB5PSI1NjIuMjE4OCI+RWRpdCBKb2I8L3RleHQ+PHJlY3QgZmlsbD0iI0YxRjFGMSIgaGVpZ2h0PSIzMi44NDM4IiByeD0iMTIuNSIgcnk9IjEyLjUiIHN0eWxlPSJzdHJva2U6IzE4MTgxODtzdHJva2Utd2lkdGg6MC41OyIgd2lkdGg9Ijg2IiB4PSIxMTIiIHk9IjU5My43MTg4Ii8+PHRleHQgZmlsbD0iIzAwMDAwMCIgZm9udC1mYW1pbHk9InNhbnMtc2VyaWYiIGZvbnQtc2l6ZT0iMTIiIGxlbmd0aEFkanVzdD0ic3BhY2luZyIgdGV4dExlbmd0aD0iNjYiIHg9IjEyMiIgeT0iNjE1LjA2MjUiPkRlbGV0ZSBKb2I8L3RleHQ+PHJlY3QgZmlsbD0iI0YxRjFGMSIgaGVpZ2h0PSIzMi44NDM4IiByeD0iMTIuNSIgcnk9IjEyLjUiIHN0eWxlPSJzdHJva2U6IzE4MTgxODtzdHJva2Utd2lkdGg6MC41OyIgd2lkdGg9Ijg3IiB4PSIzMjIiIHk9IjE4OS42ODc1Ii8+PHRleHQgZmlsbD0iIzAwMDAwMCIgZm9udC1mYW1pbHk9InNhbnMtc2VyaWYiIGZvbnQtc2l6ZT0iMTIiIGxlbmd0aEFkanVzdD0ic3BhY2luZyIgdGV4dExlbmd0aD0iNjciIHg9IjMzMiIgeT0iMjExLjAzMTMiPlNob3cgRXJyb3I8L3RleHQ+PHJlY3QgZmlsbD0iI0YxRjFGMSIgaGVpZ2h0PSIzMi44NDM4IiByeD0iMTIuNSIgcnk9IjEyLjUiIHN0eWxlPSJzdHJva2U6IzE4MTgxODtzdHJva2Utd2lkdGg6MC41OyIgd2lkdGg9IjkzIiB4PSIzMTkiIHk9IjI1Ny41MzEzIi8+PHRleHQgZmlsbD0iIzAwMDAwMCIgZm9udC1mYW1pbHk9InNhbnMtc2VyaWYiIGZvbnQtc2l6ZT0iMTIiIGxlbmd0aEFkanVzdD0ic3BhY2luZyIgdGV4dExlbmd0aD0iNzMiIHg9IjMyOSIgeT0iMjc4Ljg3NSI+UmV0cnkgTG9naW48L3RleHQ+PHBvbHlnb24gZmlsbD0iI0YxRjFGMSIgcG9pbnRzPSIyNjAuMjUsNjQ0LjU2MjUsMjcyLjI1LDY1Ni41NjI1LDI2MC4yNSw2NjguNTYyNSwyNDguMjUsNjU2LjU2MjUsMjYwLjI1LDY0NC41NjI1IiBzdHlsZT0ic3Ryb2tlOiMxODE4MTg7c3Ryb2tlLXdpZHRoOjAuNTsiLz48ZWxsaXBzZSBjeD0iMjYwLjI1IiBjeT0iNjk5LjU2MjUiIGZpbGw9Im5vbmUiIHJ4PSIxMSIgcnk9IjExIiBzdHlsZT0ic3Ryb2tlOiMyMjIyMjI7c3Ryb2tlLXdpZHRoOjEuMDsiLz48ZWxsaXBzZSBjeD0iMjYwLjI1IiBjeT0iNjk5LjU2MjUiIGZpbGw9IiMyMjIyMjIiIHJ4PSI2IiByeT0iNiIgc3R5bGU9InN0cm9rZTojMjIyMjIyO3N0cm9rZS13aWR0aDoxLjA7Ii8+PGxpbmUgc3R5bGU9InN0cm9rZTojMTgxODE4O3N0cm9rZS13aWR0aDoxLjA7IiB4MT0iMjYwLjI1IiB4Mj0iMjYwLjI1IiB5MT0iMzAiIHkyPSI1MCIvPjxwb2x5Z29uIGZpbGw9IiMxODE4MTgiIHBvaW50cz0iMjU2LjI1LDQwLDI2MC4yNSw1MCwyNjQuMjUsNDAsMjYwLjI1LDQ0IiBzdHlsZT0ic3Ryb2tlOiMxODE4MTg7c3Ryb2tlLXdpZHRoOjEuMDsiLz48bGluZSBzdHlsZT0ic3Ryb2tlOiMxODE4MTg7c3Ryb2tlLXdpZHRoOjEuMDsiIHgxPSIyNjAuMjUiIHgyPSIyNjAuMjUiIHkxPSI4Mi44NDM4IiB5Mj0iMTAyLjg0MzgiLz48cG9seWdvbiBmaWxsPSIjMTgxODE4IiBwb2ludHM9IjI1Ni4yNSw5Mi44NDM4LDI2MC4yNSwxMDIuODQzOCwyNjQuMjUsOTIuODQzOCwyNjAuMjUsOTYuODQzOCIgc3R5bGU9InN0cm9rZTojMTgxODE4O3N0cm9rZS13aWR0aDoxLjA7Ii8+PGxpbmUgc3R5bGU9InN0cm9rZTojMTgxODE4O3N0cm9rZS13aWR0aDoxLjA7IiB4MT0iMTU1IiB4Mj0iMTU1IiB5MT0iMjU3LjUxNTYiIHkyPSIyOTIuNTE1NiIvPjxwb2x5Z29uIGZpbGw9IiMxODE4MTgiIHBvaW50cz0iMTUxLDI4Mi41MTU2LDE1NSwyOTIuNTE1NiwxNTksMjgyLjUxNTYsMTU1LDI4Ni41MTU2IiBzdHlsZT0ic3Ryb2tlOiMxODE4MTg7c3Ryb2tlLXdpZHRoOjEuMDsiLz48bGluZSBzdHlsZT0ic3Ryb2tlOiMxODE4MTg7c3Ryb2tlLXdpZHRoOjEuMDsiIHgxPSIxNTUiIHgyPSIxNTUiIHkxPSIzMjUuMzU5NCIgeTI9IjM0NS4zNTk0Ii8+PHBvbHlnb24gZmlsbD0iIzE4MTgxOCIgcG9pbnRzPSIxNTEsMzM1LjM1OTQsMTU1LDM0NS4zNTk0LDE1OSwzMzUuMzU5NCwxNTUsMzM5LjM1OTQiIHN0eWxlPSJzdHJva2U6IzE4MTgxODtzdHJva2Utd2lkdGg6MS4wOyIvPjxsaW5lIHN0eWxlPSJzdHJva2U6IzE4MTgxODtzdHJva2Utd2lkdGg6MS4wOyIgeDE9IjE1NSIgeDI9IjE1NSIgeTE9IjM3OC4yMDMxIiB5Mj0iMzk4LjIwMzEiLz48cG9seWdvbiBmaWxsPSIjMTgxODE4IiBwb2ludHM9IjE1MSwzODguMjAzMSwxNTUsMzk4LjIwMzEsMTU5LDM4OC4yMDMxLDE1NSwzOTIuMjAzMSIgc3R5bGU9InN0cm9rZTojMTgxODE4O3N0cm9rZS13aWR0aDoxLjA7Ii8+PGxpbmUgc3R5bGU9InN0cm9rZTojMTgxODE4O3N0cm9rZS13aWR0aDoxLjA7IiB4MT0iMTU1IiB4Mj0iMTU1IiB5MT0iNTIwLjg3NSIgeTI9IjU0MC44NzUiLz48cG9seWdvbiBmaWxsPSIjMTgxODE4IiBwb2ludHM9IjE1MSw1MzAuODc1LDE1NSw1NDAuODc1LDE1OSw1MzAuODc1LDE1NSw1MzQuODc1IiBzdHlsZT0ic3Ryb2tlOiMxODE4MTg7c3Ryb2tlLXdpZHRoOjEuMDsiLz48bGluZSBzdHlsZT0ic3Ryb2tlOiMxODE4MTg7c3Ryb2tlLXdpZHRoOjEuMDsiIHgxPSIxNTUiIHgyPSIxNTUiIHkxPSI1NzMuNzE4OCIgeTI9IjU5My43MTg4Ii8+PHBvbHlnb24gZmlsbD0iIzE4MTgxOCIgcG9pbnRzPSIxNTEsNTgzLjcxODgsMTU1LDU5My43MTg4LDE1OSw1ODMuNzE4OCwxNTUsNTg3LjcxODgiIHN0eWxlPSJzdHJva2U6IzE4MTgxODtzdHJva2Utd2lkdGg6MS4wOyIvPjxsaW5lIHN0eWxlPSJzdHJva2U6IzE4MTgxODtzdHJva2Utd2lkdGg6MS4wOyIgeDE9IjE1NSIgeDI9IjE1NSIgeTE9IjQzMS4wNDY5IiB5Mj0iNDg4LjAzMTMiLz48cG9seWdvbiBmaWxsPSIjMTgxODE4IiBwb2ludHM9IjE1MSw0NzguMDMxMywxNTUsNDg4LjAzMTMsMTU5LDQ3OC4wMzEzLDE1NSw0ODIuMDMxMyIgc3R5bGU9InN0cm9rZTojMTgxODE4O3N0cm9rZS13aWR0aDoxLjA7Ii8+PGxpbmUgc3R5bGU9InN0cm9rZTojMTgxODE4O3N0cm9rZS13aWR0aDoxLjA7IiB4MT0iMzY1LjUiIHgyPSIzNjUuNSIgeTE9IjIyMi41MzEzIiB5Mj0iMjU3LjUzMTMiLz48cG9seWdvbiBmaWxsPSIjMTgxODE4IiBwb2ludHM9IjM2MS41LDI0Ny41MzEzLDM2NS41LDI1Ny41MzEzLDM2OS41LDI0Ny41MzEzLDM2NS41LDI1MS41MzEzIiBzdHlsZT0ic3Ryb2tlOiMxODE4MTg7c3Ryb2tlLXdpZHRoOjEuMDsiLz48bGluZSBzdHlsZT0ic3Ryb2tlOiMxODE4MTg7c3Ryb2tlLXdpZHRoOjEuMDsiIHgxPSIxOTcuMjUiIHgyPSIxNTUiIHkxPSIxNjcuNjg3NSIgeTI9IjE2Ny42ODc1Ii8+PGxpbmUgc3R5bGU9InN0cm9rZTojMTgxODE4O3N0cm9rZS13aWR0aDoxLjA7IiB4MT0iMTU1IiB4Mj0iMTU1IiB5MT0iMTY3LjY4NzUiIHkyPSIyMjQuNjcxOSIvPjxwb2x5Z29uIGZpbGw9IiMxODE4MTgiIHBvaW50cz0iMTUxLDIxNC42NzE5LDE1NSwyMjQuNjcxOSwxNTksMjE0LjY3MTksMTU1LDIxOC42NzE5IiBzdHlsZT0ic3Ryb2tlOiMxODE4MTg7c3Ryb2tlLXdpZHRoOjEuMDsiLz48bGluZSBzdHlsZT0ic3Ryb2tlOiMxODE4MTg7c3Ryb2tlLXdpZHRoOjEuMDsiIHgxPSIzMjMuMjUiIHgyPSIzNjUuNSIgeTE9IjE2Ny42ODc1IiB5Mj0iMTY3LjY4NzUiLz48bGluZSBzdHlsZT0ic3Ryb2tlOiMxODE4MTg7c3Ryb2tlLXdpZHRoOjEuMDsiIHgxPSIzNjUuNSIgeDI9IjM2NS41IiB5MT0iMTY3LjY4NzUiIHkyPSIxODkuNjg3NSIvPjxwb2x5Z29uIGZpbGw9IiMxODE4MTgiIHBvaW50cz0iMzYxLjUsMTc5LjY4NzUsMzY1LjUsMTg5LjY4NzUsMzY5LjUsMTc5LjY4NzUsMzY1LjUsMTgzLjY4NzUiIHN0eWxlPSJzdHJva2U6IzE4MTgxODtzdHJva2Utd2lkdGg6MS4wOyIvPjxsaW5lIHN0eWxlPSJzdHJva2U6IzE4MTgxODtzdHJva2Utd2lkdGg6MS4wOyIgeDE9IjE1NSIgeDI9IjE1NSIgeTE9IjYyNi41NjI1IiB5Mj0iNjU2LjU2MjUiLz48bGluZSBzdHlsZT0ic3Ryb2tlOiMxODE4MTg7c3Ryb2tlLXdpZHRoOjEuMDsiIHgxPSIxNTUiIHgyPSIyNDguMjUiIHkxPSI2NTYuNTYyNSIgeTI9IjY1Ni41NjI1Ii8+PHBvbHlnb24gZmlsbD0iIzE4MTgxOCIgcG9pbnRzPSIyMzguMjUsNjUyLjU2MjUsMjQ4LjI1LDY1Ni41NjI1LDIzOC4yNSw2NjAuNTYyNSwyNDIuMjUsNjU2LjU2MjUiIHN0eWxlPSJzdHJva2U6IzE4MTgxODtzdHJva2Utd2lkdGg6MS4wOyIvPjxsaW5lIHN0eWxlPSJzdHJva2U6IzE4MTgxODtzdHJva2Utd2lkdGg6MS4wOyIgeDE9IjM2NS41IiB4Mj0iMzY1LjUiIHkxPSIyOTAuMzc1IiB5Mj0iNjU2LjU2MjUiLz48bGluZSBzdHlsZT0ic3Ryb2tlOiMxODE4MTg7c3Ryb2tlLXdpZHRoOjEuMDsiIHgxPSIzNjUuNSIgeDI9IjI3Mi4yNSIgeTE9IjY1Ni41NjI1IiB5Mj0iNjU2LjU2MjUiLz48cG9seWdvbiBmaWxsPSIjMTgxODE4IiBwb2ludHM9IjI4Mi4yNSw2NTIuNTYyNSwyNzIuMjUsNjU2LjU2MjUsMjgyLjI1LDY2MC41NjI1LDI3OC4yNSw2NTYuNTYyNSIgc3R5bGU9InN0cm9rZTojMTgxODE4O3N0cm9rZS13aWR0aDoxLjA7Ii8+PGxpbmUgc3R5bGU9InN0cm9rZTojMTgxODE4O3N0cm9rZS13aWR0aDoxLjA7IiB4MT0iMjYwLjI1IiB4Mj0iMjYwLjI1IiB5MT0iMTM1LjY4NzUiIHkyPSIxNTUuNjg3NSIvPjxwb2x5Z29uIGZpbGw9IiMxODE4MTgiIHBvaW50cz0iMjU2LjI1LDE0NS42ODc1LDI2MC4yNSwxNTUuNjg3NSwyNjQuMjUsMTQ1LjY4NzUsMjYwLjI1LDE0OS42ODc1IiBzdHlsZT0ic3Ryb2tlOiMxODE4MTg7c3Ryb2tlLXdpZHRoOjEuMDsiLz48bGluZSBzdHlsZT0ic3Ryb2tlOiMxODE4MTg7c3Ryb2tlLXdpZHRoOjEuMDsiIHgxPSIyNjAuMjUiIHgyPSIyNjAuMjUiIHkxPSI2NjguNTYyNSIgeTI9IjY4OC41NjI1Ii8+PHBvbHlnb24gZmlsbD0iIzE4MTgxOCIgcG9pbnRzPSIyNTYuMjUsNjc4LjU2MjUsMjYwLjI1LDY4OC41NjI1LDI2NC4yNSw2NzguNTYyNSwyNjAuMjUsNjgyLjU2MjUiIHN0eWxlPSJzdHJva2U6IzE4MTgxODtzdHJva2Utd2lkdGg6MS4wOyIvPjwhLS1TUkM9W1ZQNURSeThtMzhSbC1IS1Vhb091bU0xeWJTREtzZEpJbjEzWU96QUVlTjVCSDRjZzkxTDI0X3p6ZkxJWk9zQ3ZNOTd6dkZMaHZ1dlo5MkoyZDdmQlRfZW9lSDBjcDFYMnA1UjhiNmNzV3BLQmp4NU1jVUlVSWZJNlVwZThrZEhPOFFKWTI5eTR5WkUtWGpza3R0Rnh2dmhJNzdNUHhtbTZqRUNMLUsxOU1zT1ZucnRRUmY1WkhQblpBOG5HeWJRMzhGMnhKeTdsMWE3RzJyZV9mVjllWFZyN29ubEdkWlV5RGpNY1ZSX0psWmQyQ0wtTXBQTTlpbjJuWDVLdzhpdjRuS0FFMjE0SHI4aXhCQjhtSDZFWUI3YmtXRHNXWEZlN2NhUVhVbDVMY3NFZUNzNUhtcW9oSTJHODMtMmZOU2hhMFR3T1AzN2tLRGZRRVMzZkUyeGRwTE5BY1NMbHFhVkJINjk2NS1aeTVieEw2Y1JBTTI3WlFkTWZ5cXFLSEpURDRuNm9hdmFneTJ2bXRvbXI1WlJaa09TX3E3bUpMLURLLWpzb3hzYXlNU185SVpfQVhSckEtUFhXYkppTWFNMVk0RWZKVFR3YWl6WWVGTDJqYkp2SnBYb2pGYTN2N29Zdlk0eFZmVDhsXS0tPjwvZz48L3N2Zz4=;" vertex="1" parent="1">
            <mxGeometry x="-710" y="-411" width="423" height="721" as="geometry" />
          </mxCell>
        </UserObject>
        <UserObject label="" plantUmlData="{&#xa;  &quot;data&quot;: &quot;@startuml\n!define RECTANGLE class\n\nskinparam backgroundColor #E8F5E9\nskinparam node {\n    BackgroundColor #A5D6A7\n    BorderColor #388E3C\n    FontColor #1B5E20\n}\nskinparam decision {\n    BackgroundColor #FFD54F\n    BorderColor #FF6F00\n}\nskinparam partition {\n    BackgroundColor #C8E6C9\n    FontColor #2E7D32\n    BorderColor #388E3C\n}\n\nstart\n:Sign Up;\n:Login;\n\nif (Login Successful?) then (Yes)\n    :Email Verification;\n\n    partition \&quot;User Management\&quot; {\n        :Password Reset via Email;\n        :Role-Based Access Control;\n    }\n\n    partition \&quot;Recruiter Profile &amp; Company Management\&quot; {\n        :Add/Update Company Details;\n        :Manage Job Postings;\n        :Track Job Applications;\n        :View/Manage Student Applications;\n    }\n\n    partition \&quot;Job Posting Management\&quot; {\n        :Create Job;\n        :Edit Job;\n        :Delete Job;\n    }\n    \nelse (No)\n    :Show Error;\n    :Retry Login;\nendif\n\nstop\n@enduml\n&quot;,&#xa;  &quot;format&quot;: &quot;svg&quot;&#xa;}" id="B4BPFSr__uT_kfEw5dcK-7">
          <mxCell style="shape=image;noLabel=1;verticalAlign=top;aspect=fixed;imageAspect=0;image=data:image/svg+xml,PD94bWwgdmVyc2lvbj0iMS4wIiBlbmNvZGluZz0idXMtYXNjaWkiIHN0YW5kYWxvbmU9Im5vIj8+PHN2ZyB4bWxucz0iaHR0cDovL3d3dy53My5vcmcvMjAwMC9zdmciIHhtbG5zOnhsaW5rPSJodHRwOi8vd3d3LnczLm9yZy8xOTk5L3hsaW5rIiBjb250ZW50U3R5bGVUeXBlPSJ0ZXh0L2NzcyIgaGVpZ2h0PSI5MDJweCIgcHJlc2VydmVBc3BlY3RSYXRpbz0ibm9uZSIgc3R5bGU9IndpZHRoOjQyM3B4O2hlaWdodDo5MDJweDtiYWNrZ3JvdW5kOiNFOEY1RTk7IiB2ZXJzaW9uPSIxLjEiIHZpZXdCb3g9IjAgMCA0MjMgOTAyIiB3aWR0aD0iNDIzcHgiIHpvb21BbmRQYW49Im1hZ25pZnkiPjxkZWZzLz48Zz48cmVjdCBmaWxsPSIjRThGNUU5IiBoZWlnaHQ9IjkwMiIgc3R5bGU9InN0cm9rZTpub25lO3N0cm9rZS13aWR0aDoxLjA7IiB3aWR0aD0iNDIzIiB4PSIwIiB5PSIwIi8+PGVsbGlwc2UgY3g9IjI2MC4yNSIgY3k9IjIwIiBmaWxsPSIjMjIyMjIyIiByeD0iMTAiIHJ5PSIxMCIgc3R5bGU9InN0cm9rZTojMjIyMjIyO3N0cm9rZS13aWR0aDoxLjA7Ii8+PHJlY3QgZmlsbD0iI0YxRjFGMSIgaGVpZ2h0PSIzMi44NDM4IiByeD0iMTIuNSIgcnk9IjEyLjUiIHN0eWxlPSJzdHJva2U6IzE4MTgxODtzdHJva2Utd2lkdGg6MC41OyIgd2lkdGg9IjY3IiB4PSIyMjYuNzUiIHk9IjUwIi8+PHRleHQgZmlsbD0iIzAwMDAwMCIgZm9udC1mYW1pbHk9InNhbnMtc2VyaWYiIGZvbnQtc2l6ZT0iMTIiIGxlbmd0aEFkanVzdD0ic3BhY2luZyIgdGV4dExlbmd0aD0iNDciIHg9IjIzNi43NSIgeT0iNzEuMzQzOCI+U2lnbiBVcDwvdGV4dD48cmVjdCBmaWxsPSIjRjFGMUYxIiBoZWlnaHQ9IjMyLjg0MzgiIHJ4PSIxMi41IiByeT0iMTIuNSIgc3R5bGU9InN0cm9rZTojMTgxODE4O3N0cm9rZS13aWR0aDowLjU7IiB3aWR0aD0iNTMiIHg9IjIzMy43NSIgeT0iMTAyLjg0MzgiLz48dGV4dCBmaWxsPSIjMDAwMDAwIiBmb250LWZhbWlseT0ic2Fucy1zZXJpZiIgZm9udC1zaXplPSIxMiIgbGVuZ3RoQWRqdXN0PSJzcGFjaW5nIiB0ZXh0TGVuZ3RoPSIzMyIgeD0iMjQzLjc1IiB5PSIxMjQuMTg3NSI+TG9naW48L3RleHQ+PHBvbHlnb24gZmlsbD0iI0YxRjFGMSIgcG9pbnRzPSIyMDkuMjUsMTU1LjY4NzUsMzExLjI1LDE1NS42ODc1LDMyMy4yNSwxNjcuNjg3NSwzMTEuMjUsMTc5LjY4NzUsMjA5LjI1LDE3OS42ODc1LDE5Ny4yNSwxNjcuNjg3NSwyMDkuMjUsMTU1LjY4NzUiIHN0eWxlPSJzdHJva2U6IzE4MTgxODtzdHJva2Utd2lkdGg6MC41OyIvPjx0ZXh0IGZpbGw9IiMwMDAwMDAiIGZvbnQtZmFtaWx5PSJzYW5zLXNlcmlmIiBmb250LXNpemU9IjExIiBsZW5ndGhBZGp1c3Q9InNwYWNpbmciIHRleHRMZW5ndGg9IjEwMiIgeD0iMjA5LjI1IiB5PSIxNzIuMTk5MiI+TG9naW4gU3VjY2Vzc2Z1bD88L3RleHQ+PHRleHQgZmlsbD0iIzAwMDAwMCIgZm9udC1mYW1pbHk9InNhbnMtc2VyaWYiIGZvbnQtc2l6ZT0iMTEiIGxlbmd0aEFkanVzdD0ic3BhY2luZyIgdGV4dExlbmd0aD0iMTgiIHg9IjE3OS4yNSIgeT0iMTY2LjMxMjUiPlllczwvdGV4dD48dGV4dCBmaWxsPSIjMDAwMDAwIiBmb250LWZhbWlseT0ic2Fucy1zZXJpZiIgZm9udC1zaXplPSIxMSIgbGVuZ3RoQWRqdXN0PSJzcGFjaW5nIiB0ZXh0TGVuZ3RoPSIxMiIgeD0iMzIzLjI1IiB5PSIxNjYuMzEyNSI+Tm88L3RleHQ+PHJlY3QgZmlsbD0iI0YxRjFGMSIgaGVpZ2h0PSIzMi44NDM4IiByeD0iMTIuNSIgcnk9IjEyLjUiIHN0eWxlPSJzdHJva2U6IzE4MTgxODtzdHJva2Utd2lkdGg6MC41OyIgd2lkdGg9IjEzNSIgeD0iODcuNSIgeT0iMTg5LjY4NzUiLz48dGV4dCBmaWxsPSIjMDAwMDAwIiBmb250LWZhbWlseT0ic2Fucy1zZXJpZiIgZm9udC1zaXplPSIxMiIgbGVuZ3RoQWRqdXN0PSJzcGFjaW5nIiB0ZXh0TGVuZ3RoPSIxMTUiIHg9Ijk3LjUiIHk9IjIxMS4wMzEzIj5FbWFpbCBWZXJpZmljYXRpb248L3RleHQ+PHJlY3QgZmlsbD0iI0M4RTZDOSIgaGVpZ2h0PSIxMzIuNjcxOSIgc3R5bGU9InN0cm9rZTojMzg4RTNDO3N0cm9rZS13aWR0aDoxLjU7IiB3aWR0aD0iMjA3IiB4PSI1MS41IiB5PSIyNDIuNTMxMyIvPjxwYXRoIGQ9Ik0xNjcuNSwyNDIuNTMxMyBMMTY3LjUsMjUwLjUxNTYgTDE1Ny41LDI2MC41MTU2IEw1MS41LDI2MC41MTU2ICIgZmlsbD0ibm9uZSIgc3R5bGU9InN0cm9rZTojMzg4RTNDO3N0cm9rZS13aWR0aDoxLjU7Ii8+PHRleHQgZmlsbD0iIzJFN0QzMiIgZm9udC1mYW1pbHk9InNhbnMtc2VyaWYiIGZvbnQtc2l6ZT0iMTQiIGxlbmd0aEFkanVzdD0ic3BhY2luZyIgdGV4dExlbmd0aD0iMTA2IiB4PSI1NC41IiB5PSIyNTYuNzY1NiI+VXNlciBNYW5hZ2VtZW50PC90ZXh0PjxyZWN0IGZpbGw9IiNGMUYxRjEiIGhlaWdodD0iMzIuODQzOCIgcng9IjEyLjUiIHJ5PSIxMi41IiBzdHlsZT0ic3Ryb2tlOiMxODE4MTg7c3Ryb2tlLXdpZHRoOjAuNTsiIHdpZHRoPSIxNzgiIHg9IjY2IiB5PSIyNzcuNTE1NiIvPjx0ZXh0IGZpbGw9IiMwMDAwMDAiIGZvbnQtZmFtaWx5PSJzYW5zLXNlcmlmIiBmb250LXNpemU9IjEyIiBsZW5ndGhBZGp1c3Q9InNwYWNpbmciIHRleHRMZW5ndGg9IjE1OCIgeD0iNzYiIHk9IjI5OC44NTk0Ij5QYXNzd29yZCBSZXNldCB2aWEgRW1haWw8L3RleHQ+PHJlY3QgZmlsbD0iI0YxRjFGMSIgaGVpZ2h0PSIzMi44NDM4IiByeD0iMTIuNSIgcnk9IjEyLjUiIHN0eWxlPSJzdHJva2U6IzE4MTgxODtzdHJva2Utd2lkdGg6MC41OyIgd2lkdGg9IjE4NyIgeD0iNjEuNSIgeT0iMzMwLjM1OTQiLz48dGV4dCBmaWxsPSIjMDAwMDAwIiBmb250LWZhbWlseT0ic2Fucy1zZXJpZiIgZm9udC1zaXplPSIxMiIgbGVuZ3RoQWRqdXN0PSJzcGFjaW5nIiB0ZXh0TGVuZ3RoPSIxNjciIHg9IjcxLjUiIHk9IjM1MS43MDMxIj5Sb2xlLUJhc2VkIEFjY2VzcyBDb250cm9sPC90ZXh0PjxyZWN0IGZpbGw9IiNDOEU2QzkiIGhlaWdodD0iMjM4LjM1OTQiIHN0eWxlPSJzdHJva2U6IzM4OEUzQztzdHJva2Utd2lkdGg6MS41OyIgd2lkdGg9IjI4OCIgeD0iMTEiIHk9IjM4NS4yMDMxIi8+PHBhdGggZD0iTTI4OSwzODUuMjAzMSBMMjg5LDM5My4xODc1IEwyNzksNDAzLjE4NzUgTDExLDQwMy4xODc1ICIgZmlsbD0ibm9uZSIgc3R5bGU9InN0cm9rZTojMzg4RTNDO3N0cm9rZS13aWR0aDoxLjU7Ii8+PHRleHQgZmlsbD0iIzJFN0QzMiIgZm9udC1mYW1pbHk9InNhbnMtc2VyaWYiIGZvbnQtc2l6ZT0iMTQiIGxlbmd0aEFkanVzdD0ic3BhY2luZyIgdGV4dExlbmd0aD0iMjY4IiB4PSIxNCIgeT0iMzk5LjQzNzUiPlJlY3J1aXRlciBQcm9maWxlICZhbXA7IENvbXBhbnkgTWFuYWdlbWVudDwvdGV4dD48cmVjdCBmaWxsPSIjRjFGMUYxIiBoZWlnaHQ9IjMyLjg0MzgiIHJ4PSIxMi41IiByeT0iMTIuNSIgc3R5bGU9InN0cm9rZTojMTgxODE4O3N0cm9rZS13aWR0aDowLjU7IiB3aWR0aD0iMTk1IiB4PSI1Ny41IiB5PSI0MjAuMTg3NSIvPjx0ZXh0IGZpbGw9IiMwMDAwMDAiIGZvbnQtZmFtaWx5PSJzYW5zLXNlcmlmIiBmb250LXNpemU9IjEyIiBsZW5ndGhBZGp1c3Q9InNwYWNpbmciIHRleHRMZW5ndGg9IjE3NSIgeD0iNjcuNSIgeT0iNDQxLjUzMTMiPkFkZC9VcGRhdGUgQ29tcGFueSBEZXRhaWxzPC90ZXh0PjxyZWN0IGZpbGw9IiNGMUYxRjEiIGhlaWdodD0iMzIuODQzOCIgcng9IjEyLjUiIHJ5PSIxMi41IiBzdHlsZT0ic3Ryb2tlOiMxODE4MTg7c3Ryb2tlLXdpZHRoOjAuNTsiIHdpZHRoPSIxNDgiIHg9IjgxIiB5PSI0NzMuMDMxMyIvPjx0ZXh0IGZpbGw9IiMwMDAwMDAiIGZvbnQtZmFtaWx5PSJzYW5zLXNlcmlmIiBmb250LXNpemU9IjEyIiBsZW5ndGhBZGp1c3Q9InNwYWNpbmciIHRleHRMZW5ndGg9IjEyOCIgeD0iOTEiIHk9IjQ5NC4zNzUiPk1hbmFnZSBKb2IgUG9zdGluZ3M8L3RleHQ+PHJlY3QgZmlsbD0iI0YxRjFGMSIgaGVpZ2h0PSIzMi44NDM4IiByeD0iMTIuNSIgcnk9IjEyLjUiIHN0eWxlPSJzdHJva2U6IzE4MTgxODtzdHJva2Utd2lkdGg6MC41OyIgd2lkdGg9IjE2MyIgeD0iNzMuNSIgeT0iNTI1Ljg3NSIvPjx0ZXh0IGZpbGw9IiMwMDAwMDAiIGZvbnQtZmFtaWx5PSJzYW5zLXNlcmlmIiBmb250LXNpemU9IjEyIiBsZW5ndGhBZGp1c3Q9InNwYWNpbmciIHRleHRMZW5ndGg9IjE0MyIgeD0iODMuNSIgeT0iNTQ3LjIxODgiPlRyYWNrIEpvYiBBcHBsaWNhdGlvbnM8L3RleHQ+PHJlY3QgZmlsbD0iI0YxRjFGMSIgaGVpZ2h0PSIzMi44NDM4IiByeD0iMTIuNSIgcnk9IjEyLjUiIHN0eWxlPSJzdHJva2U6IzE4MTgxODtzdHJva2Utd2lkdGg6MC41OyIgd2lkdGg9IjIzMyIgeD0iMzguNSIgeT0iNTc4LjcxODgiLz48dGV4dCBmaWxsPSIjMDAwMDAwIiBmb250LWZhbWlseT0ic2Fucy1zZXJpZiIgZm9udC1zaXplPSIxMiIgbGVuZ3RoQWRqdXN0PSJzcGFjaW5nIiB0ZXh0TGVuZ3RoPSIyMTMiIHg9IjQ4LjUiIHk9IjYwMC4wNjI1Ij5WaWV3L01hbmFnZSBTdHVkZW50IEFwcGxpY2F0aW9uczwvdGV4dD48cmVjdCBmaWxsPSIjQzhFNkM5IiBoZWlnaHQ9IjE4NS41MTU2IiBzdHlsZT0ic3Ryb2tlOiMzODhFM0M7c3Ryb2tlLXdpZHRoOjEuNTsiIHdpZHRoPSIxNzYiIHg9IjY3IiB5PSI2MzMuNTYyNSIvPjxwYXRoIGQ9Ik0yMzMsNjMzLjU2MjUgTDIzMyw2NDEuNTQ2OSBMMjIzLDY1MS41NDY5IEw2Nyw2NTEuNTQ2OSAiIGZpbGw9Im5vbmUiIHN0eWxlPSJzdHJva2U6IzM4OEUzQztzdHJva2Utd2lkdGg6MS41OyIvPjx0ZXh0IGZpbGw9IiMyRTdEMzIiIGZvbnQtZmFtaWx5PSJzYW5zLXNlcmlmIiBmb250LXNpemU9IjE0IiBsZW5ndGhBZGp1c3Q9InNwYWNpbmciIHRleHRMZW5ndGg9IjE1NiIgeD0iNzAiIHk9IjY0Ny43OTY5Ij5Kb2IgUG9zdGluZyBNYW5hZ2VtZW50PC90ZXh0PjxyZWN0IGZpbGw9IiNGMUYxRjEiIGhlaWdodD0iMzIuODQzOCIgcng9IjEyLjUiIHJ5PSIxMi41IiBzdHlsZT0ic3Ryb2tlOiMxODE4MTg7c3Ryb2tlLXdpZHRoOjAuNTsiIHdpZHRoPSI4NyIgeD0iMTExLjUiIHk9IjY2OC41NDY5Ii8+PHRleHQgZmlsbD0iIzAwMDAwMCIgZm9udC1mYW1pbHk9InNhbnMtc2VyaWYiIGZvbnQtc2l6ZT0iMTIiIGxlbmd0aEFkanVzdD0ic3BhY2luZyIgdGV4dExlbmd0aD0iNjciIHg9IjEyMS41IiB5PSI2ODkuODkwNiI+Q3JlYXRlIEpvYjwvdGV4dD48cmVjdCBmaWxsPSIjRjFGMUYxIiBoZWlnaHQ9IjMyLjg0MzgiIHJ4PSIxMi41IiByeT0iMTIuNSIgc3R5bGU9InN0cm9rZTojMTgxODE4O3N0cm9rZS13aWR0aDowLjU7IiB3aWR0aD0iNzEiIHg9IjExOS41IiB5PSI3MjEuMzkwNiIvPjx0ZXh0IGZpbGw9IiMwMDAwMDAiIGZvbnQtZmFtaWx5PSJzYW5zLXNlcmlmIiBmb250LXNpemU9IjEyIiBsZW5ndGhBZGp1c3Q9InNwYWNpbmciIHRleHRMZW5ndGg9IjUxIiB4PSIxMjkuNSIgeT0iNzQyLjczNDQiPkVkaXQgSm9iPC90ZXh0PjxyZWN0IGZpbGw9IiNGMUYxRjEiIGhlaWdodD0iMzIuODQzOCIgcng9IjEyLjUiIHJ5PSIxMi41IiBzdHlsZT0ic3Ryb2tlOiMxODE4MTg7c3Ryb2tlLXdpZHRoOjAuNTsiIHdpZHRoPSI4NiIgeD0iMTEyIiB5PSI3NzQuMjM0NCIvPjx0ZXh0IGZpbGw9IiMwMDAwMDAiIGZvbnQtZmFtaWx5PSJzYW5zLXNlcmlmIiBmb250LXNpemU9IjEyIiBsZW5ndGhBZGp1c3Q9InNwYWNpbmciIHRleHRMZW5ndGg9IjY2IiB4PSIxMjIiIHk9Ijc5NS41NzgxIj5EZWxldGUgSm9iPC90ZXh0PjxyZWN0IGZpbGw9IiNGMUYxRjEiIGhlaWdodD0iMzIuODQzOCIgcng9IjEyLjUiIHJ5PSIxMi41IiBzdHlsZT0ic3Ryb2tlOiMxODE4MTg7c3Ryb2tlLXdpZHRoOjAuNTsiIHdpZHRoPSI4NyIgeD0iMzIyIiB5PSIxODkuNjg3NSIvPjx0ZXh0IGZpbGw9IiMwMDAwMDAiIGZvbnQtZmFtaWx5PSJzYW5zLXNlcmlmIiBmb250LXNpemU9IjEyIiBsZW5ndGhBZGp1c3Q9InNwYWNpbmciIHRleHRMZW5ndGg9IjY3IiB4PSIzMzIiIHk9IjIxMS4wMzEzIj5TaG93IEVycm9yPC90ZXh0PjxyZWN0IGZpbGw9IiNGMUYxRjEiIGhlaWdodD0iMzIuODQzOCIgcng9IjEyLjUiIHJ5PSIxMi41IiBzdHlsZT0ic3Ryb2tlOiMxODE4MTg7c3Ryb2tlLXdpZHRoOjAuNTsiIHdpZHRoPSI5MyIgeD0iMzE5IiB5PSIyNDIuNTMxMyIvPjx0ZXh0IGZpbGw9IiMwMDAwMDAiIGZvbnQtZmFtaWx5PSJzYW5zLXNlcmlmIiBmb250LXNpemU9IjEyIiBsZW5ndGhBZGp1c3Q9InNwYWNpbmciIHRleHRMZW5ndGg9IjczIiB4PSIzMjkiIHk9IjI2My44NzUiPlJldHJ5IExvZ2luPC90ZXh0Pjxwb2x5Z29uIGZpbGw9IiNGMUYxRjEiIHBvaW50cz0iMjYwLjI1LDgyNS4wNzgxLDI3Mi4yNSw4MzcuMDc4MSwyNjAuMjUsODQ5LjA3ODEsMjQ4LjI1LDgzNy4wNzgxLDI2MC4yNSw4MjUuMDc4MSIgc3R5bGU9InN0cm9rZTojMTgxODE4O3N0cm9rZS13aWR0aDowLjU7Ii8+PGVsbGlwc2UgY3g9IjI2MC4yNSIgY3k9Ijg4MC4wNzgxIiBmaWxsPSJub25lIiByeD0iMTEiIHJ5PSIxMSIgc3R5bGU9InN0cm9rZTojMjIyMjIyO3N0cm9rZS13aWR0aDoxLjA7Ii8+PGVsbGlwc2UgY3g9IjI2MC4yNSIgY3k9Ijg4MC4wNzgxIiBmaWxsPSIjMjIyMjIyIiByeD0iNiIgcnk9IjYiIHN0eWxlPSJzdHJva2U6IzIyMjIyMjtzdHJva2Utd2lkdGg6MS4wOyIvPjxsaW5lIHN0eWxlPSJzdHJva2U6IzE4MTgxODtzdHJva2Utd2lkdGg6MS4wOyIgeDE9IjI2MC4yNSIgeDI9IjI2MC4yNSIgeTE9IjMwIiB5Mj0iNTAiLz48cG9seWdvbiBmaWxsPSIjMTgxODE4IiBwb2ludHM9IjI1Ni4yNSw0MCwyNjAuMjUsNTAsMjY0LjI1LDQwLDI2MC4yNSw0NCIgc3R5bGU9InN0cm9rZTojMTgxODE4O3N0cm9rZS13aWR0aDoxLjA7Ii8+PGxpbmUgc3R5bGU9InN0cm9rZTojMTgxODE4O3N0cm9rZS13aWR0aDoxLjA7IiB4MT0iMjYwLjI1IiB4Mj0iMjYwLjI1IiB5MT0iODIuODQzOCIgeTI9IjEwMi44NDM4Ii8+PHBvbHlnb24gZmlsbD0iIzE4MTgxOCIgcG9pbnRzPSIyNTYuMjUsOTIuODQzOCwyNjAuMjUsMTAyLjg0MzgsMjY0LjI1LDkyLjg0MzgsMjYwLjI1LDk2Ljg0MzgiIHN0eWxlPSJzdHJva2U6IzE4MTgxODtzdHJva2Utd2lkdGg6MS4wOyIvPjxsaW5lIHN0eWxlPSJzdHJva2U6IzE4MTgxODtzdHJva2Utd2lkdGg6MS4wOyIgeDE9IjE1NSIgeDI9IjE1NSIgeTE9IjMxMC4zNTk0IiB5Mj0iMzMwLjM1OTQiLz48cG9seWdvbiBmaWxsPSIjMTgxODE4IiBwb2ludHM9IjE1MSwzMjAuMzU5NCwxNTUsMzMwLjM1OTQsMTU5LDMyMC4zNTk0LDE1NSwzMjQuMzU5NCIgc3R5bGU9InN0cm9rZTojMTgxODE4O3N0cm9rZS13aWR0aDoxLjA7Ii8+PGxpbmUgc3R5bGU9InN0cm9rZTojMTgxODE4O3N0cm9rZS13aWR0aDoxLjA7IiB4MT0iMTU1IiB4Mj0iMTU1IiB5MT0iMjIyLjUzMTMiIHkyPSIyNzcuNTE1NiIvPjxwb2x5Z29uIGZpbGw9IiMxODE4MTgiIHBvaW50cz0iMTUxLDI2Ny41MTU2LDE1NSwyNzcuNTE1NiwxNTksMjY3LjUxNTYsMTU1LDI3MS41MTU2IiBzdHlsZT0ic3Ryb2tlOiMxODE4MTg7c3Ryb2tlLXdpZHRoOjEuMDsiLz48bGluZSBzdHlsZT0ic3Ryb2tlOiMxODE4MTg7c3Ryb2tlLXdpZHRoOjEuMDsiIHgxPSIxNTUiIHgyPSIxNTUiIHkxPSI0NTMuMDMxMyIgeTI9IjQ3My4wMzEzIi8+PHBvbHlnb24gZmlsbD0iIzE4MTgxOCIgcG9pbnRzPSIxNTEsNDYzLjAzMTMsMTU1LDQ3My4wMzEzLDE1OSw0NjMuMDMxMywxNTUsNDY3LjAzMTMiIHN0eWxlPSJzdHJva2U6IzE4MTgxODtzdHJva2Utd2lkdGg6MS4wOyIvPjxsaW5lIHN0eWxlPSJzdHJva2U6IzE4MTgxODtzdHJva2Utd2lkdGg6MS4wOyIgeDE9IjE1NSIgeDI9IjE1NSIgeTE9IjUwNS44NzUiIHkyPSI1MjUuODc1Ii8+PHBvbHlnb24gZmlsbD0iIzE4MTgxOCIgcG9pbnRzPSIxNTEsNTE1Ljg3NSwxNTUsNTI1Ljg3NSwxNTksNTE1Ljg3NSwxNTUsNTE5Ljg3NSIgc3R5bGU9InN0cm9rZTojMTgxODE4O3N0cm9rZS13aWR0aDoxLjA7Ii8+PGxpbmUgc3R5bGU9InN0cm9rZTojMTgxODE4O3N0cm9rZS13aWR0aDoxLjA7IiB4MT0iMTU1IiB4Mj0iMTU1IiB5MT0iNTU4LjcxODgiIHkyPSI1NzguNzE4OCIvPjxwb2x5Z29uIGZpbGw9IiMxODE4MTgiIHBvaW50cz0iMTUxLDU2OC43MTg4LDE1NSw1NzguNzE4OCwxNTksNTY4LjcxODgsMTU1LDU3Mi43MTg4IiBzdHlsZT0ic3Ryb2tlOiMxODE4MTg7c3Ryb2tlLXdpZHRoOjEuMDsiLz48bGluZSBzdHlsZT0ic3Ryb2tlOiMxODE4MTg7c3Ryb2tlLXdpZHRoOjEuMDsiIHgxPSIxNTUiIHgyPSIxNTUiIHkxPSIzNjMuMjAzMSIgeTI9IjQyMC4xODc1Ii8+PHBvbHlnb24gZmlsbD0iIzE4MTgxOCIgcG9pbnRzPSIxNTEsNDEwLjE4NzUsMTU1LDQyMC4xODc1LDE1OSw0MTAuMTg3NSwxNTUsNDE0LjE4NzUiIHN0eWxlPSJzdHJva2U6IzE4MTgxODtzdHJva2Utd2lkdGg6MS4wOyIvPjxsaW5lIHN0eWxlPSJzdHJva2U6IzE4MTgxODtzdHJva2Utd2lkdGg6MS4wOyIgeDE9IjE1NSIgeDI9IjE1NSIgeTE9IjcwMS4zOTA2IiB5Mj0iNzIxLjM5MDYiLz48cG9seWdvbiBmaWxsPSIjMTgxODE4IiBwb2ludHM9IjE1MSw3MTEuMzkwNiwxNTUsNzIxLjM5MDYsMTU5LDcxMS4zOTA2LDE1NSw3MTUuMzkwNiIgc3R5bGU9InN0cm9rZTojMTgxODE4O3N0cm9rZS13aWR0aDoxLjA7Ii8+PGxpbmUgc3R5bGU9InN0cm9rZTojMTgxODE4O3N0cm9rZS13aWR0aDoxLjA7IiB4MT0iMTU1IiB4Mj0iMTU1IiB5MT0iNzU0LjIzNDQiIHkyPSI3NzQuMjM0NCIvPjxwb2x5Z29uIGZpbGw9IiMxODE4MTgiIHBvaW50cz0iMTUxLDc2NC4yMzQ0LDE1NSw3NzQuMjM0NCwxNTksNzY0LjIzNDQsMTU1LDc2OC4yMzQ0IiBzdHlsZT0ic3Ryb2tlOiMxODE4MTg7c3Ryb2tlLXdpZHRoOjEuMDsiLz48bGluZSBzdHlsZT0ic3Ryb2tlOiMxODE4MTg7c3Ryb2tlLXdpZHRoOjEuMDsiIHgxPSIxNTUiIHgyPSIxNTUiIHkxPSI2MTEuNTYyNSIgeTI9IjY2OC41NDY5Ii8+PHBvbHlnb24gZmlsbD0iIzE4MTgxOCIgcG9pbnRzPSIxNTEsNjU4LjU0NjksMTU1LDY2OC41NDY5LDE1OSw2NTguNTQ2OSwxNTUsNjYyLjU0NjkiIHN0eWxlPSJzdHJva2U6IzE4MTgxODtzdHJva2Utd2lkdGg6MS4wOyIvPjxsaW5lIHN0eWxlPSJzdHJva2U6IzE4MTgxODtzdHJva2Utd2lkdGg6MS4wOyIgeDE9IjM2NS41IiB4Mj0iMzY1LjUiIHkxPSIyMjIuNTMxMyIgeTI9IjI0Mi41MzEzIi8+PHBvbHlnb24gZmlsbD0iIzE4MTgxOCIgcG9pbnRzPSIzNjEuNSwyMzIuNTMxMywzNjUuNSwyNDIuNTMxMywzNjkuNSwyMzIuNTMxMywzNjUuNSwyMzYuNTMxMyIgc3R5bGU9InN0cm9rZTojMTgxODE4O3N0cm9rZS13aWR0aDoxLjA7Ii8+PGxpbmUgc3R5bGU9InN0cm9rZTojMTgxODE4O3N0cm9rZS13aWR0aDoxLjA7IiB4MT0iMTk3LjI1IiB4Mj0iMTU1IiB5MT0iMTY3LjY4NzUiIHkyPSIxNjcuNjg3NSIvPjxsaW5lIHN0eWxlPSJzdHJva2U6IzE4MTgxODtzdHJva2Utd2lkdGg6MS4wOyIgeDE9IjE1NSIgeDI9IjE1NSIgeTE9IjE2Ny42ODc1IiB5Mj0iMTg5LjY4NzUiLz48cG9seWdvbiBmaWxsPSIjMTgxODE4IiBwb2ludHM9IjE1MSwxNzkuNjg3NSwxNTUsMTg5LjY4NzUsMTU5LDE3OS42ODc1LDE1NSwxODMuNjg3NSIgc3R5bGU9InN0cm9rZTojMTgxODE4O3N0cm9rZS13aWR0aDoxLjA7Ii8+PGxpbmUgc3R5bGU9InN0cm9rZTojMTgxODE4O3N0cm9rZS13aWR0aDoxLjA7IiB4MT0iMzIzLjI1IiB4Mj0iMzY1LjUiIHkxPSIxNjcuNjg3NSIgeTI9IjE2Ny42ODc1Ii8+PGxpbmUgc3R5bGU9InN0cm9rZTojMTgxODE4O3N0cm9rZS13aWR0aDoxLjA7IiB4MT0iMzY1LjUiIHgyPSIzNjUuNSIgeTE9IjE2Ny42ODc1IiB5Mj0iMTg5LjY4NzUiLz48cG9seWdvbiBmaWxsPSIjMTgxODE4IiBwb2ludHM9IjM2MS41LDE3OS42ODc1LDM2NS41LDE4OS42ODc1LDM2OS41LDE3OS42ODc1LDM2NS41LDE4My42ODc1IiBzdHlsZT0ic3Ryb2tlOiMxODE4MTg7c3Ryb2tlLXdpZHRoOjEuMDsiLz48bGluZSBzdHlsZT0ic3Ryb2tlOiMxODE4MTg7c3Ryb2tlLXdpZHRoOjEuMDsiIHgxPSIxNTUiIHgyPSIxNTUiIHkxPSI4MDcuMDc4MSIgeTI9IjgzNy4wNzgxIi8+PGxpbmUgc3R5bGU9InN0cm9rZTojMTgxODE4O3N0cm9rZS13aWR0aDoxLjA7IiB4MT0iMTU1IiB4Mj0iMjQ4LjI1IiB5MT0iODM3LjA3ODEiIHkyPSI4MzcuMDc4MSIvPjxwb2x5Z29uIGZpbGw9IiMxODE4MTgiIHBvaW50cz0iMjM4LjI1LDgzMy4wNzgxLDI0OC4yNSw4MzcuMDc4MSwyMzguMjUsODQxLjA3ODEsMjQyLjI1LDgzNy4wNzgxIiBzdHlsZT0ic3Ryb2tlOiMxODE4MTg7c3Ryb2tlLXdpZHRoOjEuMDsiLz48bGluZSBzdHlsZT0ic3Ryb2tlOiMxODE4MTg7c3Ryb2tlLXdpZHRoOjEuMDsiIHgxPSIzNjUuNSIgeDI9IjM2NS41IiB5MT0iMjc1LjM3NSIgeTI9IjgzNy4wNzgxIi8+PGxpbmUgc3R5bGU9InN0cm9rZTojMTgxODE4O3N0cm9rZS13aWR0aDoxLjA7IiB4MT0iMzY1LjUiIHgyPSIyNzIuMjUiIHkxPSI4MzcuMDc4MSIgeTI9IjgzNy4wNzgxIi8+PHBvbHlnb24gZmlsbD0iIzE4MTgxOCIgcG9pbnRzPSIyODIuMjUsODMzLjA3ODEsMjcyLjI1LDgzNy4wNzgxLDI4Mi4yNSw4NDEuMDc4MSwyNzguMjUsODM3LjA3ODEiIHN0eWxlPSJzdHJva2U6IzE4MTgxODtzdHJva2Utd2lkdGg6MS4wOyIvPjxsaW5lIHN0eWxlPSJzdHJva2U6IzE4MTgxODtzdHJva2Utd2lkdGg6MS4wOyIgeDE9IjI2MC4yNSIgeDI9IjI2MC4yNSIgeTE9IjEzNS42ODc1IiB5Mj0iMTU1LjY4NzUiLz48cG9seWdvbiBmaWxsPSIjMTgxODE4IiBwb2ludHM9IjI1Ni4yNSwxNDUuNjg3NSwyNjAuMjUsMTU1LjY4NzUsMjY0LjI1LDE0NS42ODc1LDI2MC4yNSwxNDkuNjg3NSIgc3R5bGU9InN0cm9rZTojMTgxODE4O3N0cm9rZS13aWR0aDoxLjA7Ii8+PGxpbmUgc3R5bGU9InN0cm9rZTojMTgxODE4O3N0cm9rZS13aWR0aDoxLjA7IiB4MT0iMjYwLjI1IiB4Mj0iMjYwLjI1IiB5MT0iODQ5LjA3ODEiIHkyPSI4NjkuMDc4MSIvPjxwb2x5Z29uIGZpbGw9IiMxODE4MTgiIHBvaW50cz0iMjU2LjI1LDg1OS4wNzgxLDI2MC4yNSw4NjkuMDc4MSwyNjQuMjUsODU5LjA3ODEsMjYwLjI1LDg2My4wNzgxIiBzdHlsZT0ic3Ryb2tlOiMxODE4MTg7c3Ryb2tlLXdpZHRoOjEuMDsiLz48IS0tU1JDPVtWUDlEUnppbTM4UmwtWExpMW5KZk9NWU5EMXpEM2VEWm9tRTZoV1lTZmkyRWdhTXhIMU45YUVHNm5QM19GaUtuNVl6UHZlRFdhMnpWRlhIcjhSNFdaUDNuLTJid19GUjA4TFYyRVNSUzYtYkFNQjY2NXY2X2JUUktNaVA2NkdrVi0yR1R5bGtFR1hrOXk4ajEtRVI3dWNZT1pBQm5GY1VpSERsNjF2Qzk3eUhERjNOUWp6NGx5bzdsdHg5am5ybllKZXdDRmpTV0pQRlhOTmhRODRyN3dVdFZMazdxdkZfWjVLX3VBQnVfWGtocFNKQmVkbnJYNm94QjFzU3NOTEFmT0xORHNGSjFiQUhkWjU0MWxVT1ZiZE1VZXRENWhSdlVXdHo1M1JzVndBdVJyb2JWMnJCbVo5T0FvaU1FQ0RKa0NXVllvdkwzMnAtNDVZTWtLVmxCVGVRY1ZYNU1qV2JlYUE1MzMteWFlQjZTN0lJUEtWWHZCWG5BWTFlSVlDRTRyaElReEtjXzM3RFJhbXpENXpPS2YxMmtHaWN3NGxoWjc0T2F2U3NnYWlCWjdzTTJGZDJ1M2lZLTVod1I1cldPdnFjTnRVb0ozSmpmYWI1TGdWT29rZTlkbWlyRHd4N3FqR21DX3YyVVpqRmZUbXVfamhYMzN5ZkVGb3g5N3VLSUxEWkxSUGtKZU44OGxLVkp4ZEp2UVpSMGhKTHNodmZjd0VxN2oyeTNqUUhZenQxQ3pIaTBdLS0+PC9nPjwvc3ZnPg==;" vertex="1" parent="1">
            <mxGeometry x="-403" y="392" width="423" height="902" as="geometry" />
          </mxCell>
        </UserObject>
      </root>
    </mxGraphModel>
  </diagram>
</mxfile>
